<?xml version="1.0" standalone="no"?>
<!DOCTYPE svg PUBLIC "-//W3C//DTD SVG 1.1//EN" "http://www.w3.org/Graphics/SVG/1.1/DTD/svg11.dtd" >
<svg xmlns="http://www.w3.org/2000/svg">
<metadata></metadata>
<defs>
<font id="cylburn_regularregular" horiz-adv-x="659" >
<font-face units-per-em="2048" ascent="1100" descent="-948" />
<missing-glyph horiz-adv-x="362" />
<glyph unicode="&#xfb03;" horiz-adv-x="968" d="M-422 -498q0 39 13.5 68t39.5 55q14 14 40 26.5t57 12.5q6 0 11 -1t9 -3q-2 8 -2 16.5v18.5q0 39 78 159.5t194 292.5q47 70 118 169.5t149 209.5h-23q-27 0 -35 9.5t-8 29.5h94q129 178 254 342t183 221q66 66 100.5 81.5t60.5 15.5q45 0 65.5 -31t20.5 -66 q0 -27 -21.5 -65.5t-68.5 -63.5q-14 10 -23.5 27.5t-9.5 32.5q8 35 37 62.5t43 33.5q-2 27 -11 35t-23 8q-20 0 -43 -18.5t-43 -38.5q-41 -41 -162 -211t-254 -365h225q90 127 174 240t135 164q70 70 106 85t64 15q59 0 82 -34t23 -66q0 -45 -23.5 -97.5t-79.5 -85.5 q-14 10 -23 27.5t-9 32.5q4 18 15 35.5t26 31.5q14 14 27.5 22.5t21.5 8.5q4 6 7 13.5t3 13.5q0 27 -13.5 49t-48.5 22q-20 0 -44.5 -18t-49.5 -43q-35 -35 -117.5 -154.5t-179.5 -263.5h199q25 0 36 -25.5t11 -52.5q0 -57 -127 -207.5t-135 -244.5q74 0 203 112.5 t186 184.5l6 -11q0 -31 -156.5 -175t-234.5 -144q-12 0 -22.5 5t-20.5 15q-8 8 -21.5 34t-13.5 50q0 82 80 178.5t186 249.5q-49 -2 -98 -2t-100 -2q-109 -164 -207 -315.5t-137 -206.5q-178 -250 -312.5 -450.5t-312.5 -200.5q-84 0 -127 51t-43 96zM-354 -535 q8 -43 25.5 -57t56.5 -14q133 0 278.5 225t349.5 526q45 63 115 168t147 215q-57 -2 -113 -2h-114q-111 -164 -209 -307t-143 -207q-63 -90 -131 -197.5t-103 -174.5q-6 -10 -12 -21.5t-8 -21.5q-6 8 -13.5 11t-17.5 3q-37 0 -72.5 -43t-35.5 -103z" />
<glyph horiz-adv-x="2048" />
<glyph horiz-adv-x="2048" />
<glyph unicode="&#xd;" horiz-adv-x="2048" />
<glyph unicode=" "  horiz-adv-x="362" />
<glyph unicode="&#x09;" horiz-adv-x="362" />
<glyph unicode="&#xa0;" horiz-adv-x="362" />
<glyph unicode="!" horiz-adv-x="540" d="M80 45q0 27 24.5 54.5t49.5 27.5q20 0 31.5 -11.5t11.5 -33.5q0 -27 -25 -54.5t-51 -27.5q-20 0 -30.5 11.5t-10.5 33.5zM236 207q0 12 182 259t280 394q27 39 41.5 53.5t28.5 14.5q25 0 41 -18.5t16 -32.5q0 -27 -14 -54.5t-72 -87.5q-326 -348 -403.5 -442t-91.5 -94 q-2 0 -5 2t-3 6z" />
<glyph unicode="&#x22;" horiz-adv-x="286" d="M358 834q0 4 74 105t129 183q14 20 22.5 28.5t16.5 8.5q14 0 23.5 -10t9.5 -19q0 -14 -8.5 -29.5t-40.5 -47.5q-131 -135 -171 -181.5t-46 -46.5q-4 0 -6.5 2t-2.5 7zM543 834q0 4 73.5 105t128.5 183q14 20 22.5 28.5t16.5 8.5q14 0 23.5 -10t9.5 -19q0 -14 -8 -29.5 t-41 -47.5q-131 -135 -171 -181.5t-46 -46.5q-4 0 -6 2t-2 7z" />
<glyph unicode="#" horiz-adv-x="894" d="M118 34.5q5 26.5 79 127.5l108 147h-106q-27 0 -35 16.5t-8 32.5h186l141 195h-121q-27 0 -35 16.5t-8 32.5h201l244 332q10 -8 2 -37t-82 -129l-121 -166h252l244 332q12 -8 5 -35t-83 -129l-123 -168h123q20 0 24.5 -18.5t4.5 -26.5q-51 0 -96.5 -1t-88.5 -1l-143 -197 h135q20 0 24.5 -18t4.5 -27q-53 0 -103.5 -1t-95.5 -1l-227 -311q-10 10 -6 35.5t80 128.5l108 147q-63 0 -124.5 -1t-127.5 -1l-225 -309q-12 8 -7 34.5zM387 358h250l143 197q-63 0 -125.5 -1t-126.5 -1z" />
<glyph unicode="$" horiz-adv-x="786" d="M39 195q0 37 16.5 67.5t50.5 65.5q14 14 41 28.5t41 14.5t24.5 -4.5t10.5 -12.5t-7 -17t-11 -13q-25 -25 -60.5 -85.5t-35.5 -91.5q0 -51 30.5 -85.5t85.5 -45.5q4 8 10.5 19.5t14.5 21.5l297 457q-12 41 -21.5 82t-9.5 80q0 98 68.5 172t171.5 74q14 0 28.5 -1t26.5 -3 l61 94q8 -4 6.5 -21.5t-36.5 -81.5q45 -14 62.5 -42.5t17.5 -57.5q0 -27 -21.5 -63.5t-66.5 -63.5q-14 12 -23.5 28.5t-9.5 30.5q8 33 34.5 59.5t43.5 35.5q-2 20 -14.5 32.5t-37.5 18.5q-4 -8 -11 -19.5t-15 -23.5l-160 -246q20 -68 44 -133.5t24 -114.5 q0 -164 -134.5 -270.5t-277.5 -106.5q-14 0 -28.5 1t-28.5 3l-58 -88q-6 6 -7 21.5t32 73.5q-82 18 -125 73.5t-43 137.5zM262 12h17q147 0 227 91.5t80 179.5q0 55 -8.5 101t-18.5 87zM612 737q0 -23 4.5 -47t12.5 -51l166 254q-8 2 -16.5 2h-16.5q-55 0 -102.5 -47 t-47.5 -111z" />
<glyph unicode="%" horiz-adv-x="1114" d="M139 -18q-8 12 3.5 36.5t103.5 106.5q293 256 603 527l310 270q8 -14 -7 -39t-105 -103q-274 -242 -591 -520zM252 492q0 129 133 279.5t293 150.5q39 0 62.5 -21.5t23.5 -58.5q0 -74 -51 -161t-127 -163q-59 -59 -127 -102t-111 -43q-47 0 -71.5 38t-24.5 81zM301 453 q0 -27 11.5 -37t29.5 -10q37 0 98.5 39.5t118.5 97.5q70 70 122 152.5t52 146.5q0 20 -11 34.5t-26 14.5q-70 0 -232.5 -184.5t-162.5 -253.5zM594 100q0 129 133 279.5t293 150.5q39 0 61.5 -21.5t22.5 -57.5q0 -74 -51.5 -161t-126.5 -163q-59 -59 -127 -102t-111 -43 q-47 0 -70.5 37.5t-23.5 80.5zM643 61q0 -27 4 -37t23 -10q37 0 98 40t119 98q70 70 122 152.5t52 146.5q0 20 -4 34.5t-19 14.5q-70 0 -232.5 -184.5t-162.5 -254.5z" />
<glyph unicode="&#x26;" horiz-adv-x="1054" d="M123 121q0 201 207 344t420 221q70 106 144.5 173t117.5 67q57 0 76.5 -31t19.5 -78q0 -27 -19.5 -62.5t-64.5 -56.5q-14 8 -22.5 24.5t-8.5 31.5q12 39 36 66.5t38 33.5q-2 25 -11 33t-24 8q-51 0 -152.5 -149.5t-142.5 -346.5q84 68 164 99.5t143 31.5q61 0 96.5 -21.5 t55.5 -41.5q4 -4 6 -8t2 -8q0 -2 -2 -5.5t-4 -5.5q-39 27 -71.5 37t-82.5 10q-76 0 -160.5 -39.5t-154.5 -93.5q-4 -29 -7 -59.5t-3 -58.5q0 -51 19.5 -94.5t45.5 -69.5q23 -23 44.5 -33t52.5 -10q4 0 10 2t14 4l1 -2t1 -6t-1 -6.5t-3 -4.5q-6 -6 -27.5 -11t-60.5 -5 q-82 0 -146.5 60.5t-64.5 179.5v4q-141 -129 -229 -195.5t-146 -66.5q-43 0 -74.5 37.5t-31.5 101.5zM176 90q0 -45 18.5 -58.5t38.5 -13.5q55 0 149.5 70t223.5 191q6 100 41 195t82 177q-172 -94 -362.5 -262t-190.5 -299z" />
<glyph unicode="'" horiz-adv-x="288" d="M358 834q0 4 74 105t129 183q14 20 22.5 28.5t16.5 8.5q14 0 23.5 -10t9.5 -19q0 -14 -8.5 -29.5t-40.5 -47.5q-131 -135 -171 -181.5t-46 -46.5q-4 0 -6.5 2t-2.5 7z" />
<glyph unicode="(" horiz-adv-x="614" d="M147 100q0 340 375 690.5t721 434.5q2 -12 -13.5 -20.5t-66.5 -30.5q-305 -131 -627.5 -495t-322.5 -663q0 -92 16.5 -167.5t30.5 -98.5q4 -6 5 -16t-5 -19q-20 20 -66.5 114.5t-46.5 270.5z" />
<glyph unicode=")" horiz-adv-x="614" d="M-332 -285q-2 12 13.5 20.5t66.5 31.5q305 131 627.5 494.5t322.5 662.5q0 92 -16 167.5t-31 98.5q-4 6 -5 16.5t5 18.5q20 -20 66.5 -114.5t46.5 -270.5q0 -340 -375 -690.5t-721 -434.5z" />
<glyph unicode="*" horiz-adv-x="573" d="M431 933.5q3 18.5 11 24.5q12 10 39 13.5t54 -4.5q41 -12 88 -21.5t71 -15.5q-14 16 -46 58t-68 95q-14 18 -20.5 37t-4.5 25q8 16 25.5 22.5t25.5 3.5q16 -6 32.5 -27.5t23.5 -47.5q10 -41 25 -87t22 -71q8 20 27.5 68.5t45.5 109.5q10 20 22.5 34.5t20.5 14.5 q18 2 32.5 -10t16.5 -20q2 -16 -8 -41t-30 -43q-31 -31 -64 -67t-51 -54q20 4 72.5 10t119.5 14q23 2 42.5 -2t21.5 -10q12 -14 9 -32.5t-11 -24.5q-12 -10 -39 -13.5t-53 5.5q-41 12 -88 21t-72 15q14 -16 46 -58t69 -95q14 -18 20 -36.5t4 -25.5q-8 -16 -25.5 -22 t-25.5 -4q-16 6 -32.5 27.5t-22.5 48.5q-10 41 -25.5 87t-21.5 70q-8 -20 -27.5 -68.5t-46.5 -109.5q-10 -20 -22.5 -34.5t-20.5 -14.5q-18 -2 -32.5 10t-16.5 21q-2 16 8 40.5t31 43.5q31 31 63.5 66.5t50.5 53.5q-20 -4 -72.5 -10t-119.5 -14q-23 -2 -42.5 2t-21.5 10 q-12 14 -9 32.5z" />
<glyph unicode="+" horiz-adv-x="634" d="M158 469q55 2 123.5 1t140.5 -1l176 238q10 -8 2 -36t-82 -128l-53 -74h190q20 0 23.5 -11.5t3.5 -15.5q-59 0 -119.5 -1t-120.5 -1l-168 -229q-8 8 -4 35.5t80 128.5l47 63h-198q-27 0 -34 9.5t-7 21.5z" />
<glyph unicode="," horiz-adv-x="305" d="M-78 -86l3 -1t7 -1q33 0 75 24.5t42 57.5q0 14 -8 22.5t-8 26.5q0 27 24.5 55.5t51.5 28.5q20 0 31.5 -15.5t11.5 -39.5q0 -82 -78 -132.5t-125 -50.5q-12 0 -19.5 7.5t-7.5 17.5z" />
<glyph unicode="-" horiz-adv-x="524" d="M205 354q70 2 135.5 1t122.5 -1q20 0 24.5 -17.5t4.5 -23.5q-55 -2 -121 -3t-123 -1q-27 0 -35 15.5t-8 29.5z" />
<glyph unicode="." horiz-adv-x="286" d="M33 45q0 27 24.5 55.5t51.5 28.5q18 0 30.5 -12.5t12.5 -32.5q0 -29 -26 -56.5t-52 -27.5q-18 0 -29.5 12.5t-11.5 32.5z" />
<glyph unicode="/" horiz-adv-x="499" d="M-96 -143.5q8 26.5 88 118.5q360 418 708 827l349 410q16 -16 8 -39.5t-88 -117.5q-342 -399 -703 -817l-360 -418q-10 10 -2 36.5z" />
<glyph unicode="0" horiz-adv-x="815" d="M129 170q0 254 231.5 503t427.5 249q68 0 110 -33t42 -119q0 -154 -80 -304.5t-192 -262.5q-100 -100 -206 -160.5t-175 -60.5q-70 0 -114 53t-44 135zM182 141q0 -70 31 -92t59 -22q61 0 159.5 62.5t197.5 160.5q113 113 194.5 255t81.5 265q0 66 -26.5 92.5t-69.5 26.5 q-106 0 -366.5 -278.5t-260.5 -469.5z" />
<glyph unicode="1" horiz-adv-x="546" d="M-12 10q0 8 19.5 18.5t37.5 28.5q35 35 216 280t331 462q-16 -10 -33.5 -17.5t-26.5 -7.5q-6 0 -9 3t-3 7q0 14 79 50t161 96q2 2 11 -1t7 -7q-301 -424 -449.5 -641.5t-148.5 -249.5q0 -8 3 -14.5t3 -8.5q0 -4 -6 -6t-10 -2q-8 0 -25.5 2t-64.5 2q-39 0 -54.5 -2 t-25.5 -2q-6 0 -9 3t-3 7z" />
<glyph unicode="2" horiz-adv-x="733" d="M-82 8q0 2 1 4t3 4q27 37 53.5 69t47.5 52q131 131 297.5 179.5t322.5 203.5q45 45 97.5 122t52.5 171q0 41 -19.5 60.5t-46.5 19.5q-51 0 -107.5 -27.5t-93.5 -64.5q-51 -51 -67.5 -94t-34.5 -43q-12 0 -18.5 6t-6.5 22q0 20 17.5 49t56.5 68q63 63 130 88t136 25 q68 0 109 -37t41 -121t-41 -148.5t-80 -103.5q-172 -172 -384 -221t-341 -178q-8 -8 -16.5 -17.5t-16.5 -17.5q27 14 58.5 26.5t58.5 12.5q80 0 129 -29t127 -29q84 0 131 27t55 27q2 0 4 -2t2 -7q0 -14 -59 -65t-182 -51q-113 0 -166 30.5t-107 30.5q-66 0 -91 -24.5 t-42 -24.5q-6 0 -8 3t-2 5z" />
<glyph unicode="3" horiz-adv-x="722" d="M-10 129q0 45 15 77t50 66q14 14 41 28.5t41 14.5t24.5 -4t10.5 -12t-7 -17.5t-11 -13.5q-25 -25 -61 -85t-36 -91q0 -29 19.5 -51.5t58.5 -22.5q135 0 303 142.5t168 292.5q0 23 -6 38t-20 23q-14 -2 -26.5 -4t-25.5 -2q-27 0 -39 3t-14 7q6 16 18.5 27.5t34.5 11.5 q16 0 31.5 -2t28.5 -4q100 41 175 120t75 160q0 31 -15.5 46.5t-52.5 15.5q-51 0 -107.5 -27.5t-93.5 -64.5q-51 -51 -67.5 -94t-34.5 -43q-12 0 -18.5 6t-6.5 22q0 20 17.5 49t56.5 68q63 63 130 88t136 25q63 0 98 -32t35 -77q0 -88 -88 -168t-188 -115q35 -20 51.5 -55 t16.5 -72q0 -141 -185.5 -281t-365.5 -140q-82 0 -124 48t-42 99z" />
<glyph unicode="4" horiz-adv-x="702" d="M-2 233q0 14 224 160t708 537q2 2 13 -1t9 -7q-166 -227 -286.5 -395.5t-196.5 -276.5h6q100 0 155.5 16.5t63.5 16.5q2 0 4 -2t2 -7q0 -14 -82.5 -41.5t-150.5 -27.5h-29q-51 -74 -75.5 -117t-24.5 -57q0 -8 3 -14.5t3 -8.5q0 -4 -6 -6t-10 -2q-8 0 -25.5 2t-64.5 2 q-39 0 -54.5 -2t-25.5 -2q-6 0 -9.5 3t-3.5 7q0 8 19.5 18.5t38.5 28.5q12 12 46 54.5t83 103.5q-57 6 -103.5 14.5t-68.5 8.5q-57 0 -94 -7.5t-50 -7.5q-12 0 -15 2t-3 8zM76 258q20 6 42.5 9t43.5 3q57 0 106 -5t97 -9q82 102 181 233.5t189 251.5q-172 -141 -363.5 -278 t-295.5 -205z" />
<glyph unicode="5" horiz-adv-x="763" d="M8 129q0 45 15.5 77t50.5 66q14 14 40.5 28.5t41.5 14.5q14 0 24 -4t10 -12t-7 -17.5t-11 -13.5q-25 -25 -60.5 -85t-35.5 -91q0 -29 19.5 -51.5t58.5 -22.5q147 0 335.5 200t188.5 349q0 43 -14.5 61.5t-45.5 18.5q-92 0 -153.5 -39t-79.5 -39q-8 0 -11 3t-3 8 q0 10 92 115.5t166 205.5q-2 6 -5 11.5t-3 7.5t3 4t5 2q27 -14 92 -37t162 -23q88 0 136 29t56 29q2 0 4 -2t2 -7q0 -14 -59 -65t-188 -51q-57 0 -106.5 15t-63.5 30q-2 2 -7.5 10t-11.5 16q-49 -57 -100 -118.5t-101 -120.5q41 20 91.5 34.5t99.5 14.5q68 0 103.5 -37 t35.5 -125q0 -141 -204.5 -338.5t-395.5 -197.5q-82 0 -124 48t-42 99z" />
<glyph unicode="6" horiz-adv-x="782" d="M137 188q0 252 246 493t457 241q68 0 96.5 -32t28.5 -79q0 -27 -19.5 -62.5t-64.5 -56.5q-14 8 -22.5 24.5t-8.5 31.5q12 39 34.5 65.5t37.5 34.5q-4 25 -20.5 33t-41.5 8q-74 0 -198.5 -90t-237.5 -215q63 45 114.5 61.5t102.5 16.5q63 0 99 -37t36 -125 q0 -160 -166 -339t-313 -179q-70 0 -115 56t-45 150zM190 160q0 -84 32 -112t61 -28q104 0 250.5 180.5t146.5 348.5q0 43 -14.5 61.5t-40.5 18.5q-76 0 -146.5 -43t-140.5 -105q-63 -86 -105.5 -170t-42.5 -151z" />
<glyph unicode="7" horiz-adv-x="620" d="M43 10q0 6 17.5 16.5t35.5 28.5q63 63 174 211t535 565q-29 -10 -61.5 -17t-69.5 -7q-82 0 -137.5 14.5t-81.5 14.5q-55 0 -80 -25t-37 -25q-2 0 -4 2.5t-2 4.5q0 10 64.5 69.5t95.5 59.5q57 0 100 -19.5t139 -19.5q88 0 136 28.5t57 28.5q4 0 7 -2t3 -6q0 -2 -1 -5 t-3 -5l-19 -19q-389 -426 -532 -629.5t-143 -242.5q0 -8 2 -14.5t2 -8.5q0 -4 -6.5 -6t-12.5 -2q-4 0 -21.5 2t-64.5 2q-39 0 -54 -2t-26 -2q-6 0 -9 3t-3 7z" />
<glyph unicode="8" horiz-adv-x="749" d="M76 199q0 141 133 250.5t311 140.5q-4 20 -7 43.5t-3 48.5q0 94 71.5 167t174.5 73q68 0 106.5 -40t38.5 -91q0 -106 -81 -167t-156 -85q16 -49 30.5 -96.5t14.5 -86.5q0 -168 -134.5 -272t-277.5 -104q-104 0 -162.5 61t-58.5 158zM141 168q0 -70 36 -110t102 -40 q147 0 227 89.5t80 181.5q0 84 -21.5 150.5t-38.5 129.5q-174 -45 -279.5 -151.5t-105.5 -249.5zM612 743q0 -39 13.5 -86t29.5 -94q76 27 136.5 85.5t60.5 146.5q0 51 -24.5 74.5t-63.5 23.5q-57 0 -104.5 -45t-47.5 -105z" />
<glyph unicode="9" horiz-adv-x="782" d="M37 121q0 41 14.5 70.5t40.5 56.5q14 14 41 28.5t41 14.5t24.5 -4t10.5 -13q0 -8 -7 -17t-12 -13q-14 -14 -49 -74.5t-35 -95.5q0 -23 18.5 -40.5t55.5 -17.5q76 0 208 99.5t247 234.5q-66 -47 -119 -66.5t-102 -19.5q-68 0 -104 41t-36 121q0 154 158 325t303 171 q80 0 120 -49.5t40 -127.5q0 -272 -242.5 -517.5t-451.5 -245.5q-78 0 -121 43t-43 96zM371 377q0 -35 14 -57.5t45 -22.5q70 0 140.5 44t140.5 110q57 82 94 162.5t37 146.5q0 76 -27 99.5t-65 23.5q-102 0 -240.5 -172t-138.5 -334z" />
<glyph unicode=":" horiz-adv-x="350" d="M33 45q0 27 24.5 55.5t51.5 28.5q18 0 30.5 -12.5t12.5 -32.5q0 -29 -26 -56.5t-52 -27.5q-18 0 -29.5 12.5t-11.5 32.5zM315 487q0 27 25 55.5t51 28.5q18 0 30.5 -12t12.5 -33q0 -29 -25.5 -56.5t-52.5 -27.5q-18 0 -29.5 12.5t-11.5 32.5z" />
<glyph unicode=";" horiz-adv-x="350" d="M-78 -86l3 -1t7 -1q33 0 75 24.5t42 57.5q0 14 -8 22.5t-8 26.5q0 27 24.5 55.5t51.5 28.5q20 0 31.5 -15.5t11.5 -39.5q0 -82 -78 -132.5t-125 -50.5q-12 0 -19.5 7.5t-7.5 17.5zM315 487q0 27 25 55.5t51 28.5q18 0 30.5 -12t12.5 -33q0 -29 -25.5 -56.5t-52.5 -27.5 q-18 0 -29.5 12.5t-11.5 32.5z" />
<glyph unicode="&#x3c;" horiz-adv-x="532" d="M197 315v11q129 35 253.5 126t139.5 91q2 0 3 -7.5t1 -11.5q-76 -88 -160 -150.5t-147 -97.5l6 -6q23 -23 51.5 -85t28.5 -119q0 -12 -2 -17.5t-4 -5.5q-8 0 -35 46t-64 93q-20 27 -45.5 50.5t-25.5 82.5z" />
<glyph unicode="=" horiz-adv-x="716" d="M98 307q104 2 245.5 1t252.5 -1q20 0 23.5 -11t3.5 -15q-121 -2 -243 -3.5t-241 -1.5q-27 0 -34 9.5t-7 21.5zM240 475q104 2 245.5 1t251.5 -1q20 0 23.5 -11t3.5 -15q-121 -2 -243 -3.5t-240 -1.5q-27 0 -34 9.5t-7 21.5z" />
<glyph unicode="&#x3e;" horiz-adv-x="532" d="M59 61q76 88 160 150.5t148 97.5l-7 6q-23 23 -51 85.5t-28 119.5q0 12 2 17.5t4 5.5q8 0 34.5 -46t63.5 -94q20 -27 46 -50t26 -83v-10q-129 -35 -254 -126t-140 -91q-2 0 -3 7t-1 11z" />
<glyph unicode="?" horiz-adv-x="630" d="M78 45q0 27 24.5 54.5t49.5 27.5q20 0 31.5 -11.5t11.5 -33.5q0 -27 -25 -54.5t-51 -27.5q-20 0 -30.5 11.5t-10.5 33.5zM217 207q0 14 38 58t64 71q55 55 104.5 91t106.5 93q45 45 102.5 118t57.5 171q0 47 -20.5 68.5t-53.5 21.5q-45 0 -94 -27.5t-86 -64.5 q-61 -61 -75.5 -99t-32.5 -38q-8 0 -13.5 7t-5.5 21q0 20 17.5 49t56.5 68q63 63 122.5 88t123.5 25q78 0 123 -41t45 -127q0 -74 -39 -125t-60 -72q-74 -74 -181 -127t-224 -170q-25 -25 -41 -46t-25 -21q-6 0 -8 3t-2 5z" />
<glyph unicode="@" horiz-adv-x="1251" d="M176 154q0 270 262 520t576 250q168 0 246.5 -71t78.5 -187q0 -213 -187 -378t-294 -165q-12 0 -25.5 4t-23.5 14q-6 6 -17.5 31t-11.5 49q0 16 5.5 34.5t13.5 39.5q-76 -76 -144.5 -124t-111.5 -48q-39 0 -60.5 35t-21.5 88q0 111 151.5 263.5t288.5 154.5 q53 -20 70.5 -42t17.5 -42v-13.5t-2 -13.5q20 27 33.5 48.5t15.5 33.5q35 -14 41 -35.5t6 -42.5q0 -43 -117.5 -180t-117.5 -215q0 -2 2 -4t4 -2q88 0 271.5 165.5t183.5 344.5q0 104 -65.5 168.5t-219.5 64.5q-262 0 -528.5 -259t-266.5 -515q0 -123 66.5 -180.5 t183.5 -57.5q137 0 261 39t241 127q2 -2 3 -5t1 -5q0 -4 -4 -10t-10 -13q-47 -47 -181.5 -111.5t-295.5 -64.5q-160 0 -239 88t-79 222zM522 168q2 -2 10.5 -4t18.5 -2q37 0 101.5 46t144.5 126q25 25 93 103.5t68 142.5q0 14 -2 20t-6 14q-102 -10 -261 -174t-167 -272z " />
<glyph unicode="A" horiz-adv-x="1595" d="M92 213q0 225 254 396t496 171q117 0 212 -36.5t146 -112.5q223 223 411.5 408.5t276.5 185.5q39 0 53.5 -33t14.5 -76q0 -219 -353.5 -588.5t-353.5 -537.5q0 -14 7.5 -22.5t17.5 -8.5q82 0 226.5 125t207.5 205q2 -2 4 -6t2 -7q0 -33 -174 -193.5t-260 -160.5 q-49 0 -76.5 43t-27.5 94q0 256 368.5 592t368.5 527q0 8 -5 15t-20 7q-82 0 -264 -190.5t-403 -419.5q10 -25 16 -53.5t6 -61.5q0 -80 -21.5 -131t-41.5 -84q-4 0 -8.5 6t-4.5 13q0 12 22.5 60t22.5 136q0 25 -3 47.5t-11 42.5q-219 -225 -453.5 -414.5t-420.5 -189.5 q-82 0 -157 61.5t-75 190.5zM158 135q0 -47 34.5 -91t120.5 -44q170 0 404.5 191.5t462.5 418.5q-41 72 -130 108t-208 36q-213 0 -448.5 -208t-235.5 -411z" />
<glyph unicode="B" horiz-adv-x="1544" d="M74 217q0 276 437 652t959 376q63 0 117.5 -13t95.5 -40q37 16 68 24.5t57 8.5q20 0 27.5 -8.5t5.5 -16.5q-23 0 -51.5 -10t-63.5 -33q39 -41 61.5 -103.5t22.5 -150.5q0 -160 -134 -313.5t-275 -177.5q20 -33 31.5 -80t11.5 -111q0 -178 -165 -351t-390 -173 q-129 0 -209 35t-131 86q-12 12 -17.5 21t-5.5 16q0 4 3 10t10 10q47 -51 111.5 -87t187.5 -36q172 0 355 166t183 367q0 43 -5 72.5t-19 50.5q-61 0 -98 7t-66 27q4 14 15 30.5t24 23.5q29 2 59.5 -5.5t56.5 -21.5q106 29 255 174t149 336q0 47 -13.5 87t-37.5 69 q-18 -14 -40 -34t-44 -42q-125 -125 -326 -404.5t-373 -449.5q-127 -127 -259 -205t-275 -78q-117 0 -211 66.5t-94 228.5zM104 217q0 -129 71 -181t159 -52q100 0 212.5 69.5t268.5 227.5q127 129 295 349t307 359q63 63 124 110.5t112 74.5q-35 23 -82 35t-105 12 q-516 0 -939 -377t-423 -627z" />
<glyph unicode="C" horiz-adv-x="1050" d="M268 -137q0 35 12.5 79t36.5 95q-20 33 -30.5 76t-10.5 90q0 164 122 339t294 320q-6 16 -9 33.5t-3 34.5q0 94 74.5 165.5t146.5 88.5q0 -8 -3 -13.5t-5 -7.5q-10 -10 -36 -24.5t-60 -48.5q-37 -37 -58.5 -80t-21.5 -84q0 -8 1 -19.5t3 -19.5q180 147 371.5 242.5 t314.5 95.5q57 0 91 -30t34 -83q0 -150 -176 -275.5t-365 -125.5q-78 0 -135 17t-96 46q-172 -145 -300 -309t-128 -301q0 -23 3 -43.5t7 -36.5q29 51 72 107.5t96 109.5q63 63 180 138t223 75q76 0 112 -39t36 -110q0 -141 -169 -292t-366 -151q-39 0 -74.5 10.5 t-62.5 26.5q-10 -35 -15 -61.5t-5 -36.5q0 -51 11 -87t26 -50q10 -10 21 -12t34 5q2 -2 1 -6t-5 -8q-13 -13 -54 -13h-5q-46 1 -81 34q-25 20 -37 57t-12 82zM401 -2q20 -14 46 -20.5t53 -6.5q178 0 347 142.5t169 267.5q0 37 -15.5 72.5t-72.5 35.5q-82 0 -171 -59 t-173 -143q-72 -72 -116 -149t-67 -140zM784 795q33 -25 84.5 -39.5t122.5 -14.5q158 0 333 124t175 247q0 31 -14.5 54.5t-46.5 23.5q-63 0 -259 -114.5t-395 -280.5z" />
<glyph unicode="D" horiz-adv-x="1671" d="M6 66q0 51 44 72.5t102 21.5q100 0 234 -37t273 -76q57 37 123 94.5t148 139.5q129 129 296 349t306 359q29 29 56.5 54.5t53.5 46.5q-59 51 -139 79.5t-174 28.5q-229 0 -481 -186.5t-252 -411.5q0 -53 48 -109.5t124 -56.5q43 0 87 9.5t89 31.5q4 -8 -4 -18.5 t-31 -22.5q-20 -8 -58 -17t-83 -9q-74 0 -147.5 61t-73.5 190q0 231 260 398.5t522 167.5q94 0 181 -31t155 -88q78 61 143.5 90t110.5 29q25 -1 31 -9q4 -5 4 -10q0 -3 -2 -6q-37 0 -91.5 -30.5t-136.5 -110.5l-4 -4l-4 -4q45 -55 70.5 -130t25.5 -165q0 -334 -249.5 -587 t-532.5 -253q-63 0 -147 18.5t-174 45.5q-68 -27 -148 -42.5t-174 -15.5q-170 0 -275.5 39t-105.5 105zM37 63q0 -47 84 -72.5t225 -25.5q76 0 137.5 11.5t116.5 37.5q-135 43 -257 81t-191 38q-51 0 -83 -18.5t-32 -51.5zM778 14q78 -20 154 -33.5t139 -13.5 q262 0 486.5 245t224.5 544q0 82 -22.5 150.5t-63.5 123.5q-129 -141 -319.5 -403t-352.5 -422q-57 -57 -117.5 -106.5t-128.5 -84.5z" />
<glyph unicode="E" horiz-adv-x="1032" d="M244 -137q0 35 12 79t37 95q-20 33 -30.5 76t-10.5 90q0 240 207 355.5t336 176.5q-78 29 -116 83t-38 112q0 94 75 165.5t146 88.5q0 -8 -3 -13.5t-5 -7.5q-10 -10 -35.5 -24.5t-60.5 -48.5q-37 -37 -58.5 -80t-21.5 -84q0 -53 37 -101.5t119 -68.5q14 6 24 13t16 13 q35 35 35 83q0 19 -5 39q-3 11 -3 23q0 67 92 158q59 59 176 99.5t199 40.5q57 0 91 -30t34 -83q0 -150 -176 -275.5t-365 -125.5q-20 0 -37.5 1t-33.5 3q-8 -8 -16.5 -17.5t-16.5 -17.5q-76 -76 -308.5 -194.5t-232.5 -321.5q0 -23 3 -43.5t7 -36.5q29 51 72 107.5 t96 109.5q63 63 180 138t224 75q76 0 111.5 -39t35.5 -110q0 -141 -169 -292t-365 -151q-39 0 -75 10.5t-62 26.5q-10 -35 -15.5 -61.5t-5.5 -36.5q0 -51 11.5 -87t25.5 -50q10 -10 21.5 -12t33.5 5q2 -2 1 -6t-5 -8q-13 -13 -53 -13h-6q-45 1 -80 34q-25 20 -37 57t-12 82z M377 -2q20 -14 46 -20.5t52 -6.5q178 0 347 142.5t169 267.5q0 37 -15 72.5t-77 35.5q-80 0 -168 -59t-172 -143q-72 -72 -116 -149t-66 -140zM901 743q12 -2 24.5 -2h26.5q158 0 333 124t175 247q0 31 -14 54.5t-45 23.5q-45 0 -170 -65.5t-184 -125.5q-98 -98 -99.5 -144 t-46.5 -112z" />
<glyph unicode="F" horiz-adv-x="1495" d="M72 184q0 115 98 213.5t221 98.5q53 0 85 -21.5t44 -54.5q70 41 180.5 76.5t237.5 35.5q57 0 106.5 -3t90.5 -9q98 123 201.5 252t191.5 217l39 39q-145 39 -305 86t-306 47q-174 0 -294.5 -115.5t-120.5 -238.5q0 -45 34.5 -108.5t124.5 -63.5q158 0 291 164t164 274 l5 5t5 3t4 -4t2 -8q0 -152 -134 -320.5t-285 -168.5q-131 0 -186.5 81.5t-55.5 145.5q0 139 136 265t339 126q117 0 295 -45t338 -82q94 80 176 117t152 37q63 0 103 -27t40 -72q0 -68 -70.5 -108.5t-171.5 -40.5q-41 0 -87 7t-95 17q-80 -92 -183.5 -229t-207.5 -272 q31 -4 60.5 -9.5t60.5 -7.5q8 8 15 17.5t15 17.5q51 51 97.5 72.5t76.5 21.5q33 0 50.5 -18.5t17.5 -38.5q0 -41 -47 -75t-147 -34h-23q-23 -33 -49.5 -66.5t-59.5 -66.5q-70 -70 -125 -98.5t-59 -28.5t-6 2t-2 5q0 4 11 13t26 23q43 43 90 105.5t90 116.5q-31 2 -60.5 6 t-58.5 8q-57 -74 -115.5 -141.5t-109.5 -118.5q-129 -127 -289 -205t-327 -78q-190 0 -262 99.5t-72 162.5zM104 190q0 -61 55.5 -133.5t205.5 -72.5q123 0 265 69.5t298 227.5q39 39 84 91t92 109q-35 4 -73 6t-79 2q-117 0 -233.5 -27.5t-192.5 -68.5q2 -4 2 -10v-12 q0 -27 -19.5 -63t-64.5 -56q-14 8 -23 24.5t-9 30.5q4 14 15 30.5t26 31.5q6 6 15 13t19 15q-2 37 -24.5 53.5t-67.5 16.5q-104 0 -197.5 -87t-93.5 -190zM1475 479h6q88 0 123.5 26.5t35.5 55.5q0 12 -9 20.5t-25 8.5q-18 0 -38 -14.5t-52 -47.5q-10 -10 -20.5 -22 t-20.5 -27zM1712 1053q41 -8 78 -12.5t65 -4.5q78 0 140.5 25.5t62.5 81.5q0 27 -31.5 42t-80.5 15q-39 0 -94.5 -30.5t-133.5 -110.5z" />
<glyph unicode="G" horiz-adv-x="1466" d="M-336 -432q0 131 108.5 252t286.5 121q123 0 197 -69t74 -171q0 -51 -21.5 -94t-48.5 -70q-33 -33 -60.5 -48t-43.5 -15q-8 0 -11.5 3t-3.5 7q0 8 15.5 17.5t29.5 23.5q27 27 47.5 67.5t20.5 88.5q0 94 -70.5 152t-171.5 58q-117 0 -214 -100t-97 -217q0 -109 76 -201 t256 -92q326 0 573.5 249t642.5 734l-2 8q-154 -158 -275.5 -254t-230.5 -96q-115 0 -172 79t-57 202q0 45 10 94t31 96q-70 6 -137.5 67.5t-67.5 184.5q0 225 260 396t514 171q45 0 82 -9t66 -23q0 -2 -5 -7.5t-12 -5.5q-10 0 -40.5 9.5t-90.5 9.5q-223 0 -476 -186.5 t-253 -403.5q0 -61 50.5 -118.5t121.5 -57.5q135 299 501 552t576 253q53 0 83 -23.5t30 -79.5q0 -174 -348 -435t-760 -292q-37 -59 -58.5 -118.5t-21.5 -112.5q0 -113 51.5 -152t114.5 -39q135 0 301 142.5t226 201.5q111 111 180 162t166 51q-6 -2 -18.5 -13t-33.5 -32 q-43 -43 -145 -171t-219 -275q-240 -303 -502 -559t-627 -256q-197 0 -297 105.5t-100 238.5zM666 424q393 37 725.5 284.5t332.5 413.5q0 29 -14 48.5t-37 19.5q-96 0 -459.5 -246t-547.5 -520z" />
<glyph unicode="H" horiz-adv-x="1855" d="M-33 94q0 150 229.5 288t807.5 247q80 98 159.5 194.5t149.5 165.5q33 33 64.5 60.5t60.5 52.5q-135 -74 -261 -159t-165 -85q-8 0 -15.5 4t-13.5 10q-12 12 -18.5 36t-6.5 40q0 84 127 167t125 122q-2 2 -8 5t-14 3q-68 0 -228.5 -123t-302.5 -295q-2 2 -4 5.5t-2 5.5 q0 8 12.5 25.5t26.5 33.5q117 139 266.5 254t229.5 115q25 0 47 -19.5t22 -56.5q0 -59 -122.5 -160.5t-120.5 -142.5q51 0 301 169t391 169q23 0 29 -8.5t4 -16.5q-39 0 -96.5 -29.5t-137.5 -111.5q-63 -63 -146 -171t-177 -229q8 0 15 1.5t15 3.5q84 14 163 28.5t153 30.5 q195 209 439.5 355.5t379.5 146.5q45 0 68.5 -20.5t23.5 -57.5q0 -111 -185.5 -218.5t-565.5 -199.5q-154 -141 -264.5 -295.5t-110.5 -288.5q0 -115 46 -144.5t73 -29.5q106 0 255.5 162t149.5 285q0 37 -9 54t-40 17q-51 0 -156.5 -101t-156.5 -228q-4 2 -8.5 5t-4.5 9 q0 63 114 201.5t212 138.5q37 0 65.5 -27.5t28.5 -85.5q0 -137 -149.5 -308t-284.5 -171q-74 0 -133.5 57.5t-59.5 198.5q0 125 68 256t172 252q-70 -14 -145.5 -27.5t-157.5 -27.5q-8 -2 -17.5 -3t-17.5 -3q-88 -117 -178 -228.5t-172 -191.5q-129 -127 -289 -205t-328 -78 q-123 0 -172 56.5t-49 115.5zM0 94q0 -27 22.5 -68.5t124.5 -41.5q123 0 265.5 69.5t298.5 227.5q57 57 125.5 140t140.5 171q-532 -104 -754.5 -238.5t-222.5 -259.5zM1735 772q330 88 499.5 188.5t169.5 186.5q0 14 -7 28.5t-21 14.5q-51 0 -247 -121t-394 -297z" />
<glyph unicode="I" horiz-adv-x="1153" d="M-10 197q0 111 92 207t231 96q98 0 158.5 -56.5t60.5 -140.5q0 -41 -17 -77t-38 -56q-27 -27 -49 -39t-37 -12q-6 0 -9 2t-3 6q0 6 13.5 14.5t23.5 18.5q23 23 39 55.5t16 71.5q0 76 -56.5 126t-135.5 50q-94 0 -175 -81t-81 -179q0 -70 55 -144.5t205 -74.5 q123 0 265 69.5t298 227.5q127 129 294 350t308 358q33 33 64.5 61.5t62.5 51.5q-135 -74 -262 -159t-168 -85q-8 0 -14.5 4t-14.5 10q-10 12 -16 36t-8 40q2 84 129 167t122 122q-2 2 -7 5t-15 3q-66 0 -227.5 -123t-302.5 -295q-2 2 -3.5 5.5t-3.5 5.5q2 8 14.5 25.5 t24.5 33.5q119 139 268.5 254t227.5 115q27 0 48.5 -19.5t21.5 -56.5q0 -59 -123 -160.5t-121 -142.5q51 0 302 169t390 169q25 -1 31 -9q4 -5 4 -10q0 -3 -2 -6q-37 0 -94.5 -29.5t-139.5 -111.5q-127 -123 -325.5 -403.5t-370.5 -450.5q-129 -127 -288.5 -205t-327.5 -78 q-190 0 -262 100.5t-72 174.5z" />
<glyph unicode="J" horiz-adv-x="1054" d="M-512 -604q0 307 418 668.5t809 361.5h27.5t25.5 -2q111 158 224.5 305.5t226.5 259.5q33 33 64.5 60.5t59.5 52.5q-135 -74 -261 -159t-164 -85q-8 0 -15.5 4t-13.5 10q-12 12 -18.5 36t-6.5 40q0 84 127 167t125 122q-2 2 -8 5t-14 3q-68 0 -228.5 -123t-302.5 -295 q-2 2 -4 5.5t-2 5.5q0 8 12.5 25.5t26.5 33.5q117 139 266.5 254t229.5 115q25 0 47 -20.5t22 -55.5q0 -59 -123 -160.5t-120 -142.5q51 0 300.5 169t391.5 169q23 0 29 -9q4 -5 4 -11q0 -2 -1 -5q-39 0 -95 -29.5t-138 -111.5q-119 -119 -250 -296t-262 -372q63 -33 93 -86 t30 -119q0 -45 -18.5 -84t-49.5 -69q-27 -27 -49 -39t-37 -12q-6 0 -9 2t-3 6q0 6 13.5 14t23.5 19q33 33 50 69.5t17 77.5q0 55 -22.5 100t-69.5 74q-178 -262 -352 -515t-328 -404q-88 -88 -217 -160t-264 -72q-100 0 -158.5 54.5t-58.5 148.5zM-479 -604q0 -61 33.5 -101 t105.5 -40q104 0 210.5 63.5t223.5 179.5q137 139 303 385t344 502q-14 2 -29.5 3t-31.5 1q-362 0 -760.5 -356.5t-398.5 -636.5z" />
<glyph unicode="K" horiz-adv-x="1591" d="M-12 195q2 113 94 207t229 96h7q95 0 153.5 -54.5t58.5 -137.5v-5v-8q0 -35 -15 -67q-17 -36 -40 -58q-27 -27 -49.5 -38t-36.5 -13q-4 2 -7 4t-5 4q2 8 15.5 16.5t21.5 16.5q25 26 41 58q14 29 14 61v8v5q-1 74 -55 123q-54 48 -132 48h-6h-4q-90 0 -168 -79 q-80 -81 -84 -181q2 -68 57.5 -143.5t203.5 -75.5q123 0 265 70.5t298 223.5q129 129 296 350.5t304 360.5q33 33 65.5 61.5t63.5 53.5q-135 -74 -262 -159q-124 -83 -164 -83h-2q-10 -2 -17.5 2t-11.5 12q-14 8 -20 32t-4 44q-2 82 126 164t125 125q-2 2 -8 5t-14 3 q-70 0 -230.5 -125t-299.5 -293q-4 0 -6.5 2.5t-0.5 8.5q-2 6 11.5 22.5t27.5 36.5q117 135 265.5 252t230.5 117q25 0 47.5 -20.5t22.5 -55.5q0 -63 -124 -163.5t-120 -139.5h1q51 0 299 167q251 169 392 171q20 -2 27.5 -10.5t5.5 -14.5q-39 -2 -97.5 -32.5t-136.5 -108.5 q-127 -127 -327.5 -406.5t-372.5 -451.5q-127 -125 -287 -203t-325 -78q-190 0 -262 100.5t-74 172.5zM1229 -63q0 162 115.5 326.5t115.5 234.5q0 8 -1 17t-3 15h-8q-35 0 -67.5 7.5t-63.5 27.5q6 14 17.5 30.5t23.5 22.5q25 2 48.5 -5t45.5 -25q37 4 89 46t151 134 q123 119 332.5 279.5t431.5 160.5q63 0 102 -9t68 -23q0 -2 -5.5 -7.5t-11.5 -5.5q-10 0 -34.5 9.5t-69.5 9.5q-190 0 -400.5 -172t-345.5 -301q-86 -82 -154.5 -122t-115.5 -50q4 -10 7 -24.5t3 -29.5q0 -84 -71.5 -241.5t-71.5 -337.5q0 -53 13 -94t34 -60 q14 -14 24.5 -19t26.5 -3q8 -2 18.5 0t18.5 6q2 -4 1 -9.5t-5 -7.5q-8 -8 -26.5 -13t-43.5 -5h-5q-77 1 -129 61q-54 62 -54 177z" />
<glyph unicode="L" horiz-adv-x="1501" d="M-70 66q0 51 48.5 75.5t107.5 24.5q86 0 215 -41t270 -86q63 37 130 96.5t153 145.5q29 29 61.5 65.5t65.5 75.5q-25 -2 -50.5 -4t-49.5 -2q-109 0 -189 56t-80 185q0 225 260.5 396.5t513.5 171.5q45 0 82 -9.5t66 -23.5q0 -2 -5 -7t-11 -5q-10 0 -41 9t-91 9 q-223 0 -476 -186.5t-253 -403.5q0 -61 56.5 -114.5t167.5 -53.5q31 0 61.5 2t61.5 7q111 133 230.5 285.5t221.5 254.5q123 123 227.5 179.5t190.5 56.5q39 0 65.5 -25.5t26.5 -77.5q0 -147 -240.5 -361t-556.5 -302q-57 -72 -113.5 -137.5t-107.5 -116.5 q-61 -61 -124.5 -111.5t-135.5 -87.5q76 -20 149.5 -33.5t137.5 -13.5q195 0 301 97.5t106 146.5q0 14 -5 23.5t-25 23.5l4 4t6 2q20 0 50 -36t30 -81q0 -90 -120 -171t-286 -81q-113 0 -221 25t-209 57q-63 -23 -136 -35t-159 -12q-170 0 -275.5 39t-105.5 105zM-39 63 q0 -47 84 -72.5t225 -25.5q70 0 127.5 10.5t108.5 30.5q-127 47 -236.5 87t-193.5 40q-51 0 -83 -18.5t-32 -51.5zM1196 494q295 94 517 294.5t222 333.5q0 31 -14 54.5t-47 23.5q-39 0 -94.5 -30.5t-132.5 -110.5q-82 -82 -203 -244t-248 -321z" />
<glyph unicode="M" horiz-adv-x="2035" d="M76 213q-2 225 252 396t497 171q45 0 81 -9t67 -23q-2 -2 -7 -7.5t-10 -5.5q-12 0 -42.5 9.5t-88.5 9.5q-215 0 -450.5 -209t-233.5 -410q-2 -47 34 -91t124 -44q338 0 856 612.5t653 612.5q35 0 48.5 -28t13.5 -58q0 -117 -365.5 -565.5t-365.5 -581.5q0 -20 3 -28.5 t9 -8.5q10 0 29.5 14.5t46.5 40.5q256 256 629.5 735.5t498.5 479.5q35 0 48.5 -28t13.5 -58q0 -106 -345.5 -541.5t-345.5 -562.5q0 -16 10.5 -24.5t18.5 -8.5q82 0 226.5 125t207.5 205q2 -2 3 -6t3 -7q-2 -33 -175 -193.5t-259 -160.5q-51 0 -77.5 40t-26.5 99 q0 223 358.5 611.5t358.5 460.5q0 10 -5.5 17t-13.5 7q-94 0 -463.5 -469t-638.5 -737q-33 -33 -56 -52.5t-44 -19.5q-33 0 -58.5 35t-25.5 104q0 240 379 636.5t379 478.5q0 10 -5 17t-14 7q-123 0 -622.5 -619.5t-876.5 -619.5q-83 -1 -159 61q-74 60 -74 184v7z" />
<glyph unicode="N" horiz-adv-x="1853" d="M76 174q-2 225 252 396t497 171q45 0 81 -9t67 -23q-2 -2 -7 -7.5t-10 -5.5q-12 0 -42.5 9.5t-88.5 9.5q-215 0 -450.5 -209t-233.5 -410q-2 -47 35 -91t135 -44q387 0 836.5 632t673.5 632q8 0 12 -4t4 -11q0 -6 -7 -13t-22 -17q-86 -70 -115.5 -191t-39.5 -231 q-20 -227 -72.5 -410.5t-144.5 -300.5q100 94 259.5 267t344.5 405q221 279 418.5 392.5t373.5 113.5q53 0 117 -19.5t100 -56.5q4 -4 6.5 -8t2.5 -8q0 -2 -2 -5.5t-4 -5.5q-55 37 -105.5 48.5t-114.5 11.5q-231 0 -447 -185.5t-376 -373.5q-391 -463 -533.5 -582 t-160.5 -119q-12 0 -17.5 4t-5.5 11q0 27 70 158.5t174 643.5q16 86 68.5 221.5t140.5 210.5q-213 -96 -618.5 -672.5t-804.5 -576.5q-94 0 -171 62q-75 60 -75 184v6z" />
<glyph unicode="O" horiz-adv-x="1449" d="M338 655q0 225 260 397q257 171 508 171h6h15q36 1 67 -7q37 -10 66 -26q0 -2 -5.5 -6t-11.5 -6q-10 2 -41 11q-25 7 -69 7h-21h-5q-221 0 -471 -184q-253 -186 -253 -406q0 -45 29.5 -94t91.5 -70q147 293 503.5 538t563.5 245q53 0 82.5 -23.5t29.5 -79.5v-10 q37 -20 52.5 -62t15.5 -87q0 -147 -105.5 -306t-277.5 -331q-178 -178 -376.5 -291t-315.5 -113t-176.5 76t-59.5 205q0 51 13.5 106.5t40.5 110.5q-70 20 -113 78.5t-43 156.5zM496 164q0 -113 51 -150t115 -37q104 0 324 128t441 350q117 117 205 256t88 252 q0 33 -10 66.5t-31 53.5q-27 -123 -184.5 -279.5t-380.5 -264.5v-2q0 -51 11.5 -87t25.5 -51q10 -10 21.5 -12t33.5 6q2 -2 1 -6t-5 -8q-14 -14 -59 -13t-80 33q-18 14 -29.5 40t-15.5 57q-104 -41 -214 -65.5t-220 -24.5h-2q-39 -63 -62.5 -124t-23.5 -118zM598 430 q104 2 209.5 26.5t206.5 65.5v17q0 88 53 180t158 196q63 63 178 138t215 75q8 0 17.5 -1t17.5 -3q0 35 -15.5 50.5t-35.5 15.5q-96 0 -457 -244t-547 -516zM1116 569q217 111 368.5 263.5t166.5 267.5q-4 2 -10.5 3t-12.5 1q-70 0 -158 -59.5t-172 -143.5 q-94 -94 -134 -186t-48 -146z" />
<glyph unicode="P" horiz-adv-x="1490" d="M74 217q0 276 437 652t964 376q63 0 117.5 -13t97.5 -42q35 18 66.5 26.5t55.5 8.5q25 -1 31 -9q4 -5 4 -10q0 -3 -2 -6q-20 0 -49 -10t-65 -33q39 -41 61.5 -103.5t22.5 -150.5q0 -172 -153 -333.5t-304 -161.5q-45 0 -78 13t-53 34q-4 4 -7 10t-3 10q0 2 2 7t6 7 q10 -8 29.5 -17t52.5 -9q94 0 269 153.5t175 362.5q0 49 -13.5 88t-37.5 70q-20 -14 -42 -34t-46 -44q-127 -123 -327 -403.5t-372 -450.5q-127 -127 -259 -205t-275 -78q-117 0 -211 66.5t-94 228.5zM109 217q0 -129 70.5 -181t158.5 -52q100 0 213 69.5t268 227.5 q127 129 294 350t308 358q63 63 124 110.5t112 74.5q-35 23 -82 35t-105 12q-516 0 -938.5 -377t-422.5 -627z" />
<glyph unicode="Q" horiz-adv-x="1542" d="M8 86q0 53 50.5 86t119.5 33q59 0 194.5 -53.5t282.5 -106.5q317 141 614.5 442t297.5 521q0 111 -50.5 146.5t-158.5 35.5q-123 0 -314.5 -91t-379.5 -282q-96 -98 -157 -218t-61 -206q0 -70 30 -106.5t81 -36.5q176 0 325.5 183t184.5 308q2 2 5 5.5t5 3.5q4 0 6 -4.5 t2 -8.5q0 -170 -150.5 -359.5t-320.5 -189.5q-115 0 -158.5 64.5t-43.5 140.5q0 109 67.5 242t196.5 262q168 168 350 248t340 80q131 0 196.5 -66.5t65.5 -195.5q0 -287 -278.5 -554.5t-593.5 -396.5q70 -23 132 -37t109 -14q225 0 337 97.5t112 146.5q0 14 -5 23.5 t-26 23.5l4 4t6 2q20 0 50 -36t30 -81q0 -90 -125 -171t-321 -81q-94 0 -191.5 27t-191.5 66q-84 -29 -165 -44.5t-151 -15.5q-193 0 -272.5 48t-79.5 116zM39 84q0 -45 63.5 -82t233.5 -37q57 0 120.5 13.5t131.5 39.5q-129 55 -240.5 103.5t-189.5 48.5q-51 0 -85 -26.5 t-34 -59.5z" />
<glyph unicode="R" horiz-adv-x="1519" d="M74 217q0 276 437 652t964 376q63 0 118.5 -13t98.5 -40q35 16 65.5 24.5t54.5 8.5q25 -1 31 -9q4 -5 4 -10q0 -3 -2 -6q-20 0 -49 -9t-63 -32q39 -39 60.5 -95t21.5 -132q0 -174 -132.5 -304t-246.5 -130q2 -8 4 -21.5t2 -27.5q0 -80 -72 -237t-72 -339q0 -51 13.5 -92 t34.5 -62q14 -14 24 -18t27 -4q8 0 18 2t19 4q2 -2 1 -7t-5 -9q-8 -8 -27 -13.5t-43 -5.5q-80 0 -134.5 62.5t-54.5 175.5q0 164 117 333t117 226q0 8 -1 17.5t-3 15.5q-49 2 -81 10t-56 24q4 14 15 31t24 23q27 2 53 -6.5t43 -24.5q76 14 214 139t138 314q0 39 -12.5 71.5 t-34.5 59.5q-20 -14 -44 -35t-48 -45q-127 -123 -327 -403.5t-372 -450.5q-127 -127 -259 -205t-275 -78q-117 0 -211 66.5t-94 228.5zM109 217q0 -129 70.5 -181t158.5 -52q100 0 213 69.5t268 227.5q127 129 294 350t308 358q66 66 126.5 112t111.5 75q-35 20 -83 32.5 t-106 12.5q-516 0 -938.5 -377t-422.5 -627z" />
<glyph unicode="S" horiz-adv-x="1359" d="M0 197q0 111 92 207t232 96q98 0 158.5 -56.5t60.5 -140.5q0 -41 -17.5 -77t-38.5 -56q-27 -27 -49 -39t-37 -12q-6 0 -9 2t-3 6q0 6 13.5 14.5t23.5 18.5q23 23 39 55.5t16 71.5q0 76 -56 126t-136 50q-94 0 -175 -81t-81 -179q0 -70 55 -144.5t205 -74.5 q123 0 265 69.5t298 227.5q29 29 60.5 65.5t64.5 75.5q-25 -2 -49.5 -4t-48.5 -2q-109 0 -189 56t-80 185q0 225 260.5 396.5t514.5 171.5q45 0 81.5 -9.5t65.5 -23.5q0 -2 -5 -7t-11 -5q-10 0 -41 9t-90 9q-223 0 -476.5 -186.5t-253.5 -403.5q0 -61 56.5 -114.5 t167.5 -53.5q31 0 61.5 2t61.5 7q111 133 230.5 285.5t221.5 254.5q123 123 227.5 179.5t190.5 56.5q39 0 65.5 -25.5t26.5 -77.5q0 -145 -240.5 -359t-556.5 -304q-57 -72 -113.5 -137.5t-107.5 -116.5q-129 -127 -288.5 -205t-327.5 -78q-190 0 -262 100.5t-72 174.5z M1200 496q291 94 514 293.5t223 332.5q0 31 -14 54.5t-47 23.5q-39 0 -94.5 -30.5t-132.5 -110.5q-82 -82 -203 -243t-246 -320z" />
<glyph unicode="T" horiz-adv-x="1292" d="M59 197q0 111 92.5 207t231.5 96q98 0 158.5 -56.5t60.5 -140.5q0 -41 -17.5 -77t-37.5 -56q-27 -27 -49.5 -39t-36.5 -12q-6 0 -9 2t-3 6q0 6 13 14.5t23 18.5q23 23 39.5 55.5t16.5 71.5q0 76 -56.5 126t-136.5 50q-94 0 -175 -81t-81 -179q0 -70 55.5 -144.5 t204.5 -74.5q123 0 265.5 69.5t297.5 227.5q127 129 294 349t307 359q8 8 19 19.5t19 19.5q-145 39 -304.5 86t-305.5 47q-174 0 -291.5 -115.5t-117.5 -238.5q0 -45 31.5 -108.5t121.5 -63.5q158 0 291 164t164 274l5 5t5 3t4 -4t2 -8q0 -152 -134 -320.5t-286 -168.5 q-131 0 -183 81.5t-52 145.5q0 139 133 265t336 126q117 0 295 -45t338 -82q94 80 176 117t151 37q51 0 87 -27t36 -72q0 -68 -55 -108.5t-166 -40.5q-41 0 -87 7t-95 17q-129 -147 -309.5 -395t-333.5 -401q-129 -127 -289 -205t-328 -78q-190 0 -262 100.5t-72 174.5z M1700 1053q41 -8 78 -12.5t65 -4.5q78 0 130 24.5t52 76.5q0 27 -28.5 45t-63.5 18q-39 0 -94 -30.5t-133 -110.5l-1 -1z" />
<glyph unicode="U" horiz-adv-x="1421" d="M266 672q0 176 228.5 364.5t480.5 188.5q143 0 193.5 -47.5t50.5 -122.5q0 -164 -362.5 -517.5t-362.5 -525.5q0 -20 10 -30.5t28 -10.5q82 0 239 107.5t368 318.5q18 18 37.5 39t40.5 41q63 82 149 175t193 200q143 143 257.5 241.5t125.5 98.5q6 0 7 -2t1 -8 q0 -16 -408.5 -459.5t-408.5 -663.5q0 -29 10 -41t18 -12q82 0 226.5 125t207.5 205q2 -2 3 -6t4 -6q-2 -33 -175.5 -194t-259.5 -161q-53 0 -82.5 45t-29.5 115q0 51 20.5 109.5t59.5 121.5q-16 -18 -34 -35.5t-32 -31.5q-166 -166 -298 -268.5t-232 -102.5q-53 0 -83 47 t-30 113q0 240 372.5 551t372.5 467q0 45 -45 72.5t-151 27.5q-244 0 -461 -183t-217 -345q0 -55 24.5 -87t77.5 -32q158 0 291 164t164 274l5 5t5 3t4 -4t2 -8q0 -152 -134 -320.5t-285 -168.5q-88 0 -136.5 50t-48.5 124z" />
<glyph unicode="V" horiz-adv-x="1015" d="M217 838q0 8 12.5 25.5t26.5 33.5q117 139 266.5 254t229.5 115q25 0 46 -19.5t23 -56.5q-2 -59 -124 -160.5t-119 -142.5q51 0 268 169t301 169q10 0 15 -4t7 -13q-10 -8 -23 -18t-32 -29q-47 -47 -111.5 -150.5t-117.5 -234.5q-119 -299 -232.5 -480t-214.5 -271 q160 100 334 249.5t418 393.5q313 313 525 435t388 122q53 0 117 -19.5t100 -56.5q4 -4 6.5 -8t2.5 -8q0 -2 -2.5 -5.5t-4.5 -5.5q-55 37 -105 48.5t-114 11.5q-260 0 -542.5 -234.5t-372.5 -324.5q-459 -459 -668 -580t-227 -121q-10 0 -14.5 4t-4.5 11q0 27 92.5 159.5 t436.5 714.5q63 109 136 211t140 156q-104 -45 -276 -182.5t-225 -137.5q-8 0 -15.5 4t-13.5 10q-12 12 -18.5 36t-6.5 40q0 84 127 167t125 122q-2 0 -8 4t-14 4q-68 0 -228.5 -123t-302.5 -295q-2 2 -4 5.5t-2 5.5z" />
<glyph unicode="W" horiz-adv-x="1558" d="M217 838q0 8 12.5 25.5t26.5 33.5q117 139 266.5 254t229.5 115q25 0 46 -19.5t23 -56.5q-2 -59 -124 -160.5t-119 -142.5q51 0 268 169t301 169q10 0 15 -4t7 -13q-10 -8 -23 -18t-32 -29q-47 -47 -111.5 -150.5t-117.5 -234.5q-119 -299 -232.5 -481t-216.5 -270 q135 82 330 217t391 301q35 57 75 124.5t85 143.5q70 117 147.5 224.5t147.5 156.5q18 14 36.5 23.5t39.5 9.5q23 0 41 -13.5t18 -46.5q0 -66 -78 -161t-166 -183q-33 -33 -69.5 -67.5t-71.5 -67.5q-111 -258 -213 -419t-197 -242q160 100 334 249.5t418 393.5 q313 313 525 435t388 122q53 0 117 -19.5t100 -56.5q4 -4 6.5 -8t2.5 -8q0 -2 -2 -5.5t-5 -5.5q-55 37 -105 48.5t-114 11.5q-260 0 -542.5 -234.5t-372.5 -324.5q-459 -459 -668 -580t-227 -121q-10 0 -14.5 4t-4.5 11q0 20 58.5 105t265.5 427q-283 -233 -525.5 -390 t-293.5 -157q-10 0 -14.5 4t-4.5 11q0 27 92.5 159.5t436.5 714.5q63 109 136 211t140 156q-104 -45 -276 -182.5t-225 -137.5q-8 0 -15.5 4t-13.5 10q-12 12 -18.5 36t-6.5 40q0 84 127 167t125 122q-2 0 -8 4t-14 4q-68 0 -228.5 -123t-302.5 -295q-2 2 -4 5.5t-2 5.5z M1389 752q143 135 236 245.5t93 167.5q0 18 -8 26.5t-22 8.5q-8 0 -19.5 -6t-19.5 -14q-45 -33 -118 -144.5t-132 -259.5l-1 -3t-9 -21z" />
<glyph unicode="X" horiz-adv-x="1630" d="M18 41q0 145 257 291.5t755 275.5q86 111 139.5 215.5t53.5 184.5q0 117 -68 152.5t-125 35.5q-154 0 -298 -148.5t-144 -265.5q0 -47 19.5 -74.5t64.5 -27.5q133 0 244.5 137t138.5 232q2 2 4 5t4 3t4 -4t2 -9q0 -127 -113.5 -269t-240.5 -142q-76 0 -116 43t-40 106 q0 141 159 292t320 151q123 0 186.5 -70t63.5 -192q0 -25 -3 -50.5t-9 -52.5q184 158 387 261.5t332 103.5q57 0 91 -29t34 -74q0 -137 -258 -263t-691 -243q-111 -115 -181 -233.5t-70 -218.5q0 -23 3 -43.5t7 -36.5q29 51 71.5 107.5t96.5 109.5q63 63 180 138t223 75 q76 0 112 -39t36 -110q0 -141 -169 -292t-366 -151q-39 0 -74.5 10.5t-62.5 26.5q-10 -35 -15.5 -61.5t-5.5 -36.5q0 -51 11.5 -87t25.5 -50q10 -10 21.5 -12t34.5 5q2 -2 1 -6t-6 -8q-13 -13 -53 -13h-6q-45 1 -80 34q-25 20 -37 57t-12 82q0 35 12.5 79t36.5 95 q-20 33 -30.5 76t-10.5 90q0 23 3 46t7 46q-184 -160 -382.5 -266.5t-327.5 -106.5q-51 0 -98.5 29t-47.5 90zM51 41q0 -39 29 -57.5t59 -18.5q160 0 418 191.5t444 416.5q-455 -121 -702.5 -267t-247.5 -265zM989 -2q20 -14 46 -20.5t52 -6.5q178 0 347.5 142.5 t169.5 267.5q0 37 -15.5 72.5t-72.5 35.5q-82 0 -171.5 -59t-173.5 -143q-72 -72 -115.5 -149t-66.5 -140zM1208 655q385 104 632 230.5t247 236.5q0 23 -14.5 45.5t-47.5 22.5q-96 0 -351 -161t-466 -374z" />
<glyph unicode="Y" horiz-adv-x="1318" d="M-473 -432q0 131 108.5 252t286.5 121q123 0 197 -69t74 -171q0 -51 -21.5 -94t-48.5 -70q-33 -33 -60.5 -48t-44.5 -15q-8 0 -11 3t-3 7q0 8 15.5 17.5t29.5 23.5q27 27 47.5 67.5t20.5 88.5q0 94 -71 152t-171 58q-117 0 -214 -100t-97 -217q0 -109 75.5 -201 t256.5 -92q287 0 538.5 249t646.5 734q10 14 21.5 26.5t21.5 26.5l-24 -24q-166 -166 -309.5 -268.5t-241.5 -102.5q-59 0 -91 47t-32 113q0 240 372.5 551t372.5 467q0 45 -45 72.5t-151 27.5q-244 0 -461 -183t-217 -345q0 -55 24.5 -87t77.5 -32q158 0 291 164t164 274 l5 5t5 3t4 -4t2 -8q0 -152 -134 -320.5t-285 -168.5q-88 0 -136.5 50t-48.5 124q0 176 228.5 364.5t480.5 188.5q141 0 192.5 -47.5t51.5 -122.5q0 -164 -362.5 -517.5t-362.5 -525.5q0 -20 12 -30.5t37 -10.5q82 0 250 107.5t378 318.5q29 29 61 62t64 65q55 61 130 141 t182 187q143 143 257.5 241.5t125.5 98.5q6 0 7 -2t1 -8q0 -14 -218 -237.5t-759 -905.5q-240 -303 -506 -559t-592 -256q-197 0 -297 105.5t-100 238.5z" />
<glyph unicode="Z" horiz-adv-x="1695" d="M66 86q0 53 52 86t126 33q90 0 228 -45t280 -97q51 37 110.5 90.5t132.5 127.5q127 129 294 349t306 359l39 39q-145 39 -305 86t-305 47q-174 0 -290 -115.5t-116 -238.5q0 -45 30 -108.5t120 -63.5q158 0 291 164t164 274l5 5t5 3t4 -4t2 -8q0 -152 -134 -320.5 t-286 -168.5q-131 0 -181 81.5t-50 145.5q0 139 131 265t334 126q117 0 295 -45t338 -82q94 80 176 117t151 37q51 0 87 -27t36 -72q0 -68 -55.5 -108.5t-165.5 -40.5q-41 0 -87 7t-95 17q-129 -147 -309.5 -395t-333.5 -401q-53 -53 -108.5 -99.5t-117.5 -80.5 q82 -27 157 -45.5t130 -18.5q225 0 336.5 97.5t111.5 146.5q0 14 -5 23.5t-25 23.5l4 4t6 2q20 0 50 -36t30 -81q0 -90 -125 -171t-322 -81q-100 0 -204.5 31t-208.5 72q-72 -33 -157 -51.5t-189 -18.5q-178 0 -282.5 47t-104.5 117zM96 84q0 -51 84 -85t232 -34 q88 0 155.5 15.5t130.5 50.5q-127 51 -249.5 95t-231.5 44q-51 0 -86 -26.5t-35 -59.5zM1780 1053q41 -8 77.5 -12.5t65.5 -4.5q78 0 129 24.5t51 76.5q0 31 -25.5 47t-64.5 16t-94 -30.5t-133 -110.5z" />
<glyph unicode="[" horiz-adv-x="475" d="M-103.5 -261.5q-5.5 21.5 11.5 46.5l909 1372q33 47 56.5 57.5t41.5 10.5h215q27 0 42.5 -2t15.5 -17q-51 -6 -114.5 -7t-121.5 1l-975 -1456l179 -4q27 0 41 -6t14 -17h-264q-45 0 -50.5 21.5z" />
<glyph unicode="\" horiz-adv-x="499" d="M260 1212q20 -2 32.5 -28.5t18.5 -149.5q20 -436 43 -825l23 -389q-14 2 -26.5 26.5t-18.5 145.5q-23 453 -48 836z" />
<glyph unicode="]" horiz-adv-x="454" d="M-356 -264q51 6 114.5 7t120.5 -1l975 1456l-178 4q-27 0 -41 6t-14 17h264q45 0 50 -21.5t-11 -46.5l-910 -1372q-33 -47 -56.5 -57.5t-41.5 -10.5h-215q-27 0 -42 2t-15 17z" />
<glyph unicode="^" horiz-adv-x="700" d="M322 614q0 10 155.5 97.5t302.5 238.5q27 -12 36 -36.5t9 -39.5q0 -29 -8 -53t-8 -69q0 -74 4 -101.5t4 -42.5q0 -2 -2 -5t-4 -3q-14 0 -43 51t-29 156v12q-66 -51 -181.5 -112.5t-229.5 -106.5q-2 2 -4 7t-2 7z" />
<glyph unicode="_" horiz-adv-x="653" d="M-53 -119h661q20 0 24.5 -21.5t4.5 -29.5h-647q-27 0 -35 16.5t-8 34.5z" />
<glyph unicode="`" horiz-adv-x="657" d="M406 821q0 45 17 90t50 84q31 -12 40 -33.5t9 -35.5q0 -45 -23.5 -65.5t-23.5 -80.5q0 -49 18.5 -77.5t32.5 -43.5q8 -8 13.5 -11t5.5 -7q0 -2 -2 -4t-4 -2q-14 0 -38 11t-40 28q-25 25 -40 60.5t-15 86.5z" />
<glyph unicode="a" horiz-adv-x="657" d="M35 123q0 113 165 279.5t294 168.5q53 -20 70.5 -41.5t17.5 -42.5v-13t-2 -15q20 27 32.5 49t14.5 35q35 -14 41 -36t6 -42q0 -49 -129 -202.5t-127 -229.5q74 0 203 112.5t186 184.5q2 -2 4 -5t2 -6q0 -31 -156.5 -175t-234.5 -144q-10 0 -22.5 5t-22.5 15 q-14 14 -20.5 34t-6.5 44q0 14 5 30.5t14 35.5q-70 -63 -143.5 -113.5t-106.5 -50.5q-39 0 -61.5 30.5t-22.5 92.5zM94 49q2 -8 9.5 -11t15.5 -3q29 0 104.5 51t143.5 119q23 23 50 55.5t56 67.5t53.5 78t24.5 81q0 14 -2 20.5t-6 14.5q-94 -10 -267.5 -188t-181.5 -285z " />
<glyph unicode="b" horiz-adv-x="520" d="M37 100q0 45 34.5 112t123.5 189q135 184 338.5 463t203.5 338q33 -12 46.5 -35.5t13.5 -42.5q0 -74 -211 -350t-314 -424q-102 -147 -132.5 -212.5t-35.5 -90.5q2 -4 8.5 -7t16.5 -3q31 0 105.5 44t175.5 144q33 33 81 96.5t48 116.5q0 20 -10.5 33.5t-24.5 13.5 q-12 0 -25.5 -9t-27.5 -30l-15 7q29 55 61.5 85.5t57.5 30.5q33 0 49.5 -24.5t16.5 -63.5q0 -55 -67 -136t-122 -136q-92 -94 -177 -151.5t-136 -57.5q-14 0 -28.5 5t-24.5 15q-14 14 -21.5 35t-7.5 45z" />
<glyph unicode="c" horiz-adv-x="444" d="M35 121q0 127 150.5 290.5t285.5 163.5q39 -14 58.5 -31.5t19.5 -56.5q0 -23 -16.5 -60.5t-51.5 -57.5q-14 12 -21 24.5t-7 22.5q4 25 25.5 48t35.5 32l2 4q0 10 -1 18t-3 10q-88 -10 -247 -188t-167 -293q2 -4 11.5 -8t25.5 -4q63 0 178 63.5t197 145.5q25 25 44 46 t34 40q2 -2 4 -5t2 -6q0 -10 -25.5 -41.5t-66.5 -72.5q-82 -82 -194.5 -143.5t-168.5 -61.5q-51 0 -77.5 26.5t-26.5 94.5z" />
<glyph unicode="d" horiz-adv-x="673" d="M27 113q0 117 172 286.5t297 171.5q51 -20 69.5 -41.5t18.5 -40.5v-9t-2 -9q135 176 302 397.5t167 274.5q33 -12 46 -36t13 -42q0 -70 -209 -333t-301 -392q-106 -146 -141 -208q-30 -52 -30 -88q0 -6 1 -11q74 0 203 112.5t186 184.5q2 -2 4 -5t2 -6q0 -31 -156.5 -175 t-234.5 -144q-14 0 -26.5 5t-22.5 15q-14 14 -21.5 33t-7.5 37q0 23 7.5 47.5t21.5 52.5l-8 -8q-70 -70 -151 -126t-113 -56q-39 0 -62.5 30.5t-23.5 82.5zM84 49q2 -8 9 -11t16 -3q29 0 104.5 51t142.5 119q33 33 64 63.5t59 65.5l4 6q6 8 12.5 16.5t12.5 16.5 q20 27 32.5 57.5t12.5 58.5q0 12 -2 18.5t-6 14.5q-76 -12 -263.5 -190t-197.5 -283z" />
<glyph unicode="e" horiz-adv-x="454" d="M37 121q0 127 151.5 289.5t280.5 164.5q43 -14 62.5 -30.5t19.5 -48.5q0 -27 -22.5 -56.5t-49.5 -56.5q-49 -49 -118.5 -83t-120.5 -34h-18.5t-14.5 2q-45 -59 -76 -117.5t-33 -103.5q2 -4 11.5 -8t27.5 -4q70 0 184.5 61.5t202.5 149.5q25 25 44.5 46t33.5 40q2 -2 4 -5 t2 -5q0 -10 -25.5 -42t-66.5 -73q-86 -86 -200.5 -146.5t-174.5 -60.5q-51 0 -77.5 26.5t-26.5 94.5zM225 291h17q39 0 103.5 31.5t107.5 74.5q31 31 49 57.5t18 41.5q0 14 -2 21t-4 9q-51 -4 -135 -74.5t-154 -160.5z" />
<glyph unicode="f" horiz-adv-x="311" d="M-377 -494q0 39 95.5 190.5t213.5 326.5q82 119 173.5 249.5t181.5 253.5h-25q-27 0 -35 9.5t-8 29.5h94q139 195 259 350.5t178 212.5q66 66 101.5 81.5t68.5 15.5q45 0 64.5 -25.5t19.5 -60.5q0 -82 -36 -140.5t-91 -91.5q-14 10 -23.5 27.5t-9.5 32.5q4 18 15 35.5 t26 31.5q14 14 28.5 22.5t24.5 8.5h3t1 -2q12 12 21.5 31.5t9.5 46.5q0 31 -12.5 44t-32.5 13q-25 0 -49.5 -18.5t-44.5 -38.5q-41 -41 -158 -207t-258 -371h112q20 0 24.5 -10t4.5 -21q-41 -2 -83 -3t-83 -1q-119 -174 -237.5 -347t-202.5 -294q-76 -109 -170 -266.5 t-115 -208.5q-27 6 -36 38t-9 56z" />
<glyph unicode="g" horiz-adv-x="614" d="M-473 -489q0 45 15.5 76.5t49.5 66.5q14 14 41 28.5t41 14.5t24.5 -4t10.5 -12t-7 -17.5t-11 -13.5q-25 -25 -61 -85.5t-36 -90.5q8 -43 26 -57.5t52 -14.5q104 0 287.5 205t308.5 389q45 68 84 125t72 102l-43 -43q-78 -78 -148.5 -129t-107.5 -51q-41 0 -66.5 35 t-25.5 92q0 113 170 278.5t299 167.5q53 -20 70.5 -41.5t17.5 -37.5v-13.5t-2 -13.5q20 31 29.5 48t15.5 30q39 -14 45 -36t6 -42q0 -29 -68.5 -126t-334.5 -480q-94 -135 -266.5 -316.5t-321.5 -181.5q-82 0 -124 51t-42 97zM92 49q2 -6 10.5 -10t18.5 -4q29 0 97.5 45 t141.5 119q31 31 63 63.5t60 67.5q29 35 52.5 79t23.5 85q0 8 -2 15t-6 15q-86 -10 -268.5 -189t-190.5 -286z" />
<glyph unicode="h" d="M-31 72q0 25 139.5 219t497.5 649q109 135 145.5 202.5t36.5 82.5q33 -12 46.5 -36t13.5 -42q0 -27 -39 -90.5t-61 -91.5q-156 -197 -309.5 -392.5t-225.5 -306.5l2 -8q12 14 24.5 26.5l24.5 24.5q113 117 207 184.5t145 67.5q27 0 50.5 -21.5t23.5 -60.5 q0 -98 -137 -242.5t-135 -203.5q74 0 203 112.5t186 184.5q2 -2 4 -5t2 -6q0 -31 -156.5 -175t-234.5 -144q-10 0 -22.5 5t-22.5 15q-16 16 -23.5 38t-7.5 44q0 96 154 238q142 131 142 183q0 5 -1 9l-8 2q-8 3 -15 3q-37 0 -124.5 -61.5t-214.5 -192.5q-53 -57 -119 -131 t-127 -154q-20 0 -42 23.5t-22 50.5z" />
<glyph unicode="i" horiz-adv-x="337" d="M18 104q0 88 85 187.5t198 263.5q35 -14 41 -35.5t6 -42.5q0 -57 -124 -203.5t-132 -240.5q74 0 203 112.5t186 184.5q2 -2 4 -5t2 -6q0 -31 -156.5 -175t-234.5 -144q-12 0 -22.5 5t-20.5 15q-8 8 -21.5 34t-13.5 50zM436 727q0 27 23.5 53.5t48.5 26.5q18 0 29.5 -11.5 t11.5 -31.5q0 -27 -23.5 -53.5t-50.5 -26.5q-18 0 -28.5 11.5t-10.5 31.5z" />
<glyph unicode="j" horiz-adv-x="270" d="M-762 -535q0 8 9.5 27t35.5 21q8 -51 24.5 -82t59.5 -31q94 0 261 205t292 391q219 326 287.5 425t85.5 134q35 -14 41 -35.5t6 -42.5q0 -29 -70.5 -131t-337.5 -485q-94 -135 -256.5 -316.5t-287.5 -181.5q-57 0 -84 13.5t-45 31.5q-10 10 -15.5 25.5t-5.5 31.5z M418 727q0 27 23.5 53.5t47.5 26.5q20 0 30.5 -11.5t10.5 -31.5q0 -27 -23.5 -53.5t-49.5 -26.5q-20 0 -29.5 11.5t-9.5 31.5z" />
<glyph unicode="k" horiz-adv-x="634" d="M-31 72q0 25 139.5 219t497.5 649q109 135 145.5 202.5t36.5 82.5q33 -12 46.5 -36t13.5 -42q0 -27 -39 -90.5t-61 -91.5q-156 -197 -302.5 -383.5t-207.5 -278.5l2 -8q12 14 24 26.5t25 24.5q98 98 198.5 163.5t171.5 65.5q31 0 46.5 -19t15.5 -62q0 -74 -79 -133.5 t-161 -79.5q8 -12 13.5 -27.5t5.5 -30.5q0 -39 -55.5 -91t-55.5 -99q74 0 203 112.5t186 184.5q2 -2 4 -5t2 -6q0 -31 -156.5 -175t-234.5 -144q-10 0 -21.5 5t-19.5 13q-14 14 -20 34t-6 40q0 61 60 108.5t73 73.5q-14 -2 -27.5 -4t-25.5 -2t-26.5 4t-29.5 13q2 8 8.5 17 t14.5 13q18 2 34.5 0t28.5 -6q68 29 150 107t86 129q-2 2 -7.5 3t-9.5 1q-57 0 -153 -62.5t-199 -164.5q-70 -70 -124 -135.5t-146 -188.5q-20 0 -42 23.5t-22 50.5z" />
<glyph unicode="l" horiz-adv-x="354" d="M27 102q0 51 44 122t128 177q229 293 396 528.5t167 295.5q33 -12 46 -36t13 -42q0 -86 -159.5 -293t-387.5 -516q-96 -129 -137 -204t-39 -101q82 0 212 112.5t188 184.5q2 -2 4 -5t2 -6q0 -31 -158 -175t-244 -144q-10 0 -22 5t-23 15q-16 16 -23 38t-7 44z" />
<glyph unicode="m" horiz-adv-x="980" d="M-16 80q0 43 136 218t163 255q33 -14 39 -35.5t6 -42.5q0 -29 -31 -86t-82 -123l2 -8q27 33 58.5 64.5l64.5 64.5q88 90 152.5 137t105.5 47q29 0 51.5 -18t22.5 -64q0 -45 -31 -98t-82 -121l4 -2q14 16 32.5 32.5t35.5 33.5q98 100 173 155.5t126 55.5q27 0 50.5 -20.5 t23.5 -59.5q0 -88 -135.5 -229.5t-133.5 -202.5q74 0 203 112.5t186 184.5q2 -2 4 -5t2 -6q0 -31 -156.5 -175t-234.5 -144q-10 0 -22 5t-23 15q-16 16 -23 38t-7 44q0 94 156 234q137 124 136 169q0 6 -2 11l-7 2t-15 2q-39 0 -116 -56t-171 -151q-72 -72 -140.5 -149.5 t-131.5 -165.5q-27 0 -42.5 24.5t-15.5 51.5q0 43 143.5 219t164.5 250l-7 2q-8 2 -16 2q-33 0 -97.5 -49t-146.5 -131q-76 -76 -157.5 -172.5t-157.5 -196.5q-27 0 -42 24.5t-15 57.5z" />
<glyph unicode="n" horiz-adv-x="657" d="M-16 80q0 47 135 216t164 257q35 -14 42 -35.5t7 -42.5q0 -29 -34 -86t-81 -123l2 -8q16 18 34.5 37.5t39.5 40.5q104 111 186 173t135 62q27 0 50.5 -21.5t23.5 -60.5q0 -102 -138 -250.5t-136 -205.5q74 0 202.5 112.5t186.5 184.5q2 -2 4 -5t2 -6q0 -31 -156.5 -175 t-234.5 -144q-10 0 -22.5 5t-22.5 15q-16 16 -23.5 38t-7.5 44q0 96 161 247q139 131 139 180q0 8 -3 14l-8 2t-15 2q-39 0 -121.5 -63.5t-187.5 -172.5q-70 -72 -138.5 -153.5t-129.5 -159.5q-27 0 -41 24.5t-14 57.5z" />
<glyph unicode="o" horiz-adv-x="450" d="M33 119q0 121 141 287.5t270 168.5q55 -20 74 -42.5t19 -43.5q0 -68 -57.5 -164t-133.5 -171q-66 -66 -130 -110t-103 -44q-33 0 -56.5 33t-23.5 86zM94 49q2 -6 7 -9t14 -3q39 0 94 40t115 99q70 70 126 163t56 150q0 14 -3 22.5t-9 14.5q-88 -10 -240 -193t-160 -284z " />
<glyph unicode="p" horiz-adv-x="636" d="M-424 -526q0 35 92 179t228 337q201 285 288.5 401.5t83.5 161.5q35 -14 41 -39t6 -39q0 -33 -20.5 -77t-81.5 -126v-14q27 31 53.5 58.5t50.5 52.5q96 96 173 149t131 53q27 0 50 -22.5t23 -59.5q0 -92 -152.5 -239.5t-150.5 -216.5q74 0 203 112.5t186 184.5q2 -2 4 -5 t2 -6q0 -31 -156.5 -175t-234.5 -144q-10 0 -22.5 5t-22.5 15q-18 18 -25.5 40t-7.5 44q0 94 168 238q160 136 160 196v5l-9 2t-13 2q-41 0 -116 -52.5t-175 -152.5q-98 -98 -179 -196.5t-231 -305.5q-86 -119 -178 -265t-113 -196q-31 6 -43 38t-12 57z" />
<glyph unicode="q" horiz-adv-x="589" d="M-80 -526q0 37 91 180t227 336q45 63 86 119.5t75 105.5q-8 -8 -17 -17.5t-17 -17.5q-78 -78 -149 -129t-107 -51q-41 0 -67 34t-26 85q0 115 170 283.5t299 170.5q53 -20 70.5 -41.5t17.5 -37.5q0 -10 -2 -21.5t-4 -21.5q23 33 35 56t10 32v14q33 -14 39 -39t6 -39 q0 -68 -82.5 -179.5t-195.5 -272.5q-123 -178 -252 -379t-154 -265q-31 6 -42 38t-11 57zM76 45q2 -6 9 -9t15 -3q33 0 101.5 46t142.5 120q31 31 62.5 63.5t60.5 67.5t52.5 79t23.5 85q0 8 -2 15t-6 15q-86 -10 -268.5 -191t-190.5 -288z" />
<glyph unicode="r" horiz-adv-x="389" d="M-16 80q0 43 130 213t156 248q35 -14 42 -36t7 -42q0 -23 -30.5 -77t-75.5 -118l2 -10q66 82 131.5 159t85.5 97q23 23 46.5 41t43.5 18q25 0 34 -16t9 -47q0 -23 -17.5 -52.5t-53.5 -49.5q-12 8 -19.5 21t-7.5 26q6 25 24.5 44t32.5 27q-2 8 -4 12.5t-6 4.5 q-6 0 -23.5 -13.5t-41.5 -37.5q-63 -63 -195.5 -226.5t-214.5 -267.5q-27 0 -41 24.5t-14 57.5z" />
<glyph unicode="s" horiz-adv-x="475" d="M0 145q0 45 16.5 77t51.5 67q14 14 40.5 28.5t41.5 14.5q14 0 24 -4t10 -13q0 -8 -7 -17t-11 -13q-25 -25 -60.5 -85.5t-35.5 -90.5q0 -39 24.5 -61.5t63.5 -24.5q53 18 99 81.5t46 165.5q0 119 16.5 163t59.5 87q27 27 63.5 43.5t69.5 16.5q37 0 54.5 -22.5t17.5 -41.5 q0 -23 -17.5 -52.5t-54.5 -49.5q-12 8 -19.5 21.5t-7.5 25.5q6 27 28 48t36 28q-2 10 -11.5 14t-25.5 4q-53 0 -87 -51t-34 -96q0 -57 10.5 -102.5t10.5 -90.5q0 -78 -83 -146.5t-188 -68.5q-47 0 -94 40t-47 105z" />
<glyph unicode="t" horiz-adv-x="374" d="M25 98q0 61 47 131t131 177q23 29 47 59.5t51 60.5h-39q-27 0 -35 9.5t-8 29.5h113q127 158 233.5 302.5t106.5 189.5q33 -12 46 -36t13 -42q0 -39 -85 -153.5t-197 -262.5h92q20 0 24 -9t4 -19q-37 -2 -73.5 -3.5t-75.5 -3.5q-35 -45 -72 -93t-72 -95 q-94 -127 -138 -197.5t-42 -109.5q98 0 231.5 112.5t190.5 184.5q2 -2 4 -5t2 -6q0 -31 -161.5 -175t-256.5 -144q-14 0 -26 5t-25 18q-14 14 -22 34.5t-8 40.5z" />
<glyph unicode="u" horiz-adv-x="641" d="M25 102q0 90 85 190.5t197 264.5q35 -14 41 -35.5t6 -42.5q0 -57 -125 -204.5t-133 -241.5q63 0 171 103.5t169 178.5q39 49 85 108.5t97 133.5q35 -14 41.5 -35.5t6.5 -42.5q0 -57 -125 -204.5t-133 -241.5q74 0 202.5 112.5t186.5 184.5q2 -2 4 -5t2 -6 q0 -31 -157 -175t-234 -144q-10 0 -22.5 5t-22.5 15q-16 16 -23.5 38t-7.5 44q0 20 6 43t14 43q-63 -66 -138 -127t-118 -61q-10 0 -22 5t-23 15q-16 16 -23 38t-7 44z" />
<glyph unicode="v" horiz-adv-x="487" d="M27 115q0 109 109.5 237.5t123.5 204.5q29 -14 38 -35.5t9 -42.5q-1 -67 -107 -223q-93 -136 -93 -194q0 -8 2 -15q2 -2 9 -6t15 -4q33 0 89.5 39t117.5 100q90 90 126 151.5t36 129.5q0 33 -13.5 47t-29.5 14q-14 0 -28.5 -7t-27.5 -26q-2 0 -4 2t-2 5q0 20 39 65t74 45 t54.5 -28.5t19.5 -73.5q0 -70 -64.5 -159t-150.5 -175q-59 -59 -126 -112.5t-120 -53.5q-12 0 -29.5 6t-34.5 23q-10 10 -21 33.5t-11 52.5z" />
<glyph unicode="w" horiz-adv-x="788" d="M10 102q0 90 85 190.5t198 264.5q33 -14 39 -35.5t6 -42.5q0 -51 -124 -198.5t-132 -247.5q63 0 177 112.5t169 182.5q45 66 89 127t52 102q27 -14 36 -35.5t9 -42.5q0 -59 -106 -215q-93 -136 -94 -200q0 -9 2 -17q2 -2 8 -5t14 -3q20 0 85 40t143 118q74 74 105.5 133 t31.5 127q0 33 -13.5 47t-29.5 14q-14 0 -28.5 -7t-26.5 -26q-2 0 -4.5 2t-2.5 5q0 20 39 65t74 45t54.5 -28.5t19.5 -73.5q0 -70 -62.5 -157t-136.5 -161q-72 -72 -141.5 -127t-112.5 -55q-12 0 -29.5 6t-33.5 23q-10 10 -21.5 33.5t-11.5 52.5q0 23 7 48t19 52 q-63 -70 -147 -142.5t-129 -72.5q-10 0 -22.5 5t-22.5 15q-16 16 -23.5 38t-7.5 44z" />
<glyph unicode="x" horiz-adv-x="692" d="M-18 145q0 45 17 78t50 66q14 14 41 28.5t41 14.5t24.5 -4t10.5 -13q0 -8 -7 -17t-12 -13q-25 -25 -60.5 -86.5t-35.5 -100.5q0 -33 10.5 -52t28.5 -19q51 0 201.5 169t150.5 308q0 10 -7 19t-19 9q-63 0 -136 -78.5t-81 -78.5q-2 0 -4 2t-2 6q0 12 75.5 100t163.5 88 q37 0 60.5 -24.5t27.5 -81.5q53 47 107.5 77.5t97.5 32.5q43 -14 62.5 -32.5t19.5 -57.5q0 -23 -17.5 -59.5t-54.5 -56.5q-12 8 -19 21t-7 26q6 27 28.5 49t36.5 29l2 2q0 14 -2 21t-4 9q-100 -8 -255 -187t-163 -292q2 -2 9.5 -5t17.5 -3q76 0 191.5 61.5t197.5 143.5 q25 25 44 46t34 40q2 -2 4 -5t2 -6q0 -10 -25.5 -41.5t-66.5 -72.5q-82 -82 -195.5 -143.5t-171.5 -61.5q-41 0 -66.5 24.5t-29.5 88.5q-57 -49 -110.5 -81t-88.5 -32q-57 0 -86.5 48t-29.5 97z" />
<glyph unicode="y" horiz-adv-x="573" d="M-516 -489q0 45 15.5 76.5t49.5 66.5q14 14 41 28.5t41 14.5t24.5 -4t10.5 -12t-7 -17.5t-11 -13.5q-25 -25 -61 -85.5t-36 -90.5q8 -43 25.5 -57.5t52.5 -14.5q113 0 297.5 205t309.5 389q35 51 65.5 96t56.5 84q-63 -63 -134.5 -119.5t-117.5 -56.5q-10 0 -22 5t-23 15 q-16 16 -23 38t-7 44q0 90 85 190.5t197 264.5q35 -14 41 -35.5t6 -42.5q0 -57 -124.5 -204.5t-133.5 -241.5q72 0 188 112.5t171 182.5q76 111 102.5 152.5t36.5 64.5q39 -14 45 -36t6 -42q0 -29 -68.5 -126t-334.5 -480q-94 -135 -267.5 -316.5t-330.5 -181.5 q-82 0 -124 51t-42 97z" />
<glyph unicode="z" horiz-adv-x="520" d="M-76 10q0 8 62.5 66.5t101.5 81.5q86 70 182.5 137t196.5 131q-53 8 -92 28.5t-66 20.5q-37 0 -69.5 -31.5t-42.5 -31.5q-2 0 -4.5 2t-2.5 4q0 10 60.5 73.5t93.5 63.5q51 0 88 -21.5t119 -21.5q72 0 104.5 29.5t40.5 29.5q4 0 7.5 -2t3.5 -6q0 -12 -71 -68.5t-114 -70.5 q-94 -59 -192.5 -126t-192.5 -136q49 -14 97.5 -50t99.5 -36q76 0 179 95t157 159q2 -2 4 -5t2 -6q0 -29 -158 -174t-233 -145q-76 0 -124 38t-112 38q-16 0 -59 -38t-58 -38q-4 0 -6 3t-2 7z" />
<glyph unicode="{" horiz-adv-x="604" d="M-23 -131q0 150 211 326t211 294q0 20 -3 36t-11 24t-11 12t-3 8q0 10 44 21.5t103 71.5q86 86 170 220t160 210q63 63 137 95t150 38q2 -8 -5.5 -12.5t-17.5 -6.5q-27 -6 -79 -31.5t-103 -76.5q-76 -76 -138.5 -206t-142.5 -210q-70 -70 -143.5 -94.5t-110.5 -26.5 q20 -16 32.5 -41.5t12.5 -62.5q0 -150 -200.5 -343.5t-200.5 -316.5q0 -16 8 -35.5t23 -33.5l6 -7q-2 -2 -5 -4t-5 -2q-4 0 -11.5 4.5t-19.5 16.5q-29 29 -43.5 61.5t-14.5 71.5z" />
<glyph unicode="|" horiz-adv-x="452" d="M270 -109v1407q16 -2 26.5 -29.5t10.5 -150.5v-1403q-16 2 -26.5 27t-10.5 149z" />
<glyph unicode="}" horiz-adv-x="604" d="M-164 -272q20 4 58 23.5t83 64.5q86 86 172.5 220t161.5 210q61 61 128 92t134 39l-10 10q-14 14 -30.5 47t-16.5 86q0 150 205 326t205 295q0 37 -9.5 53t-21.5 27q2 2 4 3t4 1q14 0 41 -30t27 -87q0 -150 -199 -343.5t-199 -315.5q0 -39 15.5 -53.5t15.5 -22.5 q0 -4 -7 -7.5t-17 -5.5q-31 -6 -83.5 -31.5t-103.5 -76.5q-76 -76 -140.5 -206t-143.5 -210q-72 -72 -143.5 -96.5t-102.5 -24.5q-12 0 -18.5 3t-8.5 10z" />
<glyph unicode="~" horiz-adv-x="677" d="M31 223q0 8 8 25.5t16 27.5q154 219 290 331t200 112q39 0 60.5 -25.5t21.5 -72.5q0 -96 -91.5 -194.5t-89.5 -168.5q76 0 250 157.5t213 303.5q6 0 9.5 -5t3.5 -14q0 -102 -191.5 -292.5t-279.5 -190.5q-14 0 -21.5 6t-21.5 19q-10 12 -25.5 42.5t-15.5 57.5 q0 88 118.5 189.5t87.5 152.5l-9 3t-17 3q-51 0 -198.5 -123t-309.5 -356q-4 2 -6 5t-2 7z" />
<glyph unicode="&#xa1;" horiz-adv-x="540" d="M-164 -295q0 27 14.5 54.5t71.5 86.5q326 348 403.5 442.5t92.5 94.5q2 0 5 -2t3 -6q0 -12 -182.5 -259t-280.5 -395q-27 -39 -41 -53t-28 -14q-25 0 -41.5 18.5t-16.5 32.5zM465 500q0 27 24.5 54.5t51.5 27.5q20 0 30.5 -11.5t10.5 -33.5q0 -27 -25 -54.5t-49 -27.5 q-20 0 -31.5 11t-11.5 34z" />
<glyph unicode="&#xa2;" horiz-adv-x="485" d="M35 119q0 129 150.5 292.5t285.5 163.5q10 -6 21.5 -11t19.5 -11l59 82q2 -2 -1 -20.5t-40 -75.5q16 -12 25.5 -28.5t9.5 -39.5q0 -37 -16.5 -67.5t-50.5 -51.5q-10 12 -16.5 24.5t-6.5 22.5q4 25 23.5 47.5t33.5 30.5v6q0 8 -3 18.5t-11 20.5l-17 -25.5t-20 -27.5 l-311 -430q63 14 122.5 49t98.5 66q27 23 49.5 42t36.5 35q2 -2 4 -5t2 -5q-2 -10 -30.5 -38.5t-73.5 -65.5t-114.5 -77t-123.5 -40l-73 -100q-2 4 0 22.5t41 79.5q-33 8 -53.5 36t-20.5 81zM96 47q2 -4 9.5 -8t15.5 -4h10q4 6 9 12t10 14l339 461q-96 -33 -240.5 -200.5 t-152.5 -274.5zM504 424l6 9t12 22z" />
<glyph unicode="&#xa3;" horiz-adv-x="1116" d="M-86 94q0 39 37 60.5t86 21.5q51 0 127 -32.5t164 -67.5q39 27 83 65.5t101 96.5q16 16 35.5 37.5t38.5 41.5h-326q-27 0 -35 5.5t-8 23.5q92 2 192.5 1t200.5 -1q31 39 63 80t64 84q-76 20 -112.5 67.5t-36.5 100.5q0 76 61.5 135t120.5 74q0 -6 -1 -11.5t-3 -7.5 q-8 -8 -29.5 -20t-50.5 -41q-33 -33 -48 -67.5t-15 -65.5q0 -45 31.5 -84t103.5 -55q47 61 93 117.5t87 99.5q88 88 165 129t138 41q47 0 76 -25t29 -70q0 -123 -156 -227t-342 -104q-27 -37 -54.5 -75t-54.5 -75h258q20 0 24.5 -8t4.5 -16q-78 0 -154.5 -1.5t-152.5 -1.5 q-33 -43 -64.5 -79.5t-62.5 -67.5q-41 -39 -84 -71.5t-90 -57.5q47 -14 94 -24.5t92 -10.5q141 0 222 64.5t81 109.5q0 14 -5 22.5t-25 20.5q2 2 6 4t10 2q14 0 41 -31.5t27 -72.5q0 -76 -91.5 -123t-220.5 -47q-82 0 -151.5 18.5t-132.5 44.5q-51 -20 -109.5 -29t-128.5 -9 q-104 0 -158.5 32.5t-54.5 79.5zM-51 92q0 -29 35.5 -51.5t111.5 -22.5q57 0 103.5 8.5t87.5 28.5q-74 35 -139.5 63.5t-127.5 28.5q-29 0 -50 -17t-21 -38zM870 526q154 8 297.5 106.5t143.5 194.5q0 27 -13.5 46.5t-46.5 19.5q-39 0 -82 -20.5t-92 -71.5q-41 -43 -95 -117 t-112 -158z" />
<glyph unicode="&#xa4;" horiz-adv-x="819" d="M39 139q37 29 88 70t86 67q2 90 61.5 194.5t149.5 186.5q-8 18 -15.5 34t-13.5 28q-16 39 -7 56.5t24 23.5q12 -27 24.5 -54.5t24.5 -54.5q63 49 135 79t145 30q51 0 81 -25.5t30 -64.5q29 23 54.5 43t33.5 26q33 25 52.5 19t21.5 -13q-39 -31 -86 -68.5t-78 -62.5 q-8 -88 -50 -171t-132 -173q-10 -10 -21.5 -20t-21.5 -21q12 -27 21 -47t16 -33q16 -39 3.5 -53t-18.5 -16q-14 31 -27.5 61.5t-27.5 59.5q-63 -51 -130 -86t-130 -35q-45 0 -75 30.5t-40 73.5q-27 -23 -54.5 -45t-39.5 -33q-35 -27 -55.5 -22.5t-28.5 16.5zM274 217 q0 -39 13.5 -51t36.5 -12q55 0 137 68.5t151 137.5q88 88 145.5 180.5t57.5 159.5q0 33 -14.5 50.5t-36.5 17.5q-111 0 -300.5 -214t-189.5 -337z" />
<glyph unicode="&#xa5;" horiz-adv-x="964" d="M193 10q0 8 19 18.5t38 28.5q18 18 76.5 94t95.5 125h-127q-27 0 -34 9.5t-7 21.5h190q2 2 4.5 4t2.5 4q16 25 30.5 47.5t28.5 43.5h-133q-27 0 -34 9t-7 21h192q74 125 99.5 208t25.5 140q0 53 -19.5 81t-58.5 28q-33 0 -83 -25.5t-76 -52.5q-63 -63 -77.5 -107 t-33.5 -44q-8 0 -13 7t-5 21q0 23 17.5 56.5t55.5 72.5q53 53 115 77t113 24q55 0 98 -44t43 -135q0 -43 -11 -95t-44 -126q127 166 286.5 283t266.5 117q59 0 83.5 -30t24.5 -75q0 -25 -19.5 -57.5t-60.5 -52.5q-12 8 -20 22t-8 29q10 35 32.5 61.5t34.5 32.5q-4 23 -16 30 t-31 7q-104 0 -283.5 -142.5t-318.5 -310.5h189q20 0 23 -11t3 -15q-59 0 -119.5 -1t-117.5 -1q-20 -27 -40 -51.5t-34 -49.5h203q20 0 23 -11t3 -15q-63 -2 -124.5 -2h-125.5q-47 -72 -95 -150t-48 -98q0 -8 3 -14.5t3 -8.5q0 -4 -6 -6t-10 -2q-8 0 -25.5 2t-64.5 2 q-39 0 -54.5 -2t-25.5 -2q-6 0 -9 3t-3 7z" />
<glyph unicode="&#xa7;" horiz-adv-x="798" d="M-203 -125q0 37 16.5 67.5t51.5 65.5q14 14 40.5 28.5t41.5 14.5q14 0 24.5 -4t10.5 -12t-7.5 -17.5t-11.5 -13.5q-25 -25 -60.5 -85t-35.5 -91q0 -63 41 -99t100 -36q147 0 227 91t80 179q0 129 -18 217t-18 176q0 100 71.5 179t186.5 94q-2 12 -3.5 25.5t-1.5 25.5 q0 94 68 168t166 74q94 0 130 -37t36 -76q0 -27 -21.5 -63.5t-66.5 -63.5q-14 12 -23.5 28.5t-9.5 30.5q8 33 34.5 59.5t43.5 35.5q-2 31 -31 45t-86 14q-55 0 -102 -47t-47 -111q0 -86 51 -198.5t51 -188.5q0 -129 -88 -224t-205 -134q-14 -147 -143 -242.5t-262 -95.5 q-104 0 -167 59.5t-63 161.5zM371 414q0 -86 31.5 -199t31.5 -188v-7q88 43 131 115t43 152q0 98 -26.5 174t-40.5 145q-74 -14 -122 -71.5t-48 -120.5z" />
<glyph unicode="&#xa8;" horiz-adv-x="657" d="M471 709q0 23 21.5 47t42.5 24q16 0 26 -10t10 -29q0 -25 -21.5 -48t-43.5 -23q-14 0 -24.5 10t-10.5 29zM635 709q0 23 21.5 47t41.5 24q14 0 25.5 -10t11.5 -29q0 -25 -21.5 -48t-43.5 -23q-16 0 -25.5 10t-9.5 29z" />
<glyph unicode="&#xaa;" horiz-adv-x="516" d="M211 569q0 90 128 220.5t228 132.5q41 -16 55.5 -34t14.5 -32v-16.5t-2 -16.5q16 23 27.5 42.5t13.5 33.5q29 -10 35 -27.5t6 -31.5q0 -39 -101.5 -160t-99.5 -178q43 0 138.5 99t133.5 161q4 0 7.5 -3t3.5 -9q0 -25 -110.5 -150t-168.5 -125q-12 0 -21.5 3t-17.5 11 q-4 6 -13 24.5t-9 39.5q0 8 3 18.5t5 20.5q-51 -47 -107.5 -82t-80.5 -35q-33 0 -50.5 24.5t-17.5 69.5zM260 514q2 -4 6 -7t13 -3q20 0 81.5 40t114.5 95q16 16 39 41t47 53q18 20 33.5 55t15.5 68q0 8 -2 13t-4 12q-70 -8 -205 -146.5t-139 -220.5z" />
<glyph unicode="&#xab;" horiz-adv-x="768" d="M197 315v11q129 35 253.5 126t139.5 91q2 0 3 -7.5t1 -11.5q-76 -88 -160 -150.5t-147 -97.5l6 -6q23 -23 51.5 -85t28.5 -119q0 -12 -2 -17.5t-4 -5.5q-8 0 -35 46t-64 93q-20 27 -45.5 50.5t-25.5 82.5zM432 315v11q129 35 254 126t139 91q2 0 3 -7.5t1 -11.5 q-76 -88 -159.5 -150.5t-147.5 -97.5l6 -6q23 -23 51.5 -85t28.5 -119q0 -12 -2 -17.5t-4 -5.5q-8 0 -34.5 46t-63.5 93q-20 27 -46 50.5t-26 82.5z" />
<glyph unicode="&#xad;" horiz-adv-x="524" d="M205 354q70 2 135.5 1t122.5 -1q20 0 24.5 -17.5t4.5 -23.5q-55 -2 -121 -3t-123 -1q-27 0 -35 15.5t-8 29.5z" />
<glyph unicode="&#xaf;" horiz-adv-x="657" d="M461 748q70 2 135.5 1t122.5 -1q20 0 24.5 -17.5t4.5 -23.5q-55 -2 -121 -3.5t-123 -1.5q-27 0 -35 15.5t-8 30.5z" />
<glyph unicode="&#xb0;" horiz-adv-x="417" d="M322 768q0 63 44 108.5t107 45.5t108.5 -45.5t45.5 -108.5t-45 -108.5t-109 -45.5q-63 0 -107 45.5t-44 108.5zM356 768q0 -49 34 -84t83 -35t84 35t35 84t-35 84t-84 35t-83 -35t-34 -84z" />
<glyph unicode="&#xb1;" horiz-adv-x="634" d="M-51 133q104 2 245.5 1t251.5 -1q20 0 23.5 -11t3.5 -16q-121 -2 -242.5 -3t-240.5 -1q-27 0 -34 9.5t-7 21.5zM158 469q55 2 123.5 1t140.5 -1l176 238q10 -8 2 -36t-82 -128l-53 -74h190q20 0 23.5 -11.5t3.5 -15.5q-59 0 -119.5 -1t-120.5 -1l-168 -229q-8 8 -4 35.5 t80 128.5l47 63h-198q-27 0 -34 9.5t-7 21.5z" />
<glyph unicode="&#xb2;" horiz-adv-x="423" d="M94 393q0 6 23.5 32t44.5 46q80 80 178 105.5t180 107.5q27 27 57.5 70t30.5 98q0 25 -9 35t-28 10q-16 0 -43.5 -15.5t-58.5 -45.5q-31 -31 -42 -53.5t-24 -22.5q-8 0 -14 4t-6 16q0 8 9 27.5t36 46.5q39 39 76 53.5t76 14.5q51 0 84.5 -24t33.5 -83q0 -39 -18 -73.5 t-39 -55.5q-127 -117 -253 -135.5t-208 -99.5l-10 -11q16 12 33.5 21.5t32.5 9.5q49 0 84.5 -15.5t72.5 -15.5q51 0 76 13.5t31 13.5q2 0 4 -2t2 -6q0 -8 -36 -44t-114 -36q-55 0 -94 18.5t-74 18.5q-39 0 -58 -14.5t-28 -14.5q-2 0 -5 2t-3 4z" />
<glyph unicode="&#xb3;" horiz-adv-x="430" d="M145 485q0 27 13.5 50.5t40.5 50.5q10 10 29.5 21t33.5 11q10 0 17.5 -2t7.5 -10t-6.5 -15t-8.5 -9q-16 -16 -44.5 -63.5t-28.5 -69.5q0 -23 11 -34.5t32 -11.5q78 0 172 78t94 160q0 12 -4 21.5t-10 15.5q-8 -2 -17.5 -3t-17.5 -1q-14 0 -24.5 2t-12.5 8q4 8 11 18.5 t22 10.5q12 0 23 -1t20 -3q57 23 95 66.5t38 86.5q0 20 -9.5 27.5t-21.5 7.5q-16 0 -44 -15.5t-58 -45.5q-31 -31 -42.5 -53.5t-23.5 -22.5q-8 0 -14 4t-6 16q0 8 9 27.5t36 46.5q39 39 75.5 53.5t75.5 14.5q47 0 69.5 -19.5t22.5 -56.5q0 -45 -47 -88t-104 -66 q25 -14 37 -34.5t12 -45.5q0 -82 -116.5 -160.5t-227.5 -78.5q-45 0 -77 27.5t-32 84.5z" />
<glyph unicode="&#xb4;" horiz-adv-x="657" d="M526 643q-2 6 0 8q2 6 33 30t88 81q45 45 102.5 122t94.5 173q31 -12 40 -34t9 -36q0 -51 -90 -151.5t-271 -200.5q-4 2 -6 8z" />
<glyph unicode="&#xb6;" horiz-adv-x="829" d="M-219 -440q0 33 38 89t138 56q25 0 43 -4t31 -12q-2 2 -2 6v8q0 43 84 181.5t200 310.5q25 35 49.5 71.5t51.5 73.5q-82 45 -120 109.5t-38 150.5q0 180 162 317.5t373 137.5q98 0 173.5 -27t133.5 -65q18 20 36.5 39.5t34.5 35.5q80 80 148.5 133.5t107.5 53.5 q12 0 17.5 -4t5.5 -11q-18 -2 -54 -28.5t-79 -69.5q-41 -41 -84 -89t-86 -99q8 -8 16 -16.5t17 -16.5q6 -8 9 -13.5t3 -9.5q0 -6 -3 -9l-5 -5q-12 10 -26.5 22.5t-29.5 24.5q-299 -367 -568 -817.5t-384 -572.5q-51 -55 -106.5 -82t-114.5 -27q-84 0 -128 52t-44 106z M-158 -479q8 -43 28.5 -61.5t61.5 -18.5t83 19.5t81 66.5q61 72 383 583t598 828q-18 12 -38.5 22.5t-43.5 18.5q-14 -8 -31.5 -20.5t-33.5 -28.5q-121 -121 -327 -422t-281 -416q-76 -117 -146 -227.5t-104 -177.5q-6 -10 -12.5 -21.5t-8.5 -21.5q-6 8 -21.5 11t-45.5 3 q-55 0 -98.5 -46t-43.5 -91zM362 532q0 -51 16.5 -95t51.5 -72q109 154 219.5 300t186.5 222q39 39 70.5 66.5t56.5 35.5q-29 8 -62 13.5t-70 5.5q-168 0 -318.5 -140.5t-150.5 -335.5z" />
<glyph unicode="&#xb7;" horiz-adv-x="237" d="M184 434q0 27 24.5 55.5t51.5 28.5q20 0 31.5 -11t11.5 -34q0 -29 -25.5 -56.5t-52.5 -27.5q-20 0 -30.5 11.5t-10.5 33.5z" />
<glyph unicode="&#xb8;" horiz-adv-x="444" d="M-127 -147q0 2 2 4t4 2q4 0 10.5 -6.5l14.5 -14.5q16 -16 46 -30.5t75 -14.5q57 0 82.5 26.5t25.5 47.5q0 23 -12 32t-31 9q-33 0 -47 -9.5t-27 -9.5q-8 0 -10 3.5t-2 7.5q0 8 31 46t78 91l41 -6q-27 -27 -51.5 -52.5t-39.5 -46.5q10 2 21.5 4.5t26.5 2.5 q41 0 70.5 -21.5t29.5 -67.5q0 -41 -46 -69.5t-116 -28.5q-94 0 -135 43t-41 58z" />
<glyph unicode="&#xb9;" horiz-adv-x="356" d="M201 397q0 8 17.5 15.5t39.5 29.5q10 10 102.5 130t174.5 243q-16 -8 -34 -14t-20 -6q-8 0 -12 4t-4 8q0 12 63.5 39.5t128.5 73.5l5 1q6 1 10 1t8 -2t2 -5q-172 -248 -251 -360.5t-79 -122.5q0 -20 6.5 -23t6.5 -12q0 -8 -4.5 -11t-12.5 -3q-14 0 -37.5 2t-54.5 2 q-20 0 -29.5 -2t-15.5 -2q-4 0 -7 3t-3 11z" />
<glyph unicode="&#xba;" horiz-adv-x="327" d="M211 567q0 94 109.5 223.5t214.5 131.5q45 -18 59 -36t14 -32q0 -51 -44 -125t-105 -135q-51 -51 -100.5 -85t-79.5 -34q-29 0 -48.5 25.5t-19.5 66.5zM264 514q2 -2 6 -5t11 -3q27 0 68.5 30.5t88.5 77.5q55 55 98.5 126t43.5 114q0 8 -2.5 15.5t-4.5 11.5 q-70 -8 -186.5 -146.5t-122.5 -220.5z" />
<glyph unicode="&#xbb;" horiz-adv-x="768" d="M59 61q76 88 160 150.5t148 97.5l-7 6q-23 23 -51 85.5t-28 119.5q0 12 2 17.5t4 5.5q8 0 34.5 -46t63.5 -94q20 -27 46 -50t26 -83v-10q-129 -35 -254 -126t-140 -91q-2 0 -3 7t-1 11zM295 61q76 88 160 150.5t147 97.5l-6 6q-23 23 -51.5 85.5t-28.5 119.5q0 12 2 17.5 t4 5.5q8 0 35 -46t64 -94q20 -27 45.5 -50t25.5 -83v-10q-129 -35 -254 -126t-139 -91q-2 0 -3 7t-1 11z" />
<glyph unicode="&#xbc;" horiz-adv-x="987" d="M129 -18q-8 12 3 36.5t104 106.5q293 256 603 527l310 270q8 -14 -7.5 -39t-105.5 -103q-274 -242 -590 -520zM203 397q0 8 17.5 15.5t39.5 29.5q10 10 102.5 130t174.5 243q-16 -8 -34 -14t-20 -6q-8 0 -12 4t-4 8q0 12 63.5 39.5t128.5 73.5l5 1q6 1 10 1t8 -2t2 -5 q-172 -248 -251 -360.5t-79 -122.5q0 -20 6.5 -23t6.5 -12q0 -8 -4.5 -11t-12.5 -3q-14 0 -37.5 2t-54.5 2q-20 0 -29.5 -2t-15.5 -2q-4 0 -7 3t-3 11zM485 135q0 10 164 116.5t395 285.5l4 1q5 1 11 1q4 0 9 -2t3 -5q-98 -135 -163.5 -228t-104.5 -150q55 0 85 10t34 10 q2 0 3 -1t1 -3q0 -14 -43 -35.5t-92 -21.5h-15q-20 -29 -28.5 -45.5t-8.5 -18.5q0 -20 6.5 -23t6.5 -12q0 -8 -4.5 -11t-12.5 -3q-4 0 -34.5 2t-57.5 2q-20 0 -29.5 -2t-15.5 -2q-4 0 -7 3t-3 11t17.5 15.5t39.5 29.5q2 2 16.5 18.5t34.5 43.5q-33 4 -60.5 9t-39.5 5 q-33 0 -62.5 -3t-37.5 -3q-6 0 -8.5 2t-2.5 4zM565 164q8 2 16.5 3t14.5 1q33 0 65.5 -4t63.5 -6q43 53 96 122.5t105 137.5q-94 -74 -192.5 -141.5t-168.5 -112.5z" />
<glyph unicode="&#xbd;" horiz-adv-x="1069" d="M129 -18q-8 12 3 36.5t104 106.5q293 256 603 527l310 270q8 -14 -7.5 -39t-105.5 -103q-274 -242 -590 -520zM203 397q0 8 17.5 15.5t39.5 29.5q10 10 102.5 130t174.5 243q-16 -8 -34 -14t-20 -6q-8 0 -12 4t-4 8q0 12 63.5 39.5t128.5 73.5l5 1q6 1 10 1t8 -2t2 -5 q-172 -248 -251 -360.5t-79 -122.5q0 -20 6.5 -23t6.5 -12q0 -8 -4.5 -11t-12.5 -3q-14 0 -37.5 2t-54.5 2q-20 0 -29.5 -2t-15.5 -2q-4 0 -7 3t-3 11zM494 2q0 6 23.5 31.5t43.5 46.5q80 80 178.5 105.5t180.5 107.5q27 27 57.5 70t30.5 98q0 25 -9.5 35t-27.5 10 q-16 0 -44 -15.5t-59 -46.5t-42 -53t-23 -22q-8 0 -14.5 4t-6.5 16q0 8 9.5 27.5t35.5 46.5q39 39 76 53t76 14q51 0 85 -23.5t34 -82.5q0 -39 -18.5 -74t-39.5 -55q-127 -117 -252.5 -135.5t-207.5 -100.5l-11 -10q16 12 34 21.5t32 9.5q49 0 85 -15.5t73 -15.5 q51 0 75.5 13.5t30.5 13.5q2 0 4 -2t2 -6q0 -8 -35.5 -44t-113.5 -36q-55 0 -94 18.5t-74 18.5q-39 0 -58.5 -14.5t-27.5 -14.5q-2 0 -5 2t-3 4z" />
<glyph unicode="&#xbe;" horiz-adv-x="1034" d="M145 485q0 27 13.5 50.5t40.5 50.5q10 10 29.5 21t33.5 11q10 0 17.5 -2t7.5 -10t-6.5 -15t-8.5 -9q-16 -16 -44.5 -63.5t-28.5 -69.5q0 -23 11 -34.5t32 -11.5q78 0 172 78t94 160q0 12 -4 21.5t-10 15.5q-8 -2 -17.5 -3t-17.5 -1q-14 0 -24.5 2t-12.5 8q4 8 11 18.5 t22 10.5q12 0 23 -1t20 -3q57 23 95 66.5t38 86.5q0 20 -9.5 27.5t-21.5 7.5q-16 0 -44 -15.5t-58 -45.5q-31 -31 -42.5 -53.5t-23.5 -22.5q-8 0 -14 4t-6 16q0 8 9 27.5t36 46.5q39 39 75.5 53.5t75.5 14.5q47 0 69.5 -19.5t22.5 -56.5q0 -45 -47 -88t-104 -66 q25 -14 37 -34.5t12 -45.5q0 -82 -116.5 -160.5t-227.5 -78.5q-45 0 -77 27.5t-32 84.5zM174 -18q-8 12 3 36.5t104 106.5q293 256 603 527l310 270q8 -14 -7.5 -39t-105.5 -103q-274 -242 -591 -520zM530 135q0 10 164 116.5t396 285.5l4 1t10 1q4 0 9 -2t3 -5 q-98 -135 -163.5 -228t-104.5 -150q55 0 85 10t34 10q2 0 3 -1t1 -3q0 -14 -43 -35.5t-92 -21.5h-15q-20 -29 -28.5 -45.5t-8.5 -18.5q0 -20 6.5 -23t6.5 -12q0 -8 -4.5 -11t-12.5 -3q-4 0 -34.5 2t-57.5 2q-20 0 -29.5 -2t-15.5 -2q-4 0 -7 3t-3 11t17.5 15.5t39.5 29.5 q2 2 16.5 18.5t34.5 43.5q-33 4 -60.5 9t-39.5 5q-33 0 -62.5 -3t-37.5 -3q-6 0 -8.5 2t-2.5 4zM610 164q8 2 16.5 3t14.5 1q33 0 65.5 -4t63.5 -6q43 53 96.5 122.5t104.5 137.5q-94 -74 -192.5 -141.5t-168.5 -112.5z" />
<glyph unicode="&#xbf;" horiz-adv-x="661" d="M-23 -178q0 88 38 141t55 70q82 82 179 127t191 139q39 39 56.5 61.5t29.5 22.5q6 0 8.5 -3t2.5 -5q0 -14 -38 -58.5t-65 -70.5q-55 -55 -104 -91t-107 -94q-45 -45 -97 -117.5t-52 -170.5q0 -47 17.5 -68.5t45.5 -21.5q45 0 94.5 27.5t85.5 64.5q61 61 76 99t33 38 q8 0 13 -7t5 -22q0 -20 -17 -49t-56 -67q-63 -63 -123 -88t-123 -25t-105.5 41t-42.5 127zM553 500q0 27 24.5 54.5t51.5 27.5q20 0 30.5 -11.5t10.5 -33.5q0 -27 -24.5 -54.5t-49.5 -27.5q-20 0 -31.5 11t-11.5 34z" />
<glyph unicode="&#xc0;" horiz-adv-x="1568" d="M92 213q0 225 254 396t496 171q117 0 212 -36.5t146 -112.5q223 223 411.5 408.5t276.5 185.5q39 0 53.5 -33t14.5 -76q0 -219 -353.5 -588.5t-353.5 -537.5q0 -14 7.5 -22.5t17.5 -8.5q82 0 226.5 125t207.5 205q2 -2 4 -6t2 -7q0 -33 -174 -193.5t-260 -160.5 q-49 0 -76.5 43t-27.5 94q0 256 368.5 592t368.5 527q0 8 -5 15t-20 7q-82 0 -264 -190.5t-403 -419.5q10 -25 16 -53.5t6 -61.5q0 -80 -21.5 -131t-41.5 -84q-4 0 -8.5 6t-4.5 13q0 12 22.5 60t22.5 136q0 25 -3 47.5t-11 42.5q-219 -225 -453.5 -414.5t-420.5 -189.5 q-82 0 -157 61.5t-75 190.5zM158 135q0 -47 34.5 -91t120.5 -44q170 0 404.5 191.5t462.5 418.5q-41 72 -130 108t-208 36q-213 0 -448.5 -208t-235.5 -411zM1933 1438q0 45 17.5 90t50.5 84q31 -12 40 -34t9 -36q0 -45 -23.5 -65.5t-23.5 -79.5q0 -49 18.5 -78t32.5 -43 q8 -8 13.5 -11t5.5 -8q0 -2 -2.5 -4t-4.5 -2q-14 0 -37.5 11.5t-39.5 27.5q-25 25 -40.5 60.5t-15.5 87.5z" />
<glyph unicode="&#xc1;" horiz-adv-x="1568" d="M92 213q0 225 254 396t496 171q117 0 212 -36.5t146 -112.5q223 223 411.5 408.5t276.5 185.5q39 0 53.5 -33t14.5 -76q0 -219 -353.5 -588.5t-353.5 -537.5q0 -14 7.5 -22.5t17.5 -8.5q82 0 226.5 125t207.5 205q2 -2 4 -6t2 -7q0 -33 -174 -193.5t-260 -160.5 q-49 0 -76.5 43t-27.5 94q0 256 368.5 592t368.5 527q0 8 -5 15t-20 7q-82 0 -264 -190.5t-403 -419.5q10 -25 16 -53.5t6 -61.5q0 -80 -21.5 -131t-41.5 -84q-4 0 -8.5 6t-4.5 13q0 12 22.5 60t22.5 136q0 25 -3 47.5t-11 42.5q-219 -225 -453.5 -414.5t-420.5 -189.5 q-82 0 -157 61.5t-75 190.5zM158 135q0 -47 34.5 -91t120.5 -44q170 0 404.5 191.5t462.5 418.5q-41 72 -130 108t-208 36q-213 0 -448.5 -208t-235.5 -411zM1925 1259.5q-2 6.5 0 8.5q2 6 33 29.5t88 80.5q45 45 102.5 122t94.5 173q31 -12 40 -33.5t9 -35.5 q0 -51 -90.5 -151.5t-270.5 -201.5q-4 2 -6 8.5z" />
<glyph unicode="&#xc2;" horiz-adv-x="1568" d="M92 213q0 225 254 396t496 171q117 0 212 -36.5t146 -112.5q223 223 411.5 408.5t276.5 185.5q39 0 53.5 -33t14.5 -76q0 -219 -353.5 -588.5t-353.5 -537.5q0 -14 7.5 -22.5t17.5 -8.5q82 0 226.5 125t207.5 205q2 -2 4 -6t2 -7q0 -33 -174 -193.5t-260 -160.5 q-49 0 -76.5 43t-27.5 94q0 256 368.5 592t368.5 527q0 8 -5 15t-20 7q-82 0 -264 -190.5t-403 -419.5q10 -25 16 -53.5t6 -61.5q0 -80 -21.5 -131t-41.5 -84q-4 0 -8.5 6t-4.5 13q0 12 22.5 60t22.5 136q0 25 -3 47.5t-11 42.5q-219 -225 -453.5 -414.5t-420.5 -189.5 q-82 0 -157 61.5t-75 190.5zM158 135q0 -47 34.5 -91t120.5 -44q170 0 404.5 191.5t462.5 418.5q-41 72 -130 108t-208 36q-213 0 -448.5 -208t-235.5 -411zM1688 1264q0 8 142 88t277 219q25 -12 33 -33.5t8 -36.5q0 -27 -8 -49t-8 -63q0 -68 4 -93.5t4 -38.5q0 -2 -2 -4 t-4 -2q-12 0 -39 47.5t-27 141.5v10q-59 -45 -164.5 -102.5t-209.5 -96.5q-2 2 -4 6.5t-2 6.5z" />
<glyph unicode="&#xc3;" horiz-adv-x="1568" d="M92 213q0 225 254 396t496 171q117 0 212 -36.5t146 -112.5q223 223 411.5 408.5t276.5 185.5q39 0 53.5 -33t14.5 -76q0 -219 -353.5 -588.5t-353.5 -537.5q0 -14 7.5 -22.5t17.5 -8.5q82 0 226.5 125t207.5 205q2 -2 4 -6t2 -7q0 -33 -174 -193.5t-260 -160.5 q-49 0 -76.5 43t-27.5 94q0 256 368.5 592t368.5 527q0 8 -5 15t-20 7q-82 0 -264 -190.5t-403 -419.5q10 -25 16 -53.5t6 -61.5q0 -80 -21.5 -131t-41.5 -84q-4 0 -8.5 6t-4.5 13q0 12 22.5 60t22.5 136q0 25 -3 47.5t-11 42.5q-219 -225 -453.5 -414.5t-420.5 -189.5 q-82 0 -157 61.5t-75 190.5zM158 135q0 -47 34.5 -91t120.5 -44q170 0 404.5 191.5t462.5 418.5q-41 72 -130 108t-208 36q-213 0 -448.5 -208t-235.5 -411zM1714 1262q0 8 7.5 22t13.5 23q129 180 241.5 273t163.5 93q33 0 50.5 -21.5t17.5 -60.5q0 -80 -76 -161.5 t-74 -139.5q63 0 207.5 131t177.5 252q4 0 7.5 -4t3.5 -12q0 -84 -159 -242t-233 -158q-12 0 -18 5.5t-16 15.5q-8 8 -21.5 33.5t-13.5 48.5q0 74 98 158t74 127l-7 2q-8 2 -16 2q-43 0 -165 -101.5t-257 -296.5q-2 2 -4 5.5t-2 5.5z" />
<glyph unicode="&#xc4;" horiz-adv-x="1568" d="M92 213q0 225 254 396t496 171q117 0 212 -36.5t146 -112.5q223 223 411.5 408.5t276.5 185.5q39 0 53.5 -33t14.5 -76q0 -219 -353.5 -588.5t-353.5 -537.5q0 -14 7.5 -22.5t17.5 -8.5q82 0 226.5 125t207.5 205q2 -2 4 -6t2 -7q0 -33 -174 -193.5t-260 -160.5 q-49 0 -76.5 43t-27.5 94q0 256 368.5 592t368.5 527q0 8 -5 15t-20 7q-82 0 -264 -190.5t-403 -419.5q10 -25 16 -53.5t6 -61.5q0 -80 -21.5 -131t-41.5 -84q-4 0 -8.5 6t-4.5 13q0 12 22.5 60t22.5 136q0 25 -3 47.5t-11 42.5q-219 -225 -453.5 -414.5t-420.5 -189.5 q-82 0 -157 61.5t-75 190.5zM158 135q0 -47 34.5 -91t120.5 -44q170 0 404.5 191.5t462.5 418.5q-41 72 -130 108t-208 36q-213 0 -448.5 -208t-235.5 -411zM1874 1325q0 23 21.5 47.5t41.5 24.5q16 0 26.5 -10.5t10.5 -28.5q0 -25 -21.5 -48.5t-43.5 -23.5 q-14 0 -24.5 10.5t-10.5 28.5zM2038 1325q0 23 21.5 47.5t41.5 24.5q14 0 25.5 -10.5t11.5 -28.5q0 -25 -21.5 -48.5t-43.5 -23.5q-16 0 -25.5 10.5t-9.5 28.5z" />
<glyph unicode="&#xc5;" horiz-adv-x="1568" d="M92 213q0 225 254 396t496 171q117 0 212 -36.5t146 -112.5q223 223 411.5 408.5t276.5 185.5q39 0 53.5 -33t14.5 -76q0 -219 -353.5 -588.5t-353.5 -537.5q0 -14 7.5 -22.5t17.5 -8.5q82 0 226.5 125t207.5 205q2 -2 4 -6t2 -7q0 -33 -174 -193.5t-260 -160.5 q-49 0 -76.5 43t-27.5 94q0 256 368.5 592t368.5 527q0 8 -5 15t-20 7q-82 0 -264 -190.5t-403 -419.5q10 -25 16 -53.5t6 -61.5q0 -80 -21.5 -131t-41.5 -84q-4 0 -8.5 6t-4.5 13q0 12 22.5 60t22.5 136q0 25 -3 47.5t-11 42.5q-219 -225 -453.5 -414.5t-420.5 -189.5 q-82 0 -157 61.5t-75 190.5zM158 135q0 -47 34.5 -91t120.5 -44q170 0 404.5 191.5t462.5 418.5q-41 72 -130 108t-208 36q-213 0 -448.5 -208t-235.5 -411zM1956 1298q0 43 38 84t83 41q33 0 49 -19.5t16 -45.5q0 -45 -38 -85t-89 -40q-27 0 -43 18.5t-16 46.5zM1980 1298 q0 -10 7.5 -25.5t27.5 -15.5q39 0 71 34t32 67q0 8 -7.5 24.5t-33.5 16.5q-35 0 -66 -34t-31 -67z" />
<glyph unicode="&#xc6;" horiz-adv-x="2375" d="M92 213q0 225 254 396t496 171q117 0 212 -36.5t146 -112.5q223 223 411.5 408.5t276.5 185.5q39 0 53.5 -33t14.5 -76q0 -219 -353.5 -588.5t-353.5 -537.5q0 -14 7.5 -22.5t17.5 -8.5q59 0 154.5 71.5t177.5 149.5v23q0 242 206.5 357.5t333.5 176.5q-63 27 -95 65 t-32 64q0 8 3 16.5t8 10.5q8 -45 44.5 -83t106.5 -54q14 6 24.5 13t16.5 13q49 49 29.5 122t89.5 181q59 59 176 99.5t199 40.5q57 0 91 -30t34 -83q0 -150 -176.5 -275.5t-364.5 -125.5q-20 0 -37.5 2t-34.5 4q-6 -8 -15 -18.5t-18 -18.5q-76 -76 -308 -194.5t-232 -321.5 q0 -23 3 -43.5t7 -36.5q29 51 72 107.5t96 109.5q63 63 180 138t223 75q76 0 112 -39t36 -110q0 -141 -169 -292t-366 -151q-39 0 -74.5 7.5t-64.5 23.5q-10 -33 -14 -57.5t-4 -34.5q0 -51 11 -87t26 -50q10 -10 21 -12.5t34 5.5q2 -2 1 -6t-5 -8q-14 -14 -59.5 -13 t-80.5 34q-25 20 -37 57t-12 82q0 33 11.5 77t33.5 91q-10 23 -18 51.5t-10 62.5q-76 -76 -175.5 -149.5t-152.5 -73.5q-49 0 -76.5 43t-27.5 94q0 256 368.5 592t368.5 527q0 8 -5 15t-20 7q-82 0 -264 -190.5t-403 -419.5q10 -25 16 -53.5t6 -61.5q0 -80 -21.5 -131 t-41.5 -84q-4 0 -8.5 6t-4.5 13q0 12 22.5 60t22.5 136q0 25 -3 47.5t-11 42.5q-219 -225 -453.5 -414.5t-420.5 -189.5q-82 0 -157 61.5t-75 190.5zM158 135q0 -47 34.5 -91t120.5 -44q170 0 404.5 191.5t462.5 418.5q-41 72 -130 108t-208 36q-213 0 -448.5 -208 t-235.5 -411zM1724 -2q27 -18 54.5 -22.5t44.5 -4.5q178 0 347 142.5t169 267.5q0 37 -16.5 72.5t-86.5 35.5t-157.5 -59t-171.5 -143q-72 -72 -116 -149t-67 -140zM2249 743q12 -2 24.5 -2h26.5q158 0 333 124t175 247q0 31 -14.5 54.5t-45.5 23.5q-45 0 -169.5 -65.5 t-184.5 -125.5q-98 -98 -99 -144t-46 -112z" />
<glyph unicode="&#xc7;" horiz-adv-x="1050" d="M176 -240q0 2 2 4.5t4 2.5q4 0 10.5 -6.5l14.5 -14.5q16 -16 46 -30.5t75 -14.5q57 0 82.5 26.5t25.5 47.5q0 23 -12 32t-31 9q-33 0 -47 -9.5t-27 -9.5q-8 0 -10 3t-2 7q0 8 30 45t75 89q-57 20 -93 80.5t-36 181.5q0 164 119.5 338t289.5 319q-6 16 -9 34.5t-3 35.5 q0 94 74.5 165.5t146.5 88.5q0 -8 -3 -13.5t-5 -7.5q-10 -10 -36 -24.5t-60 -48.5q-37 -37 -58.5 -80t-21.5 -84q0 -10 1 -20.5t3 -20.5q178 147 370.5 243.5t315.5 96.5q57 0 91 -30t34 -83q0 -150 -176 -275.5t-365 -125.5q-78 0 -135 17t-96 46q-172 -145 -300 -309 t-128 -301q0 -135 66.5 -164t101.5 -29h2q-2 8 -2 16.5v16.5q0 88 45 189.5t145 201.5q53 53 112.5 86t110.5 33q76 0 112 -39t36 -110q0 -127 -138.5 -264.5t-314.5 -170.5q4 -23 12.5 -40t16.5 -25q10 -10 21.5 -12.5t33.5 6.5q2 -2 1 -6.5t-5 -8.5q-14 -14 -59 -13 t-80 34q-12 10 -21.5 25.5t-15.5 31.5q-16 0 -32.5 2t-30.5 6q-27 -27 -47.5 -48t-34.5 -42q10 2 21 4t26 2q41 0 70.5 -21.5t29.5 -66.5q0 -41 -46 -69.5t-116 -28.5q-94 0 -135 43t-41 57zM600 -16q156 39 286 163.5t130 233.5q0 37 -15.5 72.5t-72.5 35.5 q-35 0 -79 -24.5t-106 -85.5q-98 -98 -120.5 -210t-22.5 -185zM784 795q33 -25 84.5 -39.5t122.5 -14.5q158 0 333 124t175 247q0 31 -14.5 54.5t-46.5 23.5q-63 0 -259 -114.5t-395 -280.5z" />
<glyph unicode="&#xc8;" horiz-adv-x="1028" d="M244 -137q0 35 12 79t37 95q-20 33 -30.5 76t-10.5 90q0 240 207 355.5t336 176.5q-78 29 -116 83t-38 112q0 94 75 165.5t146 88.5q0 -8 -3 -13.5t-5 -7.5q-10 -10 -35.5 -24.5t-60.5 -48.5q-37 -37 -58.5 -80t-21.5 -84q0 -53 37 -101.5t119 -68.5q14 6 24 13t16 13 q49 49 30 122t89 181q59 59 176 99.5t199 40.5q57 0 91 -30t34 -83q0 -150 -176 -275.5t-365 -125.5q-20 0 -37.5 1t-33.5 3q-8 -8 -16.5 -17.5t-16.5 -17.5q-76 -76 -308.5 -194.5t-232.5 -321.5q0 -23 3 -43.5t7 -36.5q29 51 72 107.5t96 109.5q63 63 180 138t224 75 q76 0 111.5 -39t35.5 -110q0 -141 -169 -292t-365 -151q-39 0 -75 10.5t-62 26.5q-10 -35 -15.5 -61.5t-5.5 -36.5q0 -51 11.5 -87t25.5 -50q10 -10 21.5 -12.5t33.5 5.5q2 -2 1 -6t-5 -8q-14 -14 -59 -13t-80 34q-25 20 -37 57t-12 82zM377 -2q20 -14 46 -20.5t52 -6.5 q178 0 347 142.5t169 267.5q0 37 -15 72.5t-77 35.5q-80 0 -168 -59t-172 -143q-72 -72 -116 -149t-66 -140zM901 743q12 -2 24.5 -2h26.5q158 0 333 124t175 247q0 31 -14 54.5t-45 23.5q-45 0 -170 -65.5t-184 -125.5q-98 -98 -99.5 -144t-46.5 -112zM1309 1438 q0 45 17 90t50 84q31 -12 40 -34t9 -36q0 -45 -23.5 -65.5t-23.5 -79.5q0 -49 18.5 -78t33.5 -43q8 -8 13 -11t5 -8q0 -2 -2 -4t-4 -2q-14 0 -38 11.5t-40 27.5q-25 25 -40 60.5t-15 87.5z" />
<glyph unicode="&#xc9;" horiz-adv-x="1028" d="M244 -137q0 35 12 79t37 95q-20 33 -30.5 76t-10.5 90q0 240 207 355.5t336 176.5q-78 29 -116 83t-38 112q0 94 75 165.5t146 88.5q0 -8 -3 -13.5t-5 -7.5q-10 -10 -35.5 -24.5t-60.5 -48.5q-37 -37 -58.5 -80t-21.5 -84q0 -53 37 -101.5t119 -68.5q14 6 24 13t16 13 q49 49 30 122t89 181q59 59 176 99.5t199 40.5q57 0 91 -30t34 -83q0 -150 -176 -275.5t-365 -125.5q-20 0 -37.5 1t-33.5 3q-8 -8 -16.5 -17.5t-16.5 -17.5q-76 -76 -308.5 -194.5t-232.5 -321.5q0 -23 3 -43.5t7 -36.5q29 51 72 107.5t96 109.5q63 63 180 138t224 75 q76 0 111.5 -39t35.5 -110q0 -141 -169 -292t-365 -151q-39 0 -75 10.5t-62 26.5q-10 -35 -15.5 -61.5t-5.5 -36.5q0 -51 11.5 -87t25.5 -50q10 -10 21.5 -12.5t33.5 5.5q2 -2 1 -6t-5 -8q-14 -14 -59 -13t-80 34q-25 20 -37 57t-12 82zM377 -2q20 -14 46 -20.5t52 -6.5 q178 0 347 142.5t169 267.5q0 37 -15 72.5t-77 35.5q-80 0 -168 -59t-172 -143q-72 -72 -116 -149t-66 -140zM901 743q12 -2 24.5 -2h26.5q158 0 333 124t175 247q0 31 -14 54.5t-45 23.5q-45 0 -170 -65.5t-184 -125.5q-98 -98 -99.5 -144t-46.5 -112zM1362 1259.5 q-2 6.5 0 8.5q2 6 32.5 29.5t88.5 80.5q45 45 102 122t94 173q31 -12 40.5 -33.5t9.5 -35.5q0 -51 -90.5 -151.5t-270.5 -201.5q-4 2 -6 8.5z" />
<glyph unicode="&#xca;" horiz-adv-x="1028" d="M244 -137q0 35 12 79t37 95q-20 33 -30.5 76t-10.5 90q0 240 207 355.5t336 176.5q-78 29 -116 83t-38 112q0 94 75 165.5t146 88.5q0 -8 -3 -13.5t-5 -7.5q-10 -10 -35.5 -24.5t-60.5 -48.5q-37 -37 -58.5 -80t-21.5 -84q0 -53 37 -101.5t119 -68.5q14 6 24 13t16 13 q49 49 30 122t89 181q59 59 176 99.5t199 40.5q57 0 91 -30t34 -83q0 -150 -176 -275.5t-365 -125.5q-20 0 -37.5 1t-33.5 3q-8 -8 -16.5 -17.5t-16.5 -17.5q-76 -76 -308.5 -194.5t-232.5 -321.5q0 -23 3 -43.5t7 -36.5q29 51 72 107.5t96 109.5q63 63 180 138t224 75 q76 0 111.5 -39t35.5 -110q0 -141 -169 -292t-365 -151q-39 0 -75 10.5t-62 26.5q-10 -35 -15.5 -61.5t-5.5 -36.5q0 -51 11.5 -87t25.5 -50q10 -10 21.5 -12.5t33.5 5.5q2 -2 1 -6t-5 -8q-14 -14 -59 -13t-80 34q-25 20 -37 57t-12 82zM377 -2q20 -14 46 -20.5t52 -6.5 q178 0 347 142.5t169 267.5q0 37 -15 72.5t-77 35.5q-80 0 -168 -59t-172 -143q-72 -72 -116 -149t-66 -140zM901 743q12 -2 24.5 -2h26.5q158 0 333 124t175 247q0 31 -14 54.5t-45 23.5q-45 0 -170 -65.5t-184 -125.5q-98 -98 -99.5 -144t-46.5 -112zM1155 1264 q0 8 142.5 88t277.5 219q25 -12 33 -33.5t8 -36.5q0 -27 -8.5 -49t-8.5 -63q0 -68 4.5 -93.5t4.5 -38.5q0 -2 -2 -4t-4 -2q-12 0 -39 47.5t-27 141.5v10q-59 -45 -164.5 -102.5t-210.5 -96.5q-2 2 -4 6.5t-2 6.5z" />
<glyph unicode="&#xcb;" horiz-adv-x="1028" d="M244 -137q0 35 12 79t37 95q-20 33 -30.5 76t-10.5 90q0 240 207 355.5t336 176.5q-78 29 -116 83t-38 112q0 94 75 165.5t146 88.5q0 -8 -3 -13.5t-5 -7.5q-10 -10 -35.5 -24.5t-60.5 -48.5q-37 -37 -58.5 -80t-21.5 -84q0 -53 37 -101.5t119 -68.5q14 6 24 13t16 13 q49 49 30 122t89 181q59 59 176 99.5t199 40.5q57 0 91 -30t34 -83q0 -150 -176 -275.5t-365 -125.5q-20 0 -37.5 1t-33.5 3q-8 -8 -16.5 -17.5t-16.5 -17.5q-76 -76 -308.5 -194.5t-232.5 -321.5q0 -23 3 -43.5t7 -36.5q29 51 72 107.5t96 109.5q63 63 180 138t224 75 q76 0 111.5 -39t35.5 -110q0 -141 -169 -292t-365 -151q-39 0 -75 10.5t-62 26.5q-10 -35 -15.5 -61.5t-5.5 -36.5q0 -51 11.5 -87t25.5 -50q10 -10 21.5 -12.5t33.5 5.5q2 -2 1 -6t-5 -8q-14 -14 -59 -13t-80 34q-25 20 -37 57t-12 82zM377 -2q20 -14 46 -20.5t52 -6.5 q178 0 347 142.5t169 267.5q0 37 -15 72.5t-77 35.5q-80 0 -168 -59t-172 -143q-72 -72 -116 -149t-66 -140zM901 743q12 -2 24.5 -2h26.5q158 0 333 124t175 247q0 31 -14 54.5t-45 23.5q-45 0 -170 -65.5t-184 -125.5q-98 -98 -99.5 -144t-46.5 -112zM1331 1325 q0 23 21.5 47.5t42.5 24.5q16 0 26.5 -10.5t10.5 -28.5q0 -25 -21.5 -48.5t-44.5 -23.5q-14 0 -24.5 10.5t-10.5 28.5zM1495 1325q0 23 21.5 47.5t42.5 24.5q14 0 25 -10.5t11 -28.5q0 -25 -21.5 -48.5t-43.5 -23.5q-16 0 -25.5 10.5t-9.5 28.5z" />
<glyph unicode="&#xcc;" horiz-adv-x="1185" d="M-10 197q0 111 92 207t231 96q98 0 158.5 -56.5t60.5 -140.5q0 -41 -17 -77t-38 -56q-27 -27 -49 -39t-37 -12q-6 0 -9 2t-3 6q0 6 13.5 14.5t23.5 18.5q23 23 39 55.5t16 71.5q0 76 -56.5 126t-135.5 50q-94 0 -175 -81t-81 -179q0 -70 55 -144.5t205 -74.5 q123 0 265 69.5t298 227.5q127 129 294 350t308 358q33 33 64.5 61.5t62.5 51.5q-135 -74 -262 -159t-168 -85q-8 0 -14.5 4t-14.5 10q-10 12 -16 36t-8 40q2 84 129 167t122 122q-2 2 -7 5t-15 3q-66 0 -227.5 -123t-302.5 -295q-2 2 -3.5 5.5t-3.5 5.5q2 8 14.5 25.5 t24.5 33.5q119 139 268.5 254t227.5 115q27 0 48.5 -19.5t21.5 -56.5q0 -59 -123 -160.5t-121 -142.5q51 0 302 169t390 169q25 0 31 -8.5t2 -16.5q-37 0 -94.5 -29.5t-139.5 -111.5q-127 -123 -325.5 -403.5t-370.5 -450.5q-129 -127 -288.5 -205t-327.5 -78 q-190 0 -262 100.5t-72 174.5zM1591 1438q0 45 17.5 90t50.5 84q31 -12 40 -34t9 -36q0 -45 -23.5 -65.5t-23.5 -79.5q0 -49 18.5 -78t32.5 -43q8 -8 13.5 -11t5.5 -8q0 -2 -2.5 -4t-4.5 -2q-14 0 -37.5 11.5t-39.5 27.5q-25 25 -40.5 60.5t-15.5 87.5z" />
<glyph unicode="&#xcd;" horiz-adv-x="1185" d="M-10 197q0 111 92 207t231 96q98 0 158.5 -56.5t60.5 -140.5q0 -41 -17 -77t-38 -56q-27 -27 -49 -39t-37 -12q-6 0 -9 2t-3 6q0 6 13.5 14.5t23.5 18.5q23 23 39 55.5t16 71.5q0 76 -56.5 126t-135.5 50q-94 0 -175 -81t-81 -179q0 -70 55 -144.5t205 -74.5 q123 0 265 69.5t298 227.5q127 129 294 350t308 358q33 33 64.5 61.5t62.5 51.5q-135 -74 -262 -159t-168 -85q-8 0 -14.5 4t-14.5 10q-10 12 -16 36t-8 40q2 84 129 167t122 122q-2 2 -7 5t-15 3q-66 0 -227.5 -123t-302.5 -295q-2 2 -3.5 5.5t-3.5 5.5q2 8 14.5 25.5 t24.5 33.5q119 139 268.5 254t227.5 115q27 0 48.5 -19.5t21.5 -56.5q0 -59 -123 -160.5t-121 -142.5q51 0 302 169t390 169q25 0 31 -8.5t2 -16.5q-37 0 -94.5 -29.5t-139.5 -111.5q-127 -123 -325.5 -403.5t-370.5 -450.5q-129 -127 -288.5 -205t-327.5 -78 q-190 0 -262 100.5t-72 174.5zM1690 1259.5q-2 6.5 0 8.5q2 6 32.5 29.5t87.5 80.5q45 45 102.5 122t94.5 173q31 -12 40 -33.5t9 -35.5q0 -51 -90 -151.5t-270 -201.5q-4 2 -6 8.5z" />
<glyph unicode="&#xce;" horiz-adv-x="1185" d="M-10 197q0 111 92 207t231 96q98 0 158.5 -56.5t60.5 -140.5q0 -41 -17 -77t-38 -56q-27 -27 -49 -39t-37 -12q-6 0 -9 2t-3 6q0 6 13.5 14.5t23.5 18.5q23 23 39 55.5t16 71.5q0 76 -56.5 126t-135.5 50q-94 0 -175 -81t-81 -179q0 -70 55 -144.5t205 -74.5 q123 0 265 69.5t298 227.5q127 129 294 350t308 358q33 33 64.5 61.5t62.5 51.5q-135 -74 -262 -159t-168 -85q-8 0 -14.5 4t-14.5 10q-10 12 -16 36t-8 40q2 84 129 167t122 122q-2 2 -7 5t-15 3q-66 0 -227.5 -123t-302.5 -295q-2 2 -3.5 5.5t-3.5 5.5q2 8 14.5 25.5 t24.5 33.5q119 139 268.5 254t227.5 115q27 0 48.5 -19.5t21.5 -56.5q0 -59 -123 -160.5t-121 -142.5q51 0 302 169t390 169q25 0 31 -8.5t2 -16.5q-37 0 -94.5 -29.5t-139.5 -111.5q-127 -123 -325.5 -403.5t-370.5 -450.5q-129 -127 -288.5 -205t-327.5 -78 q-190 0 -262 100.5t-72 174.5zM1477 1264q0 8 142 88t277 219q25 -12 33 -33.5t8 -36.5q0 -27 -8 -49t-8 -63q0 -68 4 -93.5t4 -38.5q0 -2 -2 -4t-4 -2q-12 0 -38.5 47.5t-26.5 141.5v10q-59 -45 -165 -102.5t-210 -96.5q-2 2 -4 6.5t-2 6.5z" />
<glyph unicode="&#xcf;" horiz-adv-x="1185" d="M-10 197q0 111 92 207t231 96q98 0 158.5 -56.5t60.5 -140.5q0 -41 -17 -77t-38 -56q-27 -27 -49 -39t-37 -12q-6 0 -9 2t-3 6q0 6 13.5 14.5t23.5 18.5q23 23 39 55.5t16 71.5q0 76 -56.5 126t-135.5 50q-94 0 -175 -81t-81 -179q0 -70 55 -144.5t205 -74.5 q123 0 265 69.5t298 227.5q127 129 294 350t308 358q33 33 64.5 61.5t62.5 51.5q-135 -74 -262 -159t-168 -85q-8 0 -14.5 4t-14.5 10q-10 12 -16 36t-8 40q2 84 129 167t122 122q-2 2 -7 5t-15 3q-66 0 -227.5 -123t-302.5 -295q-2 2 -3.5 5.5t-3.5 5.5q2 8 14.5 25.5 t24.5 33.5q119 139 268.5 254t227.5 115q27 0 48.5 -19.5t21.5 -56.5q0 -59 -123 -160.5t-121 -142.5q51 0 302 169t390 169q25 0 31 -8.5t2 -16.5q-37 0 -94.5 -29.5t-139.5 -111.5q-127 -123 -325.5 -403.5t-370.5 -450.5q-129 -127 -288.5 -205t-327.5 -78 q-190 0 -262 100.5t-72 174.5zM1704 1325q0 23 21.5 47.5t41.5 24.5q16 0 26.5 -10.5t10.5 -28.5q0 -25 -21.5 -48.5t-43.5 -23.5q-14 0 -24.5 10.5t-10.5 28.5zM1868 1325q0 23 21.5 47.5t41.5 24.5q14 0 25.5 -10.5t11.5 -28.5q0 -25 -21.5 -48.5t-43.5 -23.5 q-16 0 -25.5 10.5t-9.5 28.5z" />
<glyph unicode="&#xd0;" horiz-adv-x="1671" d="M6 66q0 51 44 72.5t102 21.5q100 0 234 -37t273 -76q57 37 123 94.5t148 139.5q20 20 42.5 43.5t45.5 50.5q-53 -8 -105.5 -13.5t-103.5 -5.5q-100 0 -182 64.5t-82 232.5q0 236 261 404t523 168q94 0 181 -31t155 -88q78 61 143.5 90t110.5 29q25 0 31 -8.5t2 -16.5 q-37 0 -91.5 -30.5t-136.5 -110.5l-8 -8q45 -55 70.5 -130t25.5 -165q0 -334 -249.5 -587t-532.5 -253q-63 0 -147 18.5t-174 45.5q-68 -27 -148 -42.5t-174 -15.5q-170 0 -275.5 39t-105.5 105zM37 63q0 -47 84 -72.5t225 -25.5q76 0 137.5 11.5t116.5 37.5 q-135 43 -257 81t-191 38q-51 0 -83 -18.5t-32 -51.5zM596 600q0 -94 55.5 -148.5t145.5 -54.5q66 0 133 11.5t135 23.5q113 135 237.5 294t229.5 263q29 29 56.5 54.5t53.5 46.5q-59 51 -139 79.5t-174 28.5q-229 0 -481 -186.5t-252 -411.5zM778 14q78 -20 154 -33.5 t139 -13.5q262 0 486.5 245t224.5 544q0 82 -22.5 150.5t-63.5 123.5q-88 -96 -209 -258t-244 -315q14 2 26.5 2h24.5q61 0 129 -16.5t99 -47.5q4 -4 6 -8t0 -10q-35 10 -89.5 21.5t-103.5 11.5q-33 0 -68.5 -3.5t-68.5 -5.5q-45 -55 -89 -105t-85 -91 q-57 -57 -117.5 -106.5t-128.5 -84.5z" />
<glyph unicode="&#xd1;" horiz-adv-x="1867" d="M76 174q-2 225 252 396t497 171q45 0 81 -9t67 -23q-2 -2 -7 -7.5t-10 -5.5q-12 0 -42.5 9.5t-88.5 9.5q-215 0 -450.5 -209t-233.5 -410q-2 -47 35 -91t135 -44q387 0 836.5 632t673.5 632q8 0 12 -4t4 -11q0 -6 -7 -13t-22 -17q-86 -70 -115.5 -191t-39.5 -231 q-20 -227 -72.5 -410.5t-144.5 -300.5q100 94 259.5 267t344.5 405q221 279 418.5 392.5t373.5 113.5q53 0 117 -19.5t100 -56.5q4 -4 6.5 -8t2.5 -8q0 -2 -2 -5.5t-4 -5.5q-55 37 -105.5 48.5t-114.5 11.5q-231 0 -447 -185.5t-376 -373.5q-391 -463 -533.5 -582 t-160.5 -119q-12 0 -17.5 4t-5.5 11q0 27 70 158.5t174 643.5q16 86 68.5 221.5t140.5 210.5q-213 -96 -618.5 -672.5t-804.5 -576.5q-94 0 -171 61.5t-75 190.5zM1923 1262q0 8 7 22t14 23q129 180 241.5 273t163.5 93q33 0 50.5 -21.5t17.5 -60.5q0 -80 -76 -161.5 t-74 -139.5q63 0 207.5 131t177.5 252q4 0 7 -4t3 -12q0 -84 -158.5 -242t-232.5 -158q-12 0 -18 5.5t-17 15.5q-8 8 -21 33.5t-13 48.5q0 74 98 158t74 127l-8 2q-7 2 -15 2q-43 0 -165 -101.5t-257 -296.5q-2 2 -4 5.5t-2 5.5z" />
<glyph unicode="&#xd2;" horiz-adv-x="1431" d="M338 655q0 225 260 397.5t514 170.5q45 2 82 -7.5t66 -25.5q0 -2 -5.5 -6t-11.5 -6q-10 2 -41 11t-90 7q-223 2 -476 -184.5t-253 -405.5q0 -45 29.5 -94t91.5 -70q147 293 503.5 538t563.5 245q53 0 82.5 -23.5t29.5 -79.5v-10q37 -20 52.5 -62t15.5 -87 q0 -147 -105.5 -306t-277.5 -331q-178 -178 -376.5 -291t-315.5 -113t-176.5 76t-59.5 205q0 51 13.5 106.5t40.5 110.5q-70 20 -113 78.5t-43 156.5zM496 164q0 -113 51 -150t115 -37q104 0 324 128t441 350q117 117 205 256t88 252q0 33 -10 66.5t-31 53.5 q-27 -123 -184.5 -279.5t-380.5 -264.5v-2q0 -51 11.5 -87t25.5 -51q10 -10 21.5 -12t33.5 6q2 -2 1 -6t-5 -8q-14 -14 -59 -13t-80 33q-18 14 -29.5 40t-15.5 57q-104 -41 -214 -65.5t-220 -24.5h-2q-39 -63 -62.5 -124t-23.5 -118zM598 430q104 2 209.5 26.5t206.5 65.5 v17q0 88 53 180t158 196q63 63 178 138t215 75q8 0 17.5 -1t17.5 -3q0 35 -15.5 50.5t-35.5 15.5q-96 0 -457 -244t-547 -516zM1116 569q217 111 368.5 263.5t166.5 267.5q-4 2 -10.5 3t-12.5 1q-70 0 -158 -59.5t-172 -143.5q-94 -94 -134 -186t-48 -146zM1513 1438 q0 45 17.5 90t50.5 84q31 -12 40 -34t9 -36q0 -45 -23.5 -65.5t-23.5 -79.5q0 -49 18.5 -78t32.5 -43q8 -8 13.5 -11t5.5 -8q0 -2 -2 -4t-4 -2q-14 0 -38 11.5t-40 27.5q-25 25 -40.5 60.5t-15.5 87.5z" />
<glyph unicode="&#xd3;" horiz-adv-x="1431" d="M338 655q0 225 260 397.5t514 170.5q45 2 82 -7.5t66 -25.5q0 -2 -5.5 -6t-11.5 -6q-10 2 -41 11t-90 7q-223 2 -476 -184.5t-253 -405.5q0 -45 29.5 -94t91.5 -70q147 293 503.5 538t563.5 245q53 0 82.5 -23.5t29.5 -79.5v-10q37 -20 52.5 -62t15.5 -87 q0 -147 -105.5 -306t-277.5 -331q-178 -178 -376.5 -291t-315.5 -113t-176.5 76t-59.5 205q0 51 13.5 106.5t40.5 110.5q-70 20 -113 78.5t-43 156.5zM496 164q0 -113 51 -150t115 -37q104 0 324 128t441 350q117 117 205 256t88 252q0 33 -10 66.5t-31 53.5 q-27 -123 -184.5 -279.5t-380.5 -264.5v-2q0 -51 11.5 -87t25.5 -51q10 -10 21.5 -12t33.5 6q2 -2 1 -6t-5 -8q-14 -14 -59 -13t-80 33q-18 14 -29.5 40t-15.5 57q-104 -41 -214 -65.5t-220 -24.5h-2q-39 -63 -62.5 -124t-23.5 -118zM598 430q104 2 209.5 26.5t206.5 65.5 v17q0 88 53 180t158 196q63 63 178 138t215 75q8 0 17.5 -1t17.5 -3q0 35 -15.5 50.5t-35.5 15.5q-96 0 -457 -244t-547 -516zM1116 569q217 111 368.5 263.5t166.5 267.5q-4 2 -10.5 3t-12.5 1q-70 0 -158 -59.5t-172 -143.5q-94 -94 -134 -186t-48 -146zM1567 1259.5 q-2 6.5 0 8.5q2 6 32.5 29.5t88.5 80.5q45 45 102 122t94 173q31 -12 40 -33.5t9 -35.5q0 -51 -90 -151.5t-270 -201.5q-4 2 -6 8.5z" />
<glyph unicode="&#xd4;" horiz-adv-x="1431" d="M338 655q0 225 260 397.5t514 170.5q45 2 82 -7.5t66 -25.5q0 -2 -5.5 -6t-11.5 -6q-10 2 -41 11t-90 7q-223 2 -476 -184.5t-253 -405.5q0 -45 29.5 -94t91.5 -70q147 293 503.5 538t563.5 245q53 0 82.5 -23.5t29.5 -79.5v-10q37 -20 52.5 -62t15.5 -87 q0 -147 -105.5 -306t-277.5 -331q-178 -178 -376.5 -291t-315.5 -113t-176.5 76t-59.5 205q0 51 13.5 106.5t40.5 110.5q-70 20 -113 78.5t-43 156.5zM496 164q0 -113 51 -150t115 -37q104 0 324 128t441 350q117 117 205 256t88 252q0 33 -10 66.5t-31 53.5 q-27 -123 -184.5 -279.5t-380.5 -264.5v-2q0 -51 11.5 -87t25.5 -51q10 -10 21.5 -12t33.5 6q2 -2 1 -6t-5 -8q-14 -14 -59 -13t-80 33q-18 14 -29.5 40t-15.5 57q-104 -41 -214 -65.5t-220 -24.5h-2q-39 -63 -62.5 -124t-23.5 -118zM598 430q104 2 209.5 26.5t206.5 65.5 v17q0 88 53 180t158 196q63 63 178 138t215 75q8 0 17.5 -1t17.5 -3q0 35 -15.5 50.5t-35.5 15.5q-96 0 -457 -244t-547 -516zM1116 569q217 111 368.5 263.5t166.5 267.5q-4 2 -10.5 3t-12.5 1q-70 0 -158 -59.5t-172 -143.5q-94 -94 -134 -186t-48 -146zM1366 1264 q0 8 142.5 88t277.5 219q25 -12 33 -33.5t8 -36.5q0 -27 -8.5 -49t-8.5 -63q0 -68 4.5 -93.5t4.5 -38.5q0 -2 -2 -4t-5 -2q-12 0 -38.5 47.5t-26.5 141.5v10q-59 -45 -164.5 -102.5t-210.5 -96.5q-2 2 -4 6.5t-2 6.5z" />
<glyph unicode="&#xd5;" horiz-adv-x="1431" d="M338 655q0 225 260 397.5t514 170.5q45 2 82 -7.5t66 -25.5q0 -2 -5.5 -6t-11.5 -6q-10 2 -41 11t-90 7q-223 2 -476 -184.5t-253 -405.5q0 -45 29.5 -94t91.5 -70q147 293 503.5 538t563.5 245q53 0 82.5 -23.5t29.5 -79.5v-10q37 -20 52.5 -62t15.5 -87 q0 -147 -105.5 -306t-277.5 -331q-178 -178 -376.5 -291t-315.5 -113t-176.5 76t-59.5 205q0 51 13.5 106.5t40.5 110.5q-70 20 -113 78.5t-43 156.5zM496 164q0 -113 51 -150t115 -37q104 0 324 128t441 350q117 117 205 256t88 252q0 33 -10 66.5t-31 53.5 q-27 -123 -184.5 -279.5t-380.5 -264.5v-2q0 -51 11.5 -87t25.5 -51q10 -10 21.5 -12t33.5 6q2 -2 1 -6t-5 -8q-14 -14 -59 -13t-80 33q-18 14 -29.5 40t-15.5 57q-104 -41 -214 -65.5t-220 -24.5h-2q-39 -63 -62.5 -124t-23.5 -118zM598 430q104 2 209.5 26.5t206.5 65.5 v17q0 88 53 180t158 196q63 63 178 138t215 75q8 0 17.5 -1t17.5 -3q0 35 -15.5 50.5t-35.5 15.5q-96 0 -457 -244t-547 -516zM1116 569q217 111 368.5 263.5t166.5 267.5q-4 2 -10.5 3t-12.5 1q-70 0 -158 -59.5t-172 -143.5q-94 -94 -134 -186t-48 -146zM1446 1262 q0 8 7 22t13 23q129 180 242 273t164 93q33 0 50 -21.5t17 -60.5q0 -80 -75.5 -161.5t-73.5 -139.5q63 0 207.5 131t177.5 252q4 0 7 -4t3 -12q0 -84 -158.5 -242t-232.5 -158q-12 0 -18.5 5.5t-16.5 15.5q-8 8 -21.5 33.5t-13.5 48.5q0 74 98.5 158t73.5 127l-7 2t-15 2 q-43 0 -165 -101.5t-257 -296.5q-2 2 -4 5.5t-2 5.5z" />
<glyph unicode="&#xd6;" horiz-adv-x="1431" d="M338 655q0 225 260 397.5t514 170.5q45 2 82 -7.5t66 -25.5q0 -2 -5.5 -6t-11.5 -6q-10 2 -41 11t-90 7q-223 2 -476 -184.5t-253 -405.5q0 -45 29.5 -94t91.5 -70q147 293 503.5 538t563.5 245q53 0 82.5 -23.5t29.5 -79.5v-10q37 -20 52.5 -62t15.5 -87 q0 -147 -105.5 -306t-277.5 -331q-178 -178 -376.5 -291t-315.5 -113t-176.5 76t-59.5 205q0 51 13.5 106.5t40.5 110.5q-70 20 -113 78.5t-43 156.5zM496 164q0 -113 51 -150t115 -37q104 0 324 128t441 350q117 117 205 256t88 252q0 33 -10 66.5t-31 53.5 q-27 -123 -184.5 -279.5t-380.5 -264.5v-2q0 -51 11.5 -87t25.5 -51q10 -10 21.5 -12t33.5 6q2 -2 1 -6t-5 -8q-14 -14 -59 -13t-80 33q-18 14 -29.5 40t-15.5 57q-104 -41 -214 -65.5t-220 -24.5h-2q-39 -63 -62.5 -124t-23.5 -118zM598 430q104 2 209.5 26.5t206.5 65.5 v17q0 88 53 180t158 196q63 63 178 138t215 75q8 0 17.5 -1t17.5 -3q0 35 -15.5 50.5t-35.5 15.5q-96 0 -457 -244t-547 -516zM1116 569q217 111 368.5 263.5t166.5 267.5q-4 2 -10.5 3t-12.5 1q-70 0 -158 -59.5t-172 -143.5q-94 -94 -134 -186t-48 -146zM1546 1325 q0 23 21.5 47.5t42.5 24.5q16 0 26.5 -10.5t10.5 -28.5q0 -25 -21.5 -48.5t-44.5 -23.5q-14 0 -24.5 10.5t-10.5 28.5zM1710 1325q0 23 21.5 47.5t42.5 24.5q14 0 25 -10.5t11 -28.5q0 -25 -21.5 -48.5t-43.5 -23.5q-16 0 -25.5 10.5t-9.5 28.5z" />
<glyph unicode="&#xd7;" horiz-adv-x="616" d="M176 272q-4 10 10.5 35t120.5 88l127 78q-10 27 -22.5 59.5t-28.5 77.5q-8 25 -2 36t14 13q18 -47 34.5 -89t31.5 -81l276 168q8 -12 -11 -34.5t-124 -90.5l-127 -77q10 -33 23.5 -69t27.5 -75q8 -18 -1 -26.5t-13 -10.5q-20 55 -35.5 93.5t-27.5 70.5z" />
<glyph unicode="&#xd8;" horiz-adv-x="1431" d="M338 655q0 225 260 397.5t514 170.5q45 2 82 -7.5t66 -25.5q0 -2 -5.5 -6t-11.5 -6q-10 2 -41 11t-90 7q-223 2 -476 -184.5t-253 -405.5q0 -45 29.5 -94t91.5 -70q147 293 503.5 538t563.5 245h16t17 -2l61 84q8 -8 6 -24.5t-37 -70.5q25 -10 37 -32.5t12 -57.5v-10 q37 -20 52.5 -62t15.5 -87q0 -147 -105.5 -306t-277.5 -331t-361.5 -283t-308.5 -121l-104 -141q-12 8 -9 31.5t66 109.5q-104 8 -157.5 83t-53.5 198q0 51 13.5 106.5t40.5 110.5q-70 20 -113 78.5t-43 156.5zM496 164q0 -113 51 -150t115 -37h15t15 3l340 462 q-4 12 -8 25.5t-6 28.5q-104 -41 -214 -65.5t-220 -24.5h-2q-39 -63 -62.5 -124t-23.5 -118zM598 430q104 2 209.5 26.5t206.5 65.5v17q0 88 53 180t158 196q49 49 131 107.5t166 87.5l55 76q-127 -27 -464 -262.5t-515 -493.5zM748 -6q123 37 309 156.5t370 304.5 q117 117 205 256t88 252q0 33 -10 66.5t-31 53.5q-25 -115 -167 -262t-347 -256l-49 -67q2 -35 12.5 -60.5t22.5 -38.5q10 -10 21.5 -12t33.5 6q2 -2 1 -6t-5 -8q-14 -14 -59 -13t-80 33q-2 2 -5 5.5t-5 5.5zM1116 569q2 2 7 3t7 3l345 472q-43 -27 -88.5 -65t-88.5 -81 q-94 -94 -134 -186t-48 -146zM1204 616q184 111 308 246t139 238q-4 2 -10.5 3t-12.5 1q-20 0 -41.5 -5t-42.5 -16zM1573 1124q12 2 23.5 3t21.5 1q8 0 17.5 -1t17.5 -3q-2 27 -11.5 42.5t-23.5 19.5q-8 -8 -16.5 -20.5t-16.5 -24.5z" />
<glyph unicode="&#xd9;" horiz-adv-x="1398" d="M266 672q0 176 228.5 364.5t480.5 188.5q143 0 193.5 -47.5t50.5 -122.5q0 -164 -362.5 -517.5t-362.5 -525.5q0 -20 10 -30.5t28 -10.5q82 0 239 107.5t368 318.5q18 18 37.5 39t40.5 41q63 82 149 175t193 200q143 143 257.5 241.5t125.5 98.5q6 0 7 -2t1 -8 q0 -16 -408.5 -459.5t-408.5 -663.5q0 -29 10 -41t18 -12q82 0 226.5 125t207.5 205q2 -2 3 -6t4 -6q-2 -33 -175.5 -194t-259.5 -161q-53 0 -82.5 45t-29.5 115q0 51 20.5 109.5t59.5 121.5q-16 -18 -34 -35.5t-32 -31.5q-166 -166 -298 -268.5t-232 -102.5q-53 0 -83 47 t-30 113q0 240 372.5 551t372.5 467q0 45 -45 72.5t-151 27.5q-244 0 -461 -183t-217 -345q0 -55 24.5 -87t77.5 -32q158 0 291 164t164 274l5 5t5 3t4 -4t2 -8q0 -152 -134 -320.5t-285 -168.5q-88 0 -136.5 50t-48.5 124zM1464 1438q0 45 17.5 90t50.5 84q31 -12 40 -34 t9 -36q0 -45 -23.5 -65.5t-23.5 -79.5q0 -49 18.5 -78t32.5 -43q8 -8 13.5 -11t5.5 -8q0 -2 -2.5 -4t-4.5 -2q-14 0 -37.5 11.5t-39.5 27.5q-25 25 -40.5 60.5t-15.5 87.5z" />
<glyph unicode="&#xda;" horiz-adv-x="1398" d="M266 672q0 176 228.5 364.5t480.5 188.5q143 0 193.5 -47.5t50.5 -122.5q0 -164 -362.5 -517.5t-362.5 -525.5q0 -20 10 -30.5t28 -10.5q82 0 239 107.5t368 318.5q18 18 37.5 39t40.5 41q63 82 149 175t193 200q143 143 257.5 241.5t125.5 98.5q6 0 7 -2t1 -8 q0 -16 -408.5 -459.5t-408.5 -663.5q0 -29 10 -41t18 -12q82 0 226.5 125t207.5 205q2 -2 3 -6t4 -6q-2 -33 -175.5 -194t-259.5 -161q-53 0 -82.5 45t-29.5 115q0 51 20.5 109.5t59.5 121.5q-16 -18 -34 -35.5t-32 -31.5q-166 -166 -298 -268.5t-232 -102.5q-53 0 -83 47 t-30 113q0 240 372.5 551t372.5 467q0 45 -45 72.5t-151 27.5q-244 0 -461 -183t-217 -345q0 -55 24.5 -87t77.5 -32q158 0 291 164t164 274l5 5t5 3t4 -4t2 -8q0 -152 -134 -320.5t-285 -168.5q-88 0 -136.5 50t-48.5 124zM1550 1259.5q-2 6.5 0 8.5q2 6 33 29.5t88 80.5 q45 45 102.5 122t94.5 173q31 -12 40 -33.5t9 -35.5q0 -51 -90 -151.5t-271 -201.5q-4 2 -6 8.5z" />
<glyph unicode="&#xdb;" horiz-adv-x="1398" d="M266 672q0 176 228.5 364.5t480.5 188.5q143 0 193.5 -47.5t50.5 -122.5q0 -164 -362.5 -517.5t-362.5 -525.5q0 -20 10 -30.5t28 -10.5q82 0 239 107.5t368 318.5q18 18 37.5 39t40.5 41q63 82 149 175t193 200q143 143 257.5 241.5t125.5 98.5q6 0 7 -2t1 -8 q0 -16 -408.5 -459.5t-408.5 -663.5q0 -29 10 -41t18 -12q82 0 226.5 125t207.5 205q2 -2 3 -6t4 -6q-2 -33 -175.5 -194t-259.5 -161q-53 0 -82.5 45t-29.5 115q0 51 20.5 109.5t59.5 121.5q-16 -18 -34 -35.5t-32 -31.5q-166 -166 -298 -268.5t-232 -102.5q-53 0 -83 47 t-30 113q0 240 372.5 551t372.5 467q0 45 -45 72.5t-151 27.5q-244 0 -461 -183t-217 -345q0 -55 24.5 -87t77.5 -32q158 0 291 164t164 274l5 5t5 3t4 -4t2 -8q0 -152 -134 -320.5t-285 -168.5q-88 0 -136.5 50t-48.5 124zM1362 1264q0 8 142.5 88t277.5 219 q25 -12 33 -33.5t8 -36.5q0 -27 -8.5 -49t-8.5 -63q0 -68 4.5 -93.5t4.5 -38.5q0 -2 -2.5 -4t-4.5 -2q-12 0 -38.5 47.5t-26.5 141.5v10q-59 -45 -164.5 -102.5t-210.5 -96.5q-2 2 -4 6.5t-2 6.5z" />
<glyph unicode="&#xdc;" horiz-adv-x="1398" d="M266 672q0 176 228.5 364.5t480.5 188.5q143 0 193.5 -47.5t50.5 -122.5q0 -164 -362.5 -517.5t-362.5 -525.5q0 -20 10 -30.5t28 -10.5q82 0 239 107.5t368 318.5q18 18 37.5 39t40.5 41q63 82 149 175t193 200q143 143 257.5 241.5t125.5 98.5q6 0 7 -2t1 -8 q0 -16 -408.5 -459.5t-408.5 -663.5q0 -29 10 -41t18 -12q82 0 226.5 125t207.5 205q2 -2 3 -6t4 -6q-2 -33 -175.5 -194t-259.5 -161q-53 0 -82.5 45t-29.5 115q0 51 20.5 109.5t59.5 121.5q-16 -18 -34 -35.5t-32 -31.5q-166 -166 -298 -268.5t-232 -102.5q-53 0 -83 47 t-30 113q0 240 372.5 551t372.5 467q0 45 -45 72.5t-151 27.5q-244 0 -461 -183t-217 -345q0 -55 24.5 -87t77.5 -32q158 0 291 164t164 274l5 5t5 3t4 -4t2 -8q0 -152 -134 -320.5t-285 -168.5q-88 0 -136.5 50t-48.5 124zM1532 1325q0 23 21.5 47.5t41.5 24.5 q16 0 26.5 -10.5t10.5 -28.5q0 -25 -21.5 -48.5t-43.5 -23.5q-14 0 -24.5 10.5t-10.5 28.5zM1696 1325q0 23 21.5 47.5t41.5 24.5q14 0 25.5 -10.5t11.5 -28.5q0 -25 -21.5 -48.5t-43.5 -23.5q-16 0 -25.5 10.5t-9.5 28.5z" />
<glyph unicode="&#xdd;" horiz-adv-x="1318" d="M-473 -432q0 131 108.5 252t286.5 121q123 0 197 -69t74 -171q0 -51 -21.5 -94t-48.5 -70q-33 -33 -60.5 -48t-44.5 -15q-8 0 -11 3t-3 7q0 8 15.5 17.5t29.5 23.5q27 27 47.5 67.5t20.5 88.5q0 94 -71 152t-171 58q-117 0 -214 -100t-97 -217q0 -109 75.5 -201 t256.5 -92q287 0 538.5 249t646.5 734q10 14 21.5 26.5t21.5 26.5l-24 -24q-166 -166 -309.5 -268.5t-241.5 -102.5q-59 0 -91 47t-32 113q0 240 372.5 551t372.5 467q0 45 -45 72.5t-151 27.5q-244 0 -461 -183t-217 -345q0 -55 24.5 -87t77.5 -32q158 0 291 164t164 274 l5 5t5 3t4 -4t2 -8q0 -152 -134 -320.5t-285 -168.5q-88 0 -136.5 50t-48.5 124q0 176 228.5 364.5t480.5 188.5q141 0 192.5 -47.5t51.5 -122.5q0 -164 -362.5 -517.5t-362.5 -525.5q0 -20 12 -30.5t37 -10.5q82 0 250 107.5t378 318.5q29 29 61 62t64 65q55 61 130 141 t182 187q143 143 257.5 241.5t125.5 98.5q6 0 7 -2t1 -8q0 -14 -218 -237.5t-759 -905.5q-240 -303 -506 -559t-592 -256q-197 0 -297 105.5t-100 238.5zM1591 1259.5q-2 6.5 0 8.5q2 6 33 29.5t88 80.5q45 45 102.5 122t94.5 173q31 -12 40 -33.5t9 -35.5q0 -51 -90 -151.5 t-271 -201.5q-4 2 -6 8.5z" />
<glyph unicode="&#xde;" horiz-adv-x="1320" d="M-510 -596q0 340 498.5 776t935.5 457q20 27 42.5 55.5t43.5 55.5q-63 31 -94 80t-31 102q0 94 74.5 165.5t146.5 88.5q0 -8 -3 -13.5t-5 -7.5q-10 -10 -36 -24.5t-61 -48.5q-37 -37 -58 -80t-21 -84q0 -45 25.5 -86t80.5 -68q47 59 96.5 114.5t96.5 102.5 q125 125 228 180.5t163 55.5q57 0 91 -28t34 -85q0 -150 -176.5 -275.5t-364.5 -125.5q-18 0 -36.5 1t-33.5 3q-16 -23 -33.5 -46.5t-33.5 -45.5q92 -27 149.5 -106t57.5 -222q0 -172 -152.5 -334t-304.5 -162q-45 0 -78 13.5t-53 33.5q-4 4 -7 10.5t-3 10.5q0 2 2 7t6 7 q10 -8 29.5 -17t52.5 -9q94 0 269 153.5t175 362.5q0 90 -43 148.5t-117 80.5q-219 -309 -441 -648t-413 -527q-88 -88 -217 -160t-264 -72q-100 0 -158.5 55.5t-58.5 155.5zM-477 -596q0 -70 33.5 -109.5t105.5 -39.5q104 0 211 63.5t223 179.5q168 172 378 492.5 t429 619.5q-420 -29 -900 -463t-480 -743zM1147 743q12 -2 24.5 -2h24.5q158 0 333 124t175 247q0 33 -17.5 59.5t-50.5 26.5q-37 0 -93 -31.5t-132 -107.5q-63 -63 -130 -143t-134 -173z" />
<glyph unicode="&#xdf;" horiz-adv-x="702" d="M-420 -526q0 35 127 230.5t461 660.5q102 143 239.5 331.5t145.5 264.5q29 -14 36 -39t7 -39q0 -33 -19.5 -77t-78.5 -126v-14q27 31 63.5 69.5t75.5 77.5q86 86 170 144.5t154 58.5q27 0 50 -22.5t23 -59.5q0 -25 -12 -56.5t-39 -58.5q-80 -80 -168 -93t-125 -50 q-115 -115 -35 -285t-59 -309q-37 -37 -86 -59.5t-107 -22.5q-49 0 -96 41t-47 115q0 37 16.5 67.5t51.5 65.5q14 14 40.5 28.5t41.5 14.5q14 0 24 -4t10 -13q0 -8 -7 -17t-11 -13q-25 -25 -60.5 -85.5t-35.5 -90.5q0 -39 25.5 -61.5t64.5 -24.5q16 6 32.5 16t30.5 24 q117 117 73 298.5t87 312.5q70 70 127 84t152 108q33 33 49 61.5t14 59.5l-9 2t-13 2q-57 0 -140.5 -58.5t-171.5 -146.5q-115 -115 -208 -228.5t-261 -344.5q-287 -395 -406.5 -589.5t-140.5 -244.5q-31 6 -43 38t-12 57z" />
<glyph unicode="&#xe0;" d="M35 123q0 113 165 279.5t294 168.5q53 -20 70.5 -41.5t17.5 -42.5v-13t-2 -15q20 27 32.5 49t14.5 35q35 -14 41 -36t6 -42q0 -49 -129 -202.5t-127 -229.5q74 0 203 112.5t186 184.5q2 -2 4 -5t2 -6q0 -31 -156.5 -175t-234.5 -144q-10 0 -22.5 5t-22.5 15 q-14 14 -20.5 34t-6.5 44q0 14 5 30.5t14 35.5q-70 -63 -143.5 -113.5t-106.5 -50.5q-39 0 -61.5 30.5t-22.5 92.5zM94 49q2 -8 9.5 -11t15.5 -3q29 0 104.5 51t143.5 119q23 23 50 55.5t56 67.5t53.5 78t24.5 81q0 14 -2 20.5t-6 14.5q-94 -10 -267.5 -188t-181.5 -285z M547 821q0 45 17.5 90t49.5 84q31 -12 40.5 -33.5t9.5 -35.5q0 -45 -24 -65.5t-24 -80.5q0 -49 18.5 -77.5t33.5 -43.5q8 -8 13 -11t5 -7q0 -2 -2 -4t-4 -2q-14 0 -38 11t-40 28q-25 25 -40 60.5t-15 86.5z" />
<glyph unicode="&#xe1;" d="M35 123q0 113 165 279.5t294 168.5q53 -20 70.5 -41.5t17.5 -42.5v-13t-2 -15q20 27 32.5 49t14.5 35q35 -14 41 -36t6 -42q0 -49 -129 -202.5t-127 -229.5q74 0 203 112.5t186 184.5q2 -2 4 -5t2 -6q0 -31 -156.5 -175t-234.5 -144q-10 0 -22.5 5t-22.5 15 q-14 14 -20.5 34t-6.5 44q0 14 5 30.5t14 35.5q-70 -63 -143.5 -113.5t-106.5 -50.5q-39 0 -61.5 30.5t-22.5 92.5zM94 49q2 -8 9.5 -11t15.5 -3q29 0 104.5 51t143.5 119q23 23 50 55.5t56 67.5t53.5 78t24.5 81q0 14 -2 20.5t-6 14.5q-94 -10 -267.5 -188t-181.5 -285z M563 643q-2 6 0 8q2 6 33 30t88 81q45 45 102.5 122t94.5 173q31 -12 40 -34t9 -36q0 -51 -90 -151.5t-271 -200.5q-4 2 -6 8z" />
<glyph unicode="&#xe2;" d="M35 123q0 113 165 279.5t294 168.5q53 -20 70.5 -41.5t17.5 -42.5v-13t-2 -15q20 27 32.5 49t14.5 35q35 -14 41 -36t6 -42q0 -49 -129 -202.5t-127 -229.5q74 0 203 112.5t186 184.5q2 -2 4 -5t2 -6q0 -31 -156.5 -175t-234.5 -144q-10 0 -22.5 5t-22.5 15 q-14 14 -20.5 34t-6.5 44q0 14 5 30.5t14 35.5q-70 -63 -143.5 -113.5t-106.5 -50.5q-39 0 -61.5 30.5t-22.5 92.5zM94 49q2 -8 9.5 -11t15.5 -3q29 0 104.5 51t143.5 119q23 23 50 55.5t56 67.5t53.5 78t24.5 81q0 14 -2 20.5t-6 14.5q-94 -10 -267.5 -188t-181.5 -285z M387 647q0 8 142.5 88t277.5 219q25 -12 33 -33.5t8 -35.5q0 -27 -8.5 -49.5t-8.5 -63.5q0 -68 4.5 -93.5t4.5 -37.5q0 -2 -2 -4t-4 -2q-12 0 -39 47t-27 141v11q-59 -45 -164.5 -102.5t-210.5 -96.5q-2 2 -4 6t-2 6z" />
<glyph unicode="&#xe3;" d="M35 123q0 113 165 279.5t294 168.5q53 -20 70.5 -41.5t17.5 -42.5v-13t-2 -15q20 27 32.5 49t14.5 35q35 -14 41 -36t6 -42q0 -49 -129 -202.5t-127 -229.5q74 0 203 112.5t186 184.5q2 -2 4 -5t2 -6q0 -31 -156.5 -175t-234.5 -144q-10 0 -22.5 5t-22.5 15 q-14 14 -20.5 34t-6.5 44q0 14 5 30.5t14 35.5q-70 -63 -143.5 -113.5t-106.5 -50.5q-39 0 -61.5 30.5t-22.5 92.5zM94 49q2 -8 9.5 -11t15.5 -3q29 0 104.5 51t143.5 119q23 23 50 55.5t56 67.5t53.5 78t24.5 81q0 14 -2 20.5t-6 14.5q-94 -10 -267.5 -188t-181.5 -285z M383 645q0 8 7 22.5t13 22.5q129 180 242 273.5t164 93.5q33 0 50.5 -21.5t17.5 -60.5q0 -80 -76 -162t-74 -139q63 0 207.5 131t177.5 252q4 0 7 -4t3 -13q0 -84 -158.5 -241.5t-232.5 -157.5q-12 0 -18 5t-17 16q-8 8 -21 33.5t-13 47.5q0 74 98 158t74 127l-8 2 q-7 2 -15 2q-43 0 -165 -101.5t-257 -295.5q-2 2 -4 5t-2 5z" />
<glyph unicode="&#xe4;" d="M35 123q0 113 165 279.5t294 168.5q53 -20 70.5 -41.5t17.5 -42.5v-13t-2 -15q20 27 32.5 49t14.5 35q35 -14 41 -36t6 -42q0 -49 -129 -202.5t-127 -229.5q74 0 203 112.5t186 184.5q2 -2 4 -5t2 -6q0 -31 -156.5 -175t-234.5 -144q-10 0 -22.5 5t-22.5 15 q-14 14 -20.5 34t-6.5 44q0 14 5 30.5t14 35.5q-70 -63 -143.5 -113.5t-106.5 -50.5q-39 0 -61.5 30.5t-22.5 92.5zM94 49q2 -8 9.5 -11t15.5 -3q29 0 104.5 51t143.5 119q23 23 50 55.5t56 67.5t53.5 78t24.5 81q0 14 -2 20.5t-6 14.5q-94 -10 -267.5 -188t-181.5 -285z M569 709q0 23 21.5 47t42.5 24q16 0 26.5 -10t10.5 -29q0 -25 -21.5 -48t-44.5 -23q-14 0 -24.5 10t-10.5 29zM733 709q0 23 21.5 47t42.5 24q14 0 25.5 -10t11.5 -29q0 -25 -21.5 -48t-44.5 -23q-16 0 -25.5 10t-9.5 29z" />
<glyph unicode="&#xe5;" d="M35 123q0 113 165 279.5t294 168.5q53 -20 70.5 -41.5t17.5 -42.5v-13t-2 -15q20 27 32.5 49t14.5 35q35 -14 41 -36t6 -42q0 -49 -129 -202.5t-127 -229.5q74 0 203 112.5t186 184.5q2 -2 4 -5t2 -6q0 -31 -156.5 -175t-234.5 -144q-10 0 -22.5 5t-22.5 15 q-14 14 -20.5 34t-6.5 44q0 14 5 30.5t14 35.5q-70 -63 -143.5 -113.5t-106.5 -50.5q-39 0 -61.5 30.5t-22.5 92.5zM94 49q2 -8 9.5 -11t15.5 -3q29 0 104.5 51t143.5 119q23 23 50 55.5t56 67.5t53.5 78t24.5 81q0 14 -2 20.5t-6 14.5q-94 -10 -267.5 -188t-181.5 -285z M584 696q0 43 37.5 84t83.5 41q33 0 49 -19.5t16 -45.5q0 -45 -38 -85t-89 -40q-27 0 -43 18.5t-16 46.5zM608 696q0 -10 7.5 -25.5t27.5 -15.5q39 0 70.5 34t31.5 67q0 8 -7 24.5t-33 16.5q-35 0 -66 -34t-31 -67z" />
<glyph unicode="&#xe6;" horiz-adv-x="804" d="M35 143q0 92 165 259t294 169q53 -20 70.5 -41.5t17.5 -42.5v-12t-2 -12q20 27 31.5 47t13.5 33q20 -10 26 -28.5t8 -37.5q63 53 102.5 75.5t57.5 22.5q43 -14 62.5 -30.5t19.5 -48.5q0 -27 -22.5 -56.5t-49.5 -56.5q-49 -49 -118.5 -83t-120.5 -34h-19.5t-15.5 2 q-45 -59 -75.5 -117.5t-33.5 -103.5q4 -2 12.5 -5t18.5 -3q76 0 192.5 59.5t204.5 147.5q25 25 44.5 46t33.5 40q2 -2 4 -5t2 -5q0 -10 -25.5 -42t-66.5 -73q-86 -86 -200.5 -146.5t-173.5 -60.5q-51 0 -78 27.5t-27 103.5q0 14 4 31.5t12 36.5q-8 -6 -14 -13.5t-14 -15.5 q-76 -76 -153 -123t-107 -47q-37 0 -58.5 37t-21.5 106zM94 45q2 -2 10.5 -4t18.5 -2q20 0 89 40t142 114q33 33 61.5 66.5t57.5 68.5t53.5 78t24.5 81q0 14 -2 20.5t-6 14.5q-94 -10 -267.5 -188t-181.5 -289zM573 291h19q39 0 103.5 31.5t107.5 74.5q31 31 49 57.5 t18 41.5q0 14 -2 21t-4 9q-51 -4 -135 -74.5t-156 -160.5z" />
<glyph unicode="&#xe7;" horiz-adv-x="444" d="M-127 -147q0 2 2 4t4 2q4 0 10.5 -6.5l14.5 -14.5q16 -16 46 -30.5t75 -14.5q57 0 82.5 26.5t25.5 47.5q0 23 -12 32t-31 9q-33 0 -47 -9.5t-27 -9.5q-8 0 -10 3.5t-2 7.5q0 6 22.5 35.5t61.5 72.5q-27 10 -40 38t-13 75q0 127 150.5 290.5t285.5 163.5 q39 -14 58.5 -31.5t19.5 -56.5q0 -23 -16.5 -60.5t-51.5 -57.5q-14 12 -21 24.5t-7 22.5q4 25 25.5 48t35.5 32l2 4q0 10 -1 18t-3 10q-88 -10 -247 -188t-167 -293q2 -4 11.5 -8t25.5 -4q63 0 178 63.5t197 145.5q25 25 44 46t34 40q2 -2 4 -5t2 -6q0 -10 -25.5 -41.5 t-66.5 -72.5q-82 -82 -194.5 -143.5t-168.5 -61.5h-16q-16 -18 -32.5 -35.5t-27.5 -32.5q10 2 21.5 4.5t26.5 2.5q41 0 70.5 -21.5t29.5 -67.5q0 -41 -46 -69.5t-116 -28.5q-94 0 -135 43t-41 58z" />
<glyph unicode="&#xe8;" horiz-adv-x="454" d="M37 121q0 127 151.5 289.5t280.5 164.5q43 -14 62.5 -30.5t19.5 -48.5q0 -27 -22.5 -56.5t-49.5 -56.5q-49 -49 -118.5 -83t-120.5 -34h-18.5t-14.5 2q-45 -59 -76 -117.5t-33 -103.5q2 -4 11.5 -8t27.5 -4q70 0 184.5 61.5t202.5 149.5q25 25 44.5 46t33.5 40q2 -2 4 -5 t2 -5q0 -10 -25.5 -42t-66.5 -73q-86 -86 -200.5 -146.5t-174.5 -60.5q-51 0 -77.5 26.5t-26.5 94.5zM225 291h17q39 0 103.5 31.5t107.5 74.5q31 31 49 57.5t18 41.5q0 14 -2 21t-4 9q-51 -4 -135 -74.5t-154 -160.5zM467 821q0 45 17.5 90t50.5 84q31 -12 40 -33.5 t9 -35.5q0 -45 -23.5 -65.5t-23.5 -80.5q0 -49 18 -77.5t33 -43.5q8 -8 13 -11t5 -7q0 -2 -2 -4t-4 -2q-14 0 -37.5 11t-40.5 28q-25 25 -40 60.5t-15 86.5z" />
<glyph unicode="&#xe9;" horiz-adv-x="454" d="M37 121q0 127 151.5 289.5t280.5 164.5q43 -14 62.5 -30.5t19.5 -48.5q0 -27 -22.5 -56.5t-49.5 -56.5q-49 -49 -118.5 -83t-120.5 -34h-18.5t-14.5 2q-45 -59 -76 -117.5t-33 -103.5q2 -4 11.5 -8t27.5 -4q70 0 184.5 61.5t202.5 149.5q25 25 44.5 46t33.5 40q2 -2 4 -5 t2 -5q0 -10 -25.5 -42t-66.5 -73q-86 -86 -200.5 -146.5t-174.5 -60.5q-51 0 -77.5 26.5t-26.5 94.5zM225 291h17q39 0 103.5 31.5t107.5 74.5q31 31 49 57.5t18 41.5q0 14 -2 21t-4 9q-51 -4 -135 -74.5t-154 -160.5zM512 643q-2 6 0 8q2 6 32.5 30t88.5 81 q45 45 102.5 122t93.5 173q31 -12 40.5 -34t9.5 -36q0 -51 -90.5 -151.5t-270.5 -200.5q-4 2 -6 8z" />
<glyph unicode="&#xea;" horiz-adv-x="454" d="M37 121q0 127 151.5 289.5t280.5 164.5q43 -14 62.5 -30.5t19.5 -48.5q0 -27 -22.5 -56.5t-49.5 -56.5q-49 -49 -118.5 -83t-120.5 -34h-18.5t-14.5 2q-45 -59 -76 -117.5t-33 -103.5q2 -4 11.5 -8t27.5 -4q70 0 184.5 61.5t202.5 149.5q25 25 44.5 46t33.5 40q2 -2 4 -5 t2 -5q0 -10 -25.5 -42t-66.5 -73q-86 -86 -200.5 -146.5t-174.5 -60.5q-51 0 -77.5 26.5t-26.5 94.5zM225 291h17q39 0 103.5 31.5t107.5 74.5q31 31 49 57.5t18 41.5q0 14 -2 21t-4 9q-51 -4 -135 -74.5t-154 -160.5zM322 647q0 8 142 88t277 219q25 -12 33 -33.5t8 -35.5 q0 -27 -8 -49.5t-8 -63.5q0 -68 4 -93.5t4 -37.5q0 -2 -2 -4t-4 -2q-12 0 -39 47t-27 141v11q-59 -45 -164.5 -102.5t-209.5 -96.5q-2 2 -4 6t-2 6z" />
<glyph unicode="&#xeb;" horiz-adv-x="454" d="M37 121q0 127 151.5 289.5t280.5 164.5q43 -14 62.5 -30.5t19.5 -48.5q0 -27 -22.5 -56.5t-49.5 -56.5q-49 -49 -118.5 -83t-120.5 -34h-18.5t-14.5 2q-45 -59 -76 -117.5t-33 -103.5q2 -4 11.5 -8t27.5 -4q70 0 184.5 61.5t202.5 149.5q25 25 44.5 46t33.5 40q2 -2 4 -5 t2 -5q0 -10 -25.5 -42t-66.5 -73q-86 -86 -200.5 -146.5t-174.5 -60.5q-51 0 -77.5 26.5t-26.5 94.5zM225 291h17q39 0 103.5 31.5t107.5 74.5q31 31 49 57.5t18 41.5q0 14 -2 21t-4 9q-51 -4 -135 -74.5t-154 -160.5zM457 709q0 23 21.5 47t41.5 24q16 0 26.5 -10t10.5 -29 q0 -25 -21.5 -48t-43.5 -23q-14 0 -24.5 10t-10.5 29zM621 709q0 23 21.5 47t41.5 24q14 0 25.5 -10t11.5 -29q0 -25 -21.5 -48t-44.5 -23q-16 0 -25 10t-9 29z" />
<glyph unicode="&#xec;" horiz-adv-x="337" d="M18 104q0 88 85 187.5t198 263.5q35 -14 41 -35.5t6 -42.5q0 -57 -124 -203.5t-132 -240.5q74 0 203 112.5t186 184.5q2 -2 4 -5t2 -6q0 -31 -156.5 -175t-234.5 -144q-12 0 -22.5 5t-20.5 15q-8 8 -21.5 34t-13.5 50zM393 821q0 45 17.5 90t50.5 84q31 -12 40 -33.5 t9 -35.5q0 -45 -23.5 -65.5t-23.5 -80.5q0 -49 18.5 -77.5t32.5 -43.5q8 -8 13 -11t5 -7q0 -2 -2 -4t-4 -2q-14 0 -37.5 11t-39.5 28q-25 25 -40.5 60.5t-15.5 86.5z" />
<glyph unicode="&#xed;" horiz-adv-x="337" d="M18 104q0 88 85 187.5t198 263.5q35 -14 41 -35.5t6 -42.5q0 -57 -124 -203.5t-132 -240.5q74 0 203 112.5t186 184.5q2 -2 4 -5t2 -6q0 -31 -156.5 -175t-234.5 -144q-12 0 -22.5 5t-20.5 15q-8 8 -21.5 34t-13.5 50zM364.5 643q-2.5 6 0.5 8q2 6 32.5 30t87.5 81 q45 45 102.5 122t94.5 173q31 -12 40 -34t9 -36q0 -51 -90 -151.5t-270 -200.5q-4 2 -6.5 8z" />
<glyph unicode="&#xee;" horiz-adv-x="337" d="M18 104q0 88 85 187.5t198 263.5q35 -14 41 -35.5t6 -42.5q0 -57 -124 -203.5t-132 -240.5q74 0 203 112.5t186 184.5q2 -2 4 -5t2 -6q0 -31 -156.5 -175t-234.5 -144q-12 0 -22.5 5t-20.5 15q-8 8 -21.5 34t-13.5 50zM147 647q0 8 142.5 88t277.5 219q25 -12 33 -33.5 t8 -35.5q0 -27 -8 -49.5t-8 -63.5q0 -68 4 -93.5t4 -37.5q0 -2 -2 -4t-4 -2q-12 0 -39 47t-27 141v11q-59 -45 -164.5 -102.5t-209.5 -96.5q-2 2 -4.5 6t-2.5 6z" />
<glyph unicode="&#xef;" horiz-adv-x="337" d="M18 104q0 88 85 187.5t198 263.5q35 -14 41 -35.5t6 -42.5q0 -57 -124 -203.5t-132 -240.5q74 0 203 112.5t186 184.5q2 -2 4 -5t2 -6q0 -31 -156.5 -175t-234.5 -144q-12 0 -22.5 5t-20.5 15q-8 8 -21.5 34t-13.5 50zM330 713q0 23 21.5 47t41.5 24q16 0 26.5 -10 t10.5 -29q0 -25 -21.5 -48t-43.5 -23q-14 0 -24.5 10t-10.5 29zM494 713q0 23 21.5 47t41.5 24q14 0 25.5 -10t11.5 -29q0 -25 -21.5 -48t-44.5 -23q-16 0 -25 10t-9 29z" />
<glyph unicode="&#xf0;" horiz-adv-x="505" d="M33 119q0 121 141 287.5t270 168.5q14 -4 35 -18t33 -27l-4 -6q-2 2 -4 2h-4q-29 0 -77 -30.5t-106 -87.5q-82 -82 -151.5 -187.5t-73.5 -171.5q2 -4 8 -8t15 -4q27 0 78 31.5t102 83.5q141 141 216 296.5t89 321.5q-33 -8 -65.5 -14t-63.5 -13q-23 -4 -34 3.5t-15 27.5 q33 8 81 17.5t99 17.5v33q0 57 -9 110.5t-26 102.5q-10 29 -14 43t-4 16q0 6 5 8t7 4q39 -70 57.5 -149.5t20.5 -161.5q27 4 53.5 9t46.5 10q20 2 25.5 -6.5t7.5 -16.5q-33 -8 -66.5 -15.5t-66.5 -15.5q-2 -135 -62.5 -307t-214.5 -326q-84 -84 -150.5 -115.5t-98.5 -31.5 q-33 0 -56.5 33t-23.5 86z" />
<glyph unicode="&#xf1;" d="M-16 80q0 47 135 216t164 257q35 -14 42 -35.5t7 -42.5q0 -29 -34 -86t-81 -123l2 -8q16 18 34.5 37.5t39.5 40.5q104 111 186 173t135 62q27 0 50.5 -21.5t23.5 -60.5q0 -102 -138 -250.5t-136 -205.5q74 0 202.5 112.5t186.5 184.5q2 -2 4 -5t2 -6q0 -31 -156.5 -175 t-234.5 -144q-10 0 -22.5 5t-22.5 15q-16 16 -23.5 38t-7.5 44q0 96 161 247t136 194l-8 2q-8 2 -15 2q-39 0 -121.5 -63.5t-187.5 -172.5q-70 -72 -138.5 -153.5t-129.5 -159.5q-27 0 -41 24.5t-14 57.5zM346 645q0 8 7 22.5t14 22.5q129 180 241.5 273.5t163.5 93.5 q33 0 50.5 -21.5t17.5 -60.5q0 -80 -76 -162t-74 -139q63 0 207.5 131t177.5 252q4 0 7 -4t3 -13q0 -84 -158.5 -241.5t-232.5 -157.5q-12 0 -18 5t-17 16q-8 8 -21 33.5t-13 47.5q0 74 98 158t74 127l-7 2q-8 2 -16 2q-43 0 -165 -101.5t-257 -295.5q-2 2 -4 5t-2 5z" />
<glyph unicode="&#xf2;" horiz-adv-x="450" d="M33 119q0 121 141 287.5t270 168.5q55 -20 74 -42.5t19 -43.5q0 -68 -57.5 -164t-133.5 -171q-66 -66 -130 -110t-103 -44q-33 0 -56.5 33t-23.5 86zM94 49q2 -6 7 -9t14 -3q39 0 94 40t115 99q70 70 126 163t56 150q0 14 -3 22.5t-9 14.5q-88 -10 -240 -193t-160 -284z M526 821q0 45 17.5 90t50.5 84q31 -12 40 -33.5t9 -35.5q0 -45 -23.5 -65.5t-23.5 -80.5q0 -49 18.5 -77.5t32.5 -43.5q8 -8 13.5 -11t5.5 -7q0 -2 -2 -4t-5 -2q-14 0 -37.5 11t-39.5 28q-25 25 -40.5 60.5t-15.5 86.5z" />
<glyph unicode="&#xf3;" horiz-adv-x="450" d="M33 119q0 121 141 287.5t270 168.5q55 -20 74 -42.5t19 -43.5q0 -68 -57.5 -164t-133.5 -171q-66 -66 -130 -110t-103 -44q-33 0 -56.5 33t-23.5 86zM94 49q2 -6 7 -9t14 -3q39 0 94 40t115 99q70 70 126 163t56 150q0 14 -3 22.5t-9 14.5q-88 -10 -240 -193t-160 -284z M524 643q-2 6 0 8q2 6 33 30t88 81q45 45 102.5 122t94.5 173q31 -12 40 -34t9 -36q0 -51 -90 -151.5t-271 -200.5q-4 2 -6 8z" />
<glyph unicode="&#xf4;" horiz-adv-x="450" d="M33 119q0 121 141 287.5t270 168.5q55 -20 74 -42.5t19 -43.5q0 -68 -57.5 -164t-133.5 -171q-66 -66 -130 -110t-103 -44q-33 0 -56.5 33t-23.5 86zM94 49q2 -6 7 -9t14 -3q39 0 94 40t115 99q70 70 126 163t56 150q0 14 -3 22.5t-9 14.5q-88 -10 -240 -193t-160 -284z M266 647q0 8 142.5 88t277.5 219q25 -12 33 -33.5t8 -35.5q0 -27 -8 -49.5t-8 -63.5q0 -68 4 -93.5t4 -37.5q0 -2 -2 -4t-4 -2q-12 0 -39 47t-27 141v11q-59 -45 -164.5 -102.5t-210.5 -96.5q-2 2 -4 6t-2 6z" />
<glyph unicode="&#xf5;" horiz-adv-x="450" d="M33 119q0 121 141 287.5t270 168.5q55 -20 74 -42.5t19 -43.5q0 -68 -57.5 -164t-133.5 -171q-66 -66 -130 -110t-103 -44q-33 0 -56.5 33t-23.5 86zM94 49q2 -6 7 -9t14 -3q39 0 94 40t115 99q70 70 126 163t56 150q0 14 -3 22.5t-9 14.5q-88 -10 -240 -193t-160 -284z M289 645q0 8 7 22.5t13 22.5q129 180 242 273.5t164 93.5q33 0 50 -21.5t17 -60.5q0 -80 -75.5 -162t-73.5 -139q63 0 207.5 131t177.5 252q4 0 7 -4t3 -13q0 -84 -158.5 -241.5t-232.5 -157.5q-12 0 -18.5 5t-16.5 16q-8 8 -21.5 33.5t-13.5 47.5q0 74 98.5 158t73.5 127 l-7 2t-15 2q-43 0 -165 -101.5t-257 -295.5q-2 2 -4 5t-2 5z" />
<glyph unicode="&#xf6;" horiz-adv-x="450" d="M33 119q0 121 141 287.5t270 168.5q55 -20 74 -42.5t19 -43.5q0 -68 -57.5 -164t-133.5 -171q-66 -66 -130 -110t-103 -44q-33 0 -56.5 33t-23.5 86zM94 49q2 -6 7 -9t14 -3q39 0 94 40t115 99q70 70 126 163t56 150q0 14 -3 22.5t-9 14.5q-88 -10 -240 -193t-160 -284z M467 709q0 23 21.5 47t41.5 24q16 0 26.5 -10t10.5 -29q0 -25 -21.5 -48t-43.5 -23q-14 0 -24.5 10t-10.5 29zM631 709q0 23 21.5 47t41.5 24q14 0 25.5 -10t11.5 -29q0 -25 -21.5 -48t-43.5 -23q-16 0 -25.5 10t-9.5 29z" />
<glyph unicode="&#xf8;" horiz-adv-x="450" d="M33 119q0 121 141 287.5t270 168.5q14 -6 26.5 -11t21.5 -11l61 82q2 -2 -1 -20.5t-40 -75.5q14 -12 19.5 -24.5t5.5 -25.5q0 -68 -57.5 -164t-133.5 -171q-61 -61 -122.5 -104.5t-100.5 -49.5l-74 -100q-4 4 -1 22.5t44 81.5q-27 8 -43 39t-16 76zM94 49q2 -6 9.5 -6 t27.5 18l336 459q-94 -39 -229.5 -208t-143.5 -263zM156 47q35 14 79 49t89 80q70 70 126 163t56 150q0 10 -2 17.5t-6 13.5q-6 -12 -15.5 -24.5t-19.5 -26.5z" />
<glyph unicode="&#xf9;" horiz-adv-x="641" d="M25 102q0 90 85 190.5t197 264.5q35 -14 41 -35.5t6 -42.5q0 -57 -125 -204.5t-133 -241.5q63 0 171 103.5t169 178.5q39 49 85 108.5t97 133.5q35 -14 41.5 -35.5t6.5 -42.5q0 -57 -125 -204.5t-133 -241.5q74 0 202.5 112.5t186.5 184.5q2 -2 4 -5t2 -6 q0 -31 -157 -175t-234 -144q-10 0 -22.5 5t-22.5 15q-16 16 -23.5 38t-7.5 44q0 20 6 43t14 43q-63 -66 -138 -127t-118 -61q-10 0 -22 5t-23 15q-16 16 -23 38t-7 44zM457 821q0 45 17.5 90t49.5 84q31 -12 40 -33.5t9 -35.5q0 -45 -23.5 -65.5t-23.5 -80.5 q0 -49 18.5 -77.5t33.5 -43.5q8 -8 13 -11t5 -7q0 -2 -2 -4t-4 -2q-14 0 -38 11t-40 28q-25 25 -40 60.5t-15 86.5z" />
<glyph unicode="&#xfa;" horiz-adv-x="641" d="M25 102q0 90 85 190.5t197 264.5q35 -14 41 -35.5t6 -42.5q0 -57 -125 -204.5t-133 -241.5q63 0 171 103.5t169 178.5q39 49 85 108.5t97 133.5q35 -14 41.5 -35.5t6.5 -42.5q0 -57 -125 -204.5t-133 -241.5q74 0 202.5 112.5t186.5 184.5q2 -2 4 -5t2 -6 q0 -31 -157 -175t-234 -144q-10 0 -22.5 5t-22.5 15q-16 16 -23.5 38t-7.5 44q0 20 6 43t14 43q-63 -66 -138 -127t-118 -61q-10 0 -22 5t-23 15q-16 16 -23 38t-7 44zM506 643q-2 6 0 8q2 6 32.5 30t88.5 81q45 45 102 122t94 173q31 -12 40 -34t9 -36q0 -51 -90 -151.5 t-270 -200.5q-4 2 -6 8z" />
<glyph unicode="&#xfb;" horiz-adv-x="641" d="M25 102q0 90 85 190.5t197 264.5q35 -14 41 -35.5t6 -42.5q0 -57 -125 -204.5t-133 -241.5q63 0 171 103.5t169 178.5q39 49 85 108.5t97 133.5q35 -14 41.5 -35.5t6.5 -42.5q0 -57 -125 -204.5t-133 -241.5q74 0 202.5 112.5t186.5 184.5q2 -2 4 -5t2 -6 q0 -31 -157 -175t-234 -144q-10 0 -22.5 5t-22.5 15q-16 16 -23.5 38t-7.5 44q0 20 6 43t14 43q-63 -66 -138 -127t-118 -61q-10 0 -22 5t-23 15q-16 16 -23 38t-7 44zM307 647q0 8 142.5 88t277.5 219q25 -12 33 -33.5t8 -35.5q0 -27 -8 -49.5t-8 -63.5q0 -68 4 -93.5 t4 -37.5q0 -2 -2 -4t-4 -2q-12 0 -39 47t-27 141v11q-59 -45 -164.5 -102.5t-210.5 -96.5q-2 2 -4 6t-2 6z" />
<glyph unicode="&#xfc;" horiz-adv-x="641" d="M25 102q0 90 85 190.5t197 264.5q35 -14 41 -35.5t6 -42.5q0 -57 -125 -204.5t-133 -241.5q63 0 171 103.5t169 178.5q39 49 85 108.5t97 133.5q35 -14 41.5 -35.5t6.5 -42.5q0 -57 -125 -204.5t-133 -241.5q74 0 202.5 112.5t186.5 184.5q2 -2 4 -5t2 -6 q0 -31 -157 -175t-234 -144q-10 0 -22.5 5t-22.5 15q-16 16 -23.5 38t-7.5 44q0 20 6 43t14 43q-63 -66 -138 -127t-118 -61q-10 0 -22 5t-23 15q-16 16 -23 38t-7 44zM471 709q0 23 21.5 47t42.5 24q16 0 26 -10t10 -29q0 -25 -21.5 -48t-43.5 -23q-14 0 -24.5 10t-10.5 29 zM635 709q0 23 21.5 47t41.5 24q14 0 25.5 -10t11.5 -29q0 -25 -21.5 -48t-43.5 -23q-16 0 -25.5 10t-9.5 29z" />
<glyph unicode="&#xfd;" horiz-adv-x="581" d="M-516 -489q0 45 15.5 76.5t49.5 66.5q14 14 41 28.5t41 14.5t24.5 -4t10.5 -12t-7 -17.5t-11 -13.5q-25 -25 -61 -85.5t-36 -90.5q8 -43 25.5 -57.5t52.5 -14.5q113 0 297.5 205t309.5 389q35 51 65.5 96t56.5 84q-63 -63 -134.5 -119.5t-117.5 -56.5q-10 0 -22 5t-23 15 q-16 16 -23 38t-7 44q0 90 85 190.5t197 264.5q35 -14 41 -35.5t6 -42.5q0 -57 -124.5 -204.5t-133.5 -241.5q72 0 188 112.5t171 182.5q76 111 102.5 152.5t36.5 64.5q39 -14 45 -36t6 -42q0 -29 -68.5 -126t-334.5 -480q-94 -135 -267.5 -316.5t-330.5 -181.5 q-82 0 -124 51t-42 97zM512 643q-2 6 0 8q2 6 32.5 30t88.5 81q45 45 102.5 122t93.5 173q31 -12 40.5 -34t9.5 -36q0 -51 -90.5 -151.5t-270.5 -200.5q-4 2 -6 8z" />
<glyph unicode="&#xfe;" horiz-adv-x="638" d="M-422 -526q0 35 93 179t229 337q307 440 560 758.5t257 394.5q33 -12 46 -36t13 -42q0 -70 -216 -340t-345 -453v-14q27 31 53.5 58.5t50.5 52.5q96 96 173 149t131 53q27 0 50 -22.5t23 -59.5q0 -92 -152.5 -239.5t-150.5 -216.5q74 0 203 112.5t186 184.5q2 -2 4 -5 t2 -6q0 -31 -156.5 -175t-234.5 -144q-10 0 -22.5 5t-22.5 15q-18 18 -25.5 38t-7.5 46q0 94 168 237.5t160 201.5l-9 2t-13 2q-41 0 -116 -52.5t-175 -152.5q-98 -98 -179 -196.5t-231 -305.5q-86 -119 -178 -265t-113 -196q-31 6 -43 38t-12 57z" />
<glyph unicode="&#xff;" horiz-adv-x="581" d="M-516 -489q0 45 15.5 76.5t49.5 66.5q14 14 41 28.5t41 14.5t24.5 -4t10.5 -12t-7 -17.5t-11 -13.5q-25 -25 -61 -85.5t-36 -90.5q8 -43 25.5 -57.5t52.5 -14.5q113 0 297.5 205t309.5 389q35 51 65.5 96t56.5 84q-63 -63 -134.5 -119.5t-117.5 -56.5q-10 0 -22 5t-23 15 q-16 16 -23 38t-7 44q0 90 85 190.5t197 264.5q35 -14 41 -35.5t6 -42.5q0 -57 -124.5 -204.5t-133.5 -241.5q72 0 188 112.5t171 182.5q76 111 102.5 152.5t36.5 64.5q39 -14 45 -36t6 -42q0 -29 -68.5 -126t-334.5 -480q-94 -135 -267.5 -316.5t-330.5 -181.5 q-82 0 -124 51t-42 97zM471 709q0 23 21.5 47t42.5 24q16 0 26 -10t10 -29q0 -25 -21.5 -48t-43.5 -23q-14 0 -24.5 10t-10.5 29zM635 709q0 23 21.5 47t41.5 24q14 0 25.5 -10t11.5 -29q0 -25 -21.5 -48t-43.5 -23q-16 0 -25.5 10t-9.5 29z" />
<glyph unicode="&#x152;" horiz-adv-x="2109" d="M338 655q0 225 260 397.5t514 170.5q45 2 82 -7.5t66 -25.5q0 -2 -5.5 -6t-11.5 -6q-10 2 -41 11t-90 7q-223 2 -476 -184.5t-253 -405.5q0 -47 31.5 -96t95.5 -70q143 293 498.5 539t562.5 246q53 0 82.5 -23.5t29.5 -79.5v-8q33 -20 50.5 -63t17.5 -88 q0 -86 -37 -175.5t-104 -183.5q80 47 158.5 82t129.5 62q-41 27 -62 60.5t-21 57.5q0 8 3 16.5t7 10.5q8 -41 33.5 -76t68.5 -55q8 6 16.5 11t12.5 9q49 49 29.5 122t89.5 181q59 59 175.5 99.5t198.5 40.5q57 0 91 -30t34 -83q0 -150 -176 -275.5t-364 -125.5q-18 0 -37 2 t-33 6q-6 -8 -15.5 -18.5t-19.5 -20.5q-76 -76 -308 -194.5t-232 -321.5q0 -23 3 -43.5t7 -36.5q29 51 71.5 107.5t96.5 109.5q63 63 180 138t223 75q76 0 112 -39t36 -110q0 -141 -169 -292t-366 -151q-39 0 -74.5 7.5t-64.5 23.5q-10 -33 -14.5 -57.5t-4.5 -34.5 q0 -51 11.5 -87t25.5 -50q10 -10 21.5 -12.5t34.5 5.5q2 -2 1 -6t-6 -8q-14 -14 -59 -13t-80 34q-25 20 -37 57t-12 82q0 33 11.5 77t33.5 91q-14 31 -22.5 73.5t-8.5 98.5q0 29 4.5 56.5t12.5 53.5q-178 -174 -370.5 -282.5t-303.5 -108.5q-127 0 -181.5 76t-54.5 205 q0 51 13.5 105t38.5 110q-70 20 -115 78.5t-45 158.5zM496 164q0 -113 51 -150t115 -37q104 0 324 128t441 350q117 117 205 256t88 252q0 33 -10 66.5t-31 53.5q-27 -123 -184.5 -279.5t-380.5 -264.5v-2q0 -51 11.5 -87t25.5 -51q10 -10 21.5 -12t33.5 6q2 -2 1 -6t-5 -8 q-14 -14 -59 -13t-80 33q-18 14 -29.5 40t-15.5 57q-104 -41 -214 -65.5t-220 -24.5h-2q-39 -63 -62.5 -124t-23.5 -118zM598 430q104 2 209.5 26.5t206.5 65.5v17q0 88 53 180t158 196q63 63 180 138t223 75h12.5t12.5 -2q0 33 -15.5 48.5t-35.5 15.5q-96 0 -457 -244 t-547 -516zM1116 569q217 111 368.5 263.5t166.5 267.5q-4 2 -10.5 3t-12.5 1q-70 0 -158 -59.5t-172 -143.5q-94 -94 -134 -186t-48 -146zM1458 -2q27 -18 54.5 -22.5t43.5 -4.5q178 0 347.5 142.5t169.5 267.5q0 37 -16.5 72.5t-86.5 35.5t-158 -59t-172 -143 q-72 -72 -115.5 -149t-66.5 -140zM1985 745q10 -2 22 -3t27 -1q158 0 333 124t175 247q0 31 -14.5 54.5t-45.5 23.5q-45 0 -170 -65.5t-184 -125.5q-96 -96 -98 -143t-45 -111z" />
<glyph unicode="&#x153;" horiz-adv-x="774" d="M33 143q0 100 141 265t270 167q55 -20 74 -42.5t19 -43.5q0 -14 -3.5 -30.5t-9.5 -34.5q61 63 132 106t132 45q43 -14 62.5 -30.5t19.5 -48.5q0 -27 -22.5 -56.5t-48.5 -56.5q-49 -49 -119 -83t-121 -34h-19.5t-15.5 2q-45 -59 -75.5 -117.5t-32.5 -103.5q4 -2 12 -5 t18 -3q76 0 193 59.5t205 147.5q25 25 44 46t34 40q2 -2 4 -5t2 -5q0 -10 -25.5 -42t-66.5 -73q-86 -86 -201 -146.5t-174 -60.5q-51 0 -78 27.5t-27 103.5q0 10 2 23.5t7 25.5l-23 -22q-66 -66 -128 -112t-101 -46q-33 0 -56.5 37t-23.5 106zM92 53q2 -4 10.5 -6t18.5 -2 q37 0 89 37t112 96q70 70 127 163t57 148q0 14 -3 22.5t-9 14.5q-90 -10 -242 -189t-160 -284zM543 291h18q39 0 103.5 31.5t107.5 74.5q31 31 49.5 57.5t18.5 41.5q0 14 -2 21t-4 9q-51 -4 -135.5 -74.5t-155.5 -160.5z" />
<glyph unicode="&#x2c6;" horiz-adv-x="657" d="M322 647q0 8 142 88t277 219q25 -12 33 -33.5t8 -35.5q0 -27 -8 -49.5t-8 -63.5q0 -68 4 -93.5t4 -37.5q0 -2 -2 -4t-4 -2q-12 0 -39 47t-27 141v11q-59 -45 -164.5 -102.5t-209.5 -96.5q-2 2 -4 6t-2 6z" />
<glyph unicode="&#x2dc;" d="M346 645q0 8 7 22.5t14 22.5q129 180 241.5 273.5t163.5 93.5q33 0 50.5 -21.5t17.5 -60.5q0 -80 -76 -162t-74 -139q63 0 207.5 131t177.5 252q4 0 7 -4t3 -13q0 -84 -158.5 -241.5t-232.5 -157.5q-12 0 -18 5t-17 16q-8 8 -21 33.5t-13 47.5q0 74 98 158t74 127l-7 2 q-8 2 -16 2q-43 0 -165 -101.5t-257 -295.5q-2 2 -4 5t-2 5z" />
<glyph unicode="&#x2000;" horiz-adv-x="836" />
<glyph unicode="&#x2001;" horiz-adv-x="1673" />
<glyph unicode="&#x2002;" horiz-adv-x="836" />
<glyph unicode="&#x2003;" horiz-adv-x="1673" />
<glyph unicode="&#x2004;" horiz-adv-x="557" />
<glyph unicode="&#x2005;" horiz-adv-x="418" />
<glyph unicode="&#x2006;" horiz-adv-x="278" />
<glyph unicode="&#x2007;" horiz-adv-x="278" />
<glyph unicode="&#x2008;" horiz-adv-x="209" />
<glyph unicode="&#x2009;" horiz-adv-x="334" />
<glyph unicode="&#x200a;" horiz-adv-x="92" />
<glyph unicode="&#x2010;" horiz-adv-x="524" d="M205 354q70 2 135.5 1t122.5 -1q20 0 24.5 -17.5t4.5 -23.5q-55 -2 -121 -3t-123 -1q-27 0 -35 15.5t-8 29.5z" />
<glyph unicode="&#x2011;" horiz-adv-x="524" d="M205 354q70 2 135.5 1t122.5 -1q20 0 24.5 -17.5t4.5 -23.5q-55 -2 -121 -3t-123 -1q-27 0 -35 15.5t-8 29.5z" />
<glyph unicode="&#x2012;" horiz-adv-x="524" d="M205 354q70 2 135.5 1t122.5 -1q20 0 24.5 -17.5t4.5 -23.5q-55 -2 -121 -3t-123 -1q-27 0 -35 15.5t-8 29.5z" />
<glyph unicode="&#x2013;" horiz-adv-x="778" d="M154 354q131 2 273 1t271 -1q20 0 24.5 -17.5t4.5 -23.5q-141 -2 -262 -3t-268 -1q-27 0 -35 15.5t-8 29.5z" />
<glyph unicode="&#x2014;" horiz-adv-x="1351" d="M154 354q256 2 559 1t559 -1q20 0 24 -16t4 -25q-268 -2 -549.5 -3t-553.5 -1q-27 0 -35 13.5t-8 31.5z" />
<glyph unicode="&#x2018;" horiz-adv-x="215" d="M285 719q0 82 76.5 132t119.5 50q12 0 19.5 -7t7.5 -17l-3 1t-7 1q-27 0 -69 -25t-42 -57q0 -14 8 -22.5t8 -26.5q0 -27 -24.5 -55.5t-50.5 -28.5q-20 0 -31.5 15t-11.5 40z" />
<glyph unicode="&#x2019;" horiz-adv-x="215" d="M330 682l3 -1t7 -1q27 0 69 24.5t42 57.5q0 14 -8.5 22.5t-8.5 26.5q0 27 24.5 55.5t51.5 28.5q20 0 31.5 -15.5t11.5 -39.5q0 -82 -77 -132.5t-120 -50.5q-12 0 -19 7.5t-7 17.5z" />
<glyph unicode="&#x201a;" horiz-adv-x="258" d="M-78 -86l3 -1t7 -1q27 0 69 24.5t42 57.5q0 14 -8 22.5t-8 26.5q0 27 24.5 55.5t50.5 28.5q20 0 31.5 -15.5t11.5 -39.5q0 -82 -76.5 -132.5t-119.5 -50.5q-12 0 -19.5 7.5t-7.5 17.5z" />
<glyph unicode="&#x201c;" horiz-adv-x="399" d="M285 698q0 82 76.5 132.5t119.5 50.5q12 0 19.5 -7.5t7.5 -17.5l-3 1t-7 1q-27 0 -69 -24.5t-42 -57.5q0 -14 8 -22.5t8 -26.5q0 -27 -24.5 -55.5t-50.5 -28.5q-20 0 -31.5 15.5t-11.5 39.5zM469 698q0 82 77 132.5t120 50.5q12 0 19 -7.5t7 -17.5l-3 1q-3 1 -7 1 q-27 0 -69 -24.5t-42 -57.5q0 -14 8.5 -22.5t8.5 -26.5q0 -27 -24.5 -55.5t-51.5 -28.5q-20 0 -31.5 15.5t-11.5 39.5z" />
<glyph unicode="&#x201d;" horiz-adv-x="399" d="M330 682l3 -1q3 -1 7 -1q27 0 69 24.5t42 57.5q0 14 -8.5 22.5t-8.5 26.5q0 27 24.5 55.5t51.5 28.5q20 0 31.5 -15.5t11.5 -39.5q0 -82 -77 -132.5t-120 -50.5q-12 0 -19 7.5t-7 17.5zM514 682l3 -1t7 -1q27 0 69 24.5t42 57.5q0 14 -8.5 22.5t-8.5 26.5q0 27 25 55.5 t51 28.5q20 0 31.5 -15.5t11.5 -39.5q0 -82 -76.5 -132.5t-119.5 -50.5q-12 0 -19.5 7.5t-7.5 17.5z" />
<glyph unicode="&#x201e;" horiz-adv-x="442" d="M-78 -86l3 -1q3 -1 7 -1q27 0 69 24.5t42 57.5q0 14 -8 22.5t-8 26.5q0 27 24.5 55.5t50.5 28.5q20 0 31.5 -15.5t11.5 -39.5q0 -82 -76.5 -132.5t-119.5 -50.5q-12 0 -19.5 7.5t-7.5 17.5zM106 -86l4 -1q3 -1 7 -1q27 0 68.5 24.5t41.5 57.5q0 14 -8 22.5t-8 26.5 q0 27 24.5 55.5t51.5 28.5q20 0 31.5 -15.5t11.5 -39.5q0 -82 -77 -132.5t-120 -50.5q-12 0 -19.5 7.5t-7.5 17.5z" />
<glyph unicode="&#x2022;" horiz-adv-x="286" d="M184 426q0 39 35 79t72 40q27 0 44 -18.5t17 -45.5q0 -41 -35.5 -80t-74.5 -39q-25 0 -41.5 18.5t-16.5 45.5z" />
<glyph unicode="&#x2026;" horiz-adv-x="1351" d="M170 45q0 27 24.5 55.5t51.5 28.5q18 0 30.5 -12.5t12.5 -32.5q0 -29 -25.5 -56.5t-52.5 -27.5q-18 0 -29.5 12.5t-11.5 32.5zM621 45q0 27 24.5 55.5t50.5 28.5q18 0 30.5 -12.5t12.5 -32.5q0 -29 -25.5 -56.5t-51.5 -27.5q-18 0 -29.5 12.5t-11.5 32.5zM1071 45 q0 27 24.5 55.5t51.5 28.5q18 0 30.5 -12.5t12.5 -32.5q0 -29 -25.5 -56.5t-52.5 -27.5q-18 0 -29.5 12.5t-11.5 32.5z" />
<glyph unicode="&#x202f;" horiz-adv-x="334" />
<glyph unicode="&#x2039;" horiz-adv-x="532" d="M197 315v11q129 35 253.5 126t139.5 91q2 0 3 -7.5t1 -11.5q-76 -88 -160 -150.5t-147 -97.5l6 -6q23 -23 51.5 -85t28.5 -119q0 -12 -2 -17.5t-4 -5.5q-8 0 -35 46t-64 93q-20 27 -45.5 50.5t-25.5 82.5z" />
<glyph unicode="&#x203a;" horiz-adv-x="532" d="M59 61q76 88 160 150.5t148 97.5l-7 6q-23 23 -51 85.5t-28 119.5q0 12 2 17.5t4 5.5q8 0 34.5 -46t63.5 -94q20 -27 46 -50t26 -83v-10q-129 -35 -254 -126t-140 -91q-2 0 -3 7t-1 11z" />
<glyph unicode="&#x205f;" horiz-adv-x="418" />
<glyph unicode="&#x20ac;" horiz-adv-x="909" d="M123 393h180q12 25 28.5 48.5t33.5 45.5h-82q-27 0 -35 16.5t-8 33.5h166q141 160 332.5 272.5t308.5 112.5q37 0 64.5 -26t27.5 -71q0 -27 -18.5 -67.5t-57.5 -63.5q-16 12 -23.5 25.5t-7.5 25.5q4 27 28.5 53.5t39.5 35.5l2 4q0 20 -9.5 35.5t-25.5 15.5 q-51 0 -217 -105.5t-318 -246.5h308q20 0 24 -18.5t4 -26.5q-104 -2 -197 -2.5t-188 -2.5q-23 -23 -44 -46t-40 -48h324q20 0 24.5 -18.5t4.5 -26.5q-104 -2 -198.5 -2t-188.5 -2q-33 -49 -53.5 -97t-20.5 -93q0 -80 41 -100.5t63 -20.5q78 0 162 43t160 119q20 20 45.5 52 t40.5 60q2 -2 5 -7t3 -9q0 -20 -28.5 -67.5t-77.5 -96.5q-59 -59 -135 -99t-156 -40q-70 0 -123 43t-53 149q0 39 10 81t28 83h-110q-27 0 -35 16.5t-8 32.5z" />
<glyph unicode="&#xe000;" horiz-adv-x="573" d="M0 0v573h573v-573h-573z" />
<glyph unicode="&#xfb01;" horiz-adv-x="649" d="M-379 -494q0 39 95.5 190.5t213.5 326.5q45 68 145.5 209t211.5 294h-27q-27 0 -35 9.5t-8 29.5h98q113 156 216.5 291t150.5 182q66 66 101.5 81.5t68.5 15.5q45 0 64.5 -26t19.5 -60q0 -82 -36 -140.5t-91 -91.5q-14 10 -23.5 27.5t-9.5 32.5q4 18 15.5 35.5t25.5 31.5 t28.5 22.5t24.5 8.5h3t1 -2q12 12 21.5 31.5t9.5 46.5q0 31 -12 44t-33 13q-25 0 -49.5 -18.5t-44.5 -38.5q-35 -35 -135.5 -174.5t-218.5 -311.5q59 -2 117.5 -2h88.5q25 0 36.5 -25.5t11.5 -52.5q0 -57 -127 -207.5t-136 -244.5q74 0 203 112.5t187 184.5q2 -2 4 -5t2 -6 q0 -31 -157 -175t-234 -144q-12 0 -22.5 5t-20.5 15q-8 8 -21.5 34t-13.5 50q0 82 79.5 179.5t188.5 248.5q-47 -2 -103.5 -3t-107.5 -1q-141 -207 -270 -398t-166 -243q-76 -109 -170 -266.5t-115 -208.5q-27 6 -36 38t-9 56z" />
</font>
</defs>
</svg>
